<svg viewBox="0 0 32 32" xmlns="http://www.w3.org/2000/svg"><path d="m19.5 10.875c.9247497 0 1.7833108.4050594 2.3706851 1.088837l.1414209.177722 1.5279425 2.2396534.8087309 1.2096723c.0509784.0707378.0997707.1431558.146278.2171552l.0021623.0057107.0500616.0798905.0133513.0223726c.0127307.0217043.0252686.0435354.0376113.0654909l-.0509626-.0878635c.0543277.0913178.1050145.1845315.1519785.2794517.0204826.0410835.0404282.0831587.0596756.1256178.0104416.0233731.0204561.0460214.0302638.0687561.0202535.0465785.0398322.0943924.0585293.1426457.0087365.022937.017308.0456613.0256772.0684617.1034407.2813722.1769654.5772392.21686.8836706.003576.028005.0069765.0563593.0100856.0847742.0043443.0392572.0080362.0781781.0111835.1172527.0029731.0373026.0054879.0747572.0074975.1122989.0039593.0736446.0059677.1483025.0059677.2234295 0 2.209139-1.7365925 4.0126751-3.9191209 4.1199517l-.2058791.0050483-.205691-.0050641-.2034543-.0149715c-.1869654-.0184094-.3702651-.0493017-.5490544-.0918321-.0317634-.0078984-.0638166-.0159454-.0957239-.0243659-.3284542-.0861895-.6407046-.2121447-.9315699-.3721684-.0968005-.0536714-.1921351-.1112168-.2848888-.1724222-.0987889-.0648983-.1945568-.1342435-.2871098-.207474-.0178675-.0142604-.0357361-.0286244-.0534828-.0431342-.08182-.0668845-.1609044-.1368339-.2371993-.2096799l-.0092962-.0087475c-.0337182-.032358-.066892-.0652883-.0995054-.0987765-.0538051-.0555848-.1058138-.1121122-.1562312-.1700607l-.0106725-.0118624c-.1526848-.1767213-.2907076-.3667037-.4120787-.5681415h-2.9280836c-.1213711.2014378-.2593939.3914202-.4120787.5681415l-.0106725.0118624c-.0504174.0579485-.1024261.1144759-.155958.1695141-.0328866.0340348-.0660604.0669651-.0997786.0993231l-.0092962.0087475c-.0762949.072846-.1553793.1427954-.2370768.2096717-.0178692.014518-.0357378.028882-.0537263.0430983-.092432.0732746-.1881999.1426198-.2869367.2078334-.0928058.0608901-.1881404.1184355-.2858421.172127-.2899641.1600036-.6022145.2859588-.9304746.3724702-.0321014.0080986-.0641546.0161456-.0963485.0238144-.2427097.0580678-.4941914.0943825-.7518901.107049l-.2058791.0050483c-2.27817459 0-4.125-1.8468254-4.125-4.125v-.001l.00504829-.2048791c.0002958-.006018.00060449-.0120326.00092606-.0180438l-.00597435.2239229c0-.112629.00453334-.2246282.01350868-.3357854.00310383-.0390176.00679572-.0779385.01102455-.1166981.00322453-.0289125.00662503-.0572668.01031538-.0855569.03978031-.3061463.11330497-.6020133.21663519-.8834912.00847972-.0226947.01705117-.045419.02582388-.0680649.01866095-.0485444.03823962-.0963583.05868005-.1437131.00962073-.0219584.0196353-.0446067.02985577-.067166.01946849-.0432729.03941413-.0853481.06004337-.1270248.03179292-.0639607.06545433-.1277254.10081186-.1906411.0124001-.0223094.02493799-.0441405.03766866-.0658448.0043932-.0072603.00885983-.0148229.01335134-.0223726l.02329204-.038879c.04009529-.065724.08197754-.1302385.12557922-.193476l.04320877-.0646844 2.27412034-3.3572815.0887554-.1247394c.5867008-.7745892 1.5015223-1.2395808 2.4923255-1.2395808 1.1307554 0 2.1212404.6005693 2.6698797 1.5001328h1.6602406c.5486393-.8995635 1.5391243-1.5001328 2.6698797-1.5001328zm1.5 4.25c-1.5878187 0-2.875 1.2871813-2.875 2.875 0 .2056979.0216022.4063503.0626617.5998124.007312.0352897.0153389.0699622.023983.1043777l-.023983-.1043777c.0131586.0620004.0283157.1232623.0454005.1837151l-.0214175-.0793374c.0127796.0508802.0269082.1011985.0423443.1509171l-.0209268-.0715797c.0153846.0544366.0323324.1082172.0507918.1612902l-.029865-.0897105c.0153068.0493024.0318993.0980151.0497368.146101l-.0198718-.0563905c.0173415.0498589.0360171.0990932.0559841.1476604l-.0361123-.0912699c.0229237.0617975.0479037.1225598.0748535.1822087l-.0387412-.0909388c.0218583.0531677.0452642.1055357.0701616.157048l-.0314204-.0661092c.0168946.0373931.0345633.0743486.0529848.1108471l-.0215644-.0447379c.1567753.3243655.3726896.6148016.633743.8573087.0170625.0159364.0343313.0315705.0517874.0469945l-.0517874-.0469945c.0295073.027411.0595913.0542096.0902318.0803756l-.0384444-.0333811c.0824255.0728302.1690248.1409757.2593676.2040452.0158466.0113114.0314601.0219938.0471833.0325252l-.0471833-.0325252c.0493407.0344454.0997981.0673768.1513019.0987304l-.1041186-.0662052c.0422572.0283039.0853066.055517.129108.081599l-.0249894-.0153938c.0450055.0273976.09081.0535905.1373668.078536l-.1123774-.0631422c.0506821.0301792.1023709.058844.1550041.0859321l-.0426267-.0227899c.050093.0268403.1010569.0522366.1528334.076136l-.1102067-.0533461c.0469759.0241764.094704.0470969.14314.0687169l-.0329333-.0153708c.0513889.0237204.1035783.0459663.1565113.0666858l-.123578-.051315c.0527778.0235581.1063961.0455721.1607974.0659848l-.0372194-.0146698c.0538784.0210895.1085271.0405977.1638861.0584699l-.1266667-.0438001c.0510544.0191568.1027984.0369031.1551846.0531916l-.0285179-.0093915c.0526414.0169948.1059251.0325103.1597995.0464996l-.1312816-.0371081c.0543917.0169121.1094757.0322525.1651989.0459681l-.0339173-.00886c.0475008.0123343.0954608.0234822.1438445.0334113l-.1099272-.0245513c.0604835.0148874.1217201.0278605.1836418.0388516l-.0737146-.0143003c.0387236.0079467.0777185.0151128.1169668.0214818l-.0432522-.0071815c.0553103.0098175.1111673.0180535.1675225.0246597l-.1242703-.0174782c.0932104.0151257.1878495.0257555.283674.0316685l.178918.0055062c1.5878187 0 2.875-1.2871813 2.875-2.875l-.0072678-.2060169c-.0013462-.0190127-.0028773-.0379743-.0045914-.0568831-.0036957-.0412497-.008337-.0826114-.0138572-.1237652l.0138572.1237652c-.007125-.0785963-.0174132-.1562795-.0307363-.232921l.0168791.1091558c-.0206397-.1538738-.0535652-.3048417-.0982755-.4518032-.0084217-.0270234-.0170171-.053822-.0259918-.0804462l.0259918.0804462c-.0205004-.0673843-.0434784-.1339263-.0688858-.1995199l.042894.1190737c-.0195671-.0580474-.0409369-.1152655-.0640429-.1715876l.0211489.0525139c-.0546003-.1409602-.1204196-.2775405-.1969788-.4086881-.0093251-.0158151-.0186827-.0315079-.0281846-.0471032l-.1365189-.2039558c-.5231275-.7137917-1.3676588-1.1772646-2.32044-1.1772646zm-10 0c-.9505309 0-1.79332264.4612861-2.31672805 1.1722113l-.1402308.2090091c-.0095019.0155953-.0188595.0312881-.02807094.0470767l.01200941-.0205444c-.07199958.1210216-.13479494.2467575-.18800459.3763693-.00710993.0178323-.01410465.035375-.0209306.0530017l.0209306-.0530017c-.02325732.0566519-.04468333.1140442-.06424616.172107l.04331556-.1191053c-.02529872.0653291-.04827924.1318131-.06884064.1993512l.02552508-.0802459c-.04635668.1375874-.08225136.2789397-.10726015.4231255-.00615304.0359493-.0117586.0723056-.01667647.1088799l.01667647-.1088799c-.01334201.0769221-.02358573.1546507-.03066681.2330443l.01399034-.1241644c-.00798183.059361-.01415212.1192962-.0184534.1797481l.00446306-.0555837c-.00777912.0861216-.0117413.1730458-.01180122.2605851l.00733816-.2050014c-.00486486.0683726-.00733885.1374061-.00733885.2070175 0 1.5878187 1.28718134 2.875 2.875 2.875.1143395 0 .2272462-.0067163.3383245-.0197893.04182-.0048098.0833684-.0106101.1246226-.0172883l-.1246226.0172883c.0561879-.0066128.111908-.0148521.167109-.0246713l-.0424864.007383c.0392601-.0063553.0782537-.0135058.1169639-.0214342l-.0744775.0140512c.0619017-.0110111.1231507-.0240091.1836748-.0389281l-.1091973.0248769c.0483653-.0099059.0962881-.0210264.143735-.033328l-.0345377.0084511c.0559505-.0137917.1112815-.0292251.1659359-.0462483l-.1313982.0377972c.0536991-.0139227.1067887-.0293585.1592206-.0462591l-.0278224.0084619c.0523215-.0162967.104023-.0340503.1550542-.0532155l-.1272318.0447536c.0554143-.0178619.1100939-.03736.1639821-.0584375l-.0367503.0136839c.0542726-.0203825.1077872-.0423615.1604836-.0658822l-.1237333.0521983c.053092-.0207661.1054156-.0430651.1569165-.0668428l-.0331832.0146445c.048314-.0215647.0959402-.0444254.1428322-.0685399l-.109649.0538954c.0518485-.0239381.1028631-.0493748.1529882-.0762545l-.0433392.0223591c.0527456-.0271246.1045622-.0558356.1553838-.086073l-.1120446.0637139c.0464541-.0249111.0921442-.0510617.1370262-.0784074l-.0249816.0146935c.0438682-.0261002.086995-.0533376.1293381-.0816736l-.1043565.0669801c.0514084-.0313222.1017565-.0642125.1509778-.0986043l-.0466213.0316242c.0931729-.0623514.1825508-.1300221.267681-.2026007.0132048-.0112662.026101-.0224784.0388955-.033803l-.0388955.033803c.0307117-.0261835.0608705-.0530057.0904553-.0804474l-.0515598.0466444c.272071-.2408117.4981734-.5323858.6634729-.8598881.0076254-.0140351.0148798-.0287205.0220121-.0434778l-.0220121.0434778c.0184456-.0365456.0361341-.0735387.0530449-.1109585l-.0310328.0674807c.0249002-.0515204.0483129-.1039183.0701802-.157141l-.0391474.0896603c.0269236-.0595762.0518759-.1202342.0747736-.1818908l-.0356262.0922305c.0200008-.0486797.0387086-.0980493.0560792-.1480686l-.020453.0558381c.0178715-.0481225.0344914-.0968533.0498201-.1461528l-.0293671.0903147c.0183693-.0528951.0352431-.1065166.0505689-.1608168l-.0212018.0705021c.0154857-.0498043.0296536-.100189.0424631-.1511134l-.0212613.0806113c.017079-.060512.0322357-.121867.0453972-.1839987l-.0241359.1033874c.0566338-.2251491.0867128-.4608476.0867128-.7035715 0-1.5878187-1.2871813-2.875-2.875-2.875zm5.858 3h-1.718l-.0532336.4384236-.006492.0461387c-.0024926.0168285-.0050868.033624-.0077821.0503856l.0142741-.0965243c-.0100543.0735084-.0220252.1463616-.0358589.2185106-.0015307.008393-.0031477.0166807-.0047895.0249595l-.0144188.0692652h1.9366016l-.0144188-.0692652c-.0016418-.0082788-.0032588-.0165665-.0048509-.024863-.0010325-.0058013-.0021146-.0115106-.0031851-.0172241l-.0183383-.1048587c-.0051377-.0319511-.0099084-.0640248-.0143076-.0962169l-.0042555-.0325753zm-.4608095-4.4993448h-.794381c.0146523.1227383.0221905.2476612.0221905.3743448l-.0149466.2213615-.1180097 1.0657666-.1970437 1.5878719h1.41l-.2374096-1.9327463-.0776445-.7208983-.0140077-.1853598-.0009382-.0359956c0-.1266836.0075382-.2516065.0221905-.3743448zm-3.8971905-1.5006552c-.5356922 0-1.0329923.2255425-1.3843327.6102674l-.1262434.1542161-.7185705 1.0497577c.2366746-.0422128.4803381-.0642412.7291466-.0642412 1.3004813 0 2.4604022.6018109 3.2164607 1.5421309l.044717-.3679462.1138223-1.0491847c0-1.0355339-.8394661-1.875-1.875-1.875zm7 0c-1.0355339 0-1.875.8394661-1.875 1.875l.03598.3694466.1225593 1.0476843c.7560585-.94032 1.9159794-1.5421309 3.2164607-1.5421309.2477572 0 .4904128.0218426.7261461.0637072l-.7302534-1.0693936c-.3528632-.4658661-.9006791-.7443136-1.4958927-.7443136z" fill-rule="evenodd"/></svg>
