<svg viewBox="0 0 32 32" xmlns="http://www.w3.org/2000/svg"><path d="m22.9626062 17.7382838-.9783-.56481c.0615001-.4870563.0615001-.9799138 0-1.46697l.9783-.56481c.28728-.16584.42585-.50706.33138-.82503-.33642-1.13247-.93525-2.15184-1.72605-2.98785-.22902-.2421-.59451-.29508-.88311-.12846l-.97686.56394c-.390737-.2973676-.817513-.5441253-1.27017-.7344v-1.12842005c0-.3339-.22956-.62412-.55452-.70101-1.12932-.26727-2.31354-.2673-3.4431 0-.32493.07689-.55452.36708-.55452.70101v1.12842005c-.4526604.1902677-.8794373.437026-1.27017.7344l-.97686-.56394c-.28863-.16662-.65412-.11364-.88311.12846-.79079997.83601-1.38962997 1.85541-1.72604997 2.98785-.09447.31797.0441.65916.33138.82503l.97829997.56481c-.0615.4870562-.0615.9799137 0 1.46697l-.97829997.56481c-.28728.16584-.42585.50706-.33138.82503.33642 1.13244.93525 2.15184 1.72604997 2.98785.22902.2421.59451.29508.88311.12849l.97686-.56394c.3907306.297369.8175081.5441176 1.27017.73437v1.12842c0 .3339.22956.62412.55452.70101 1.12935.26727 2.31354.2673 3.4431 0 .32493-.07689.55452-.36708.55452-.70101v-1.12842c.4526536-.1902691.8794291-.4370165 1.27017-.73437l.97686.56394c.2886.16662.65409.11364.88311-.12849.7908-.83601 1.38963-1.85541 1.72605-2.98785.09447-.31797-.0441-.65916-.33138-.82503zm-1.96437 3.01383-1.38927-.8022c-.80964.69213-1.09677.86628-2.13117 1.23177v1.60437c-.86824.1791003-1.7639.1791003-2.63214 0v-1.60437c-1.00863-.35637-1.30065-.52185-2.13117-1.23177l-1.38927.8022c-.5913-.6627-1.04067-1.43967-1.31787-2.27874l1.38987-.8022c-.19605-1.06251-.19614-1.39932 0-2.46237l-1.38987-.8022c.2772-.83907.7266-1.61607 1.31787-2.27907l1.38927.8028c.82131-.70302 1.11189-.87195 2.13117-1.23207v-1.60434c.8682095-.17939987 1.7639306-.17939987 2.63214 0v1.60437c1.01934.36015 1.30995.52911 2.13117 1.23207l1.38927-.8028c.59127.66297 1.04067 1.43997 1.31787 2.27907l-1.38987.8022c.19608 1.06278.19614 1.39932 0 2.46237l1.38987.8022c-.2772.83904-.72657 1.61604-1.31787 2.27871zm-4.83651-7.19211c-1.58805 0-2.88 1.29195-2.88 2.88s1.29195 2.88 2.88 2.88 2.88-1.29195 2.88-2.88-1.29195-2.88-2.88-2.88zm0 4.8c-1.0587 0-1.92-.8613-1.92-1.92s.8613-1.92 1.92-1.92 1.92.8613 1.92 1.92-.8613 1.92-1.92 1.92z" fill-rule="evenodd"/></svg>
