<svg viewBox="0 0 32 32" xmlns="http://www.w3.org/2000/svg"><path d="m15.405731 7h1.2092849c1.620652 0 3.0936542.66265128 4.1612063 1.73017845 1.4259661 1.42596605 2.582922 4.44122655.9244712 6.09967735-.3061348.3061348-.6840223.5407166-1.1055256.6758334.2887584.2334833.5408415.5014199.7556252.804384.2624191-.0128326.5571943-.0005992.8231835-.0005992.5297066 0 1.0015167.2734542 1.3348896.7139318.303039.4004069.4911339.9455426.4911339 1.5384884 0 .6567842-.9986456.6567842-.9986456 0 0-.3711467-.1104252-.702722-.288309-.9377532-.1475499-.1949606-.33914-.3160214-.5390689-.3160214h-.3131502c.1382874.4075972.2091663.8331201.2091663 1.2635613 0 1.6153092-.6604543 3.0834181-1.7244612 4.1474001-2.3145609 2.3146108-6.3557051 2.3146108-8.670266 0-1.0640069-1.063982-1.72446118-2.5320909-1.72446118-4.1474001 0-.4321389.07047938-.8547158.20916628-1.2635613h-.33394704c-.19992885 0-.39151901.1210608-.53906889.3160214-.17788375.2350312-.28830898.5666065-.28830898.9377532 0 .6567842-.99864559.6567842-.99864559 0 0-.5929458.1880949-1.1380815.4911339-1.5384884.33337286-.4404776.80518297-.7139318 1.33488956-.7139318.25732604 0 .59564214-.0199729.84303164.0019724.2143093-.3031639.465269-.5702017.7565489-.8057323-.4215033-.1350918-.7993908-.3696986-1.1055256-.6758583-1.65845073-1.6584508-.50144492-4.6737113.9244961-6.09967735 1.0675272-1.06752717 2.5405045-1.73017845 4.1611565-1.73017845zm2.7295231 8.635563h-4.2497114c-.8068806 0-1.5408352.3304768-2.0732132.8628797-.5324029.532403-.8628797 1.2663575-.8628797 2.0732382 0 1.3396082.5484062 2.5578309 1.431908 3.4413077 1.9245898 1.9246397 5.3334914 1.9246397 7.2580812 0 .8835018-.8834768 1.431908-2.1016995 1.431908-3.4413077 0-.8068807-.3304768-1.5408352-.8628797-2.0732382-.532378-.5324029-1.2663326-.8628797-2.0732132-.8628797zm-3.1723725-5.156107c.6721634.6721134.6721134 1.7752423 0 2.4473558-.6720885.6721384-1.7752423.6721384-2.4473308 0-.6721135-.6721135-.6721634-1.7752424 0-2.4473558.6720885-.67213842 1.7752423-.67213842 2.4473308 0zm-.7060924.7060924c-.2841895-.2842396-.7509565-.2842396-1.0351461 0-.2842644.2842145-.2842145.7509565 0 1.035171.2841896.2842395.7509566.2842395 1.0351461 0 .2842146-.2842145.2842645-.7509565 0-1.035171zm5.2484818-.7103616c.6721384.6720885.6721384 1.7752423 0 2.4473308-.6720885.6721384-1.7752424.6721384-2.4473308 0-.6721384-.6720885-.6721384-1.7752423 0-2.4473308.6720884-.67213843 1.7752423-.67213843 2.4473308 0zm-.7060924.7060923c-.2841896-.2842395-.7509565-.2842395-1.0351461 0-.2842395.2841896-.2842395.7509566 0 1.0351461.2841896.2842395.7509565.2842395 1.0351461 0 .2842395-.2841895.2842395-.7509565 0-1.0351461zm-2.1841627-3.18263351h-1.2092849c-1.3449509 0-2.5680421.55060324-3.4550641 1.43762522-1.0088068 1.00883179-2.1411211 3.47086759-.9244961 4.68749259.3165956.3166206.7529038.513154 1.2323785.513154h1.6269934 4.2497114 1.6269434c.4794997 0 .915808-.1965334 1.2324036-.513154 1.2166499-1.2166499.0843606-3.6786608-.9244712-4.68749259-.887047-.88702198-2.1101631-1.43762522-3.455114-1.43762522z" fill-rule="evenodd"/></svg>
