<svg viewBox="0 0 32 32" xmlns="http://www.w3.org/2000/svg"><path d="m22.0902446 13.9862519h-1.0281456c-.4085579-1.0690107-1.0834168-2.0159387-1.9605779-2.7509841-.0096451-.917059-.1005684-1.83145765-.2717022-2.732459-.037582-.19881296-.1701786-.3666018-.354921-.44912006-.1847423-.08251825-.3981905-.06929606-.5713362.03539181-.804352.47255158-1.5648512 1.01606048-2.2724179 1.62403777-.2937302-.04008759-.5896825-.06174263-.8861195-.06483801-2.5803001.000486-4.93430503 1.47274039-6.06401651 3.79258979s-.83721831 5.0808854.75347482 7.1125459l-.25626452.5958922c-.42282622.8265496-.16851176 1.8384342.59485713 2.3668603.76336888.5284262 1.79999908.4101708 2.42474158-.2766064.0199562-.0261605.0375227-.0540602.0524879-.0833632l.2192143-.4106407c1.5208052.5423989 3.1855026.5226854 4.6930368-.0555754l.3087525.5248791c.0125492.0244819.0281072.0473003.0463128.0679255.5982528.7778523 1.702212.9481871 2.5070972.3868313s1.0264782-1.6561784.503239-2.4863478l-.3612404-.7626184c.3732005-.494405.674643-1.0390803.8953821-1.6178628h1.0404957c.3410385 0 .6175048-.2764663.6175048-.6175048v-3.5815282c0-.1659348-.0667177-.3249006-.1852073-.4410669s-.2787459-.1797566-.4446476-.1764379zm-.6175049 3.5815281h-.8645068c-.2715998.0005506-.5109536.1784995-.5897171.4384285-.2162155.7105758-.5755659 1.3693848-1.0559333 1.9358777-.1632079.1882455-.1973022.4561295-.0864507.6792553l.5464918 1.1454715c.014619.0298342.031119.0587093.0494004.0864507.1795544.2755176.1116763.6434168-.1543762.8367191-.2550758.1777879-.6037746.1308477-.8027563-.1080634l-.5403168-.9849202c-.1610485-.2842056-.5155839-.3938138-.8089313-.2500895-1.4835827.7250845-3.2143872.7454869-4.7146496.0555755-.2973139-.1363267-.649357-.0171737-.8027563.2717021l-.4662162.8552442c-.2225041.1857927-.5442905.1918071-.7735819.0144587s-.3043585-.4903142-.1804631-.752377c.0243164-.0321097.0440591-.0674386.058663-.1049758l.4291659-.9941828c.0936967-.2192135.0528374-.4727818-.1049758-.6514676-1.40650519-1.592133-1.77138443-3.8514785-.93756228-5.8054193.83382218-1.9539408 2.71752208-3.2537305 4.84019288-3.3398276l-.135851.188339c-.1909816.283062-.1163357.6673502.1667263.8583317.2830619.1909816.6673501.1163357.8583317-.1667263.5588419-.830544 1.6178627-1.6333003 2.3465184-2.12421667.1444427.98622957.1392382 1.98860937-.0154376 2.97328587-.0337805.1605159-.0023077.3278764.0874742.4651559.089782.1372796.2304947.2331962.3910921.2665873.0420847.0043366.0845037.0043366.1265885 0 .2971571.0062985.5566407-.1999909.6175048-.4909163 0 0 0-.0277877 0-.0401378.4869199.5685944.850669 1.2319635 1.0682834 1.9482278.079873.2587066.3189612.4352063.5897172.4353409h.8645068zm-8.2560399-4.5510107c.0919177.1358685.1259968.3027269.0947175.4637571-.0312792.1610301-.1253459.3029969-.2614438.3945746-.8385671.5644181-1.3418982 1.5085978-1.343073 2.5194198 0 .3410385-.2764664.6175049-.6175049.6175049s-.6175048-.2764664-.6175048-.6175049c0-1.4217549.70715-2.7503907 1.8864773-3.5444778.1358685-.0919177.3027269-.1259968.4637571-.0947175.1610301.0312792.3029969.1253459.3945746.2614438z" fill-rule="evenodd"/></svg>
