<svg xmlns="http://www.w3.org/2000/svg" viewBox="0 0 102 35"><defs><linearGradient x1="100%" y1="50%" x2="0%" y2="50%" id="a"><stop stop-color="#ffca80" offset="0%"/><stop stop-color="#ffca80" stop-opacity="0" offset="100%"/></linearGradient></defs><g fill="none" fill-rule="evenodd"><path d="M0 11.6s2 12.8 5 12.8c2 0 2 9.6 5 9.6h5c3 0 3-21.6 6-21.6 2 0 2 1.6 5 1.6 2 0 2 9.6 5 9.6s3-11.2 5-11.2c3 0 3 15.2 6 15.2 2 0 2-2.4 5-2.4s3-13.6 5-13.6c3 0 3 9.6 5 9.6 3 0 3 4 6 4 2 0 2-17.6 5-17.6s3-4 5-4c3 0 3 27.2 5 27.2 3 0 3-8.8 6-8.8 2 0 2-14.4 5-14.4s3-.8 5-.8c3 0 5-4.8 5-4.8" stroke="url(#a)" stroke-linecap="round" stroke-linejoin="round"/><path d="M99.94.235c-1.035-.552-2.296-.21-2.815.766-.52.974-.101 2.212.934 2.764 1.036.552 2.297.21 2.816-.766.52-.974.101-2.212-.934-2.764z" fill="#ffca80" fill-rule="nonzero"/></g></svg>
