<svg viewBox="0 0 32 32" xmlns="http://www.w3.org/2000/svg" xmlns:xlink="http://www.w3.org/1999/xlink">
  <path fill="url(#gradient-purple-blue)" fill-rule="evenodd"
    d="M14.276 14.789a1.16 1.16 0 01-1.042-.642 1.168 1.168 0 011.04-1.69c.441-.002.845.246 1.042.64a1.167 1.167 0 01-1.04 1.692m-1.368 2.383l-.067-.001a1.165 1.165 0 11.068.002m1.376 2.376a1.16 1.16 0 01-1.14-.928 1.165 1.165 0 111.14.928m2.748-.006a1.16 1.16 0 01-1.04-.641 1.157 1.157 0 01-.067-.89 1.159 1.159 0 011.107-.801 1.16 1.16 0 011.041.642 1.168 1.168 0 01-1.04 1.69m1.369-2.382c-.023 0-.045-.002-.067-.003a1.167 1.167 0 01.132-2.328c.309.016.598.156.803.387.207.23.312.534.293.843a1.165 1.165 0 01-1.161 1.1m-1.381-2.377a1.167 1.167 0 01.002-2.332 1.167 1.167 0 01-.002 2.332m-3.913-4.328a.582.582 0 11-1.039.524.582.582 0 011.04-.524m-3.528 4.977a.583.583 0 11-.067 1.163.583.583 0 01.067-1.163m2.544 5.545a.581.581 0 11.973.639.583.583 0 11-.973-.64m6.073.569a.582.582 0 111.04-.525.582.582 0 01-1.04.525m3.527-4.977a.582.582 0 11.066-1.162.582.582 0 01-.066 1.162m-2.544-5.545a.582.582 0 11-.973-.639.582.582 0 11.973.639m-7.346-2.355a.377.377 0 11-.674.34.377.377 0 01.674-.34m-4.438 6.974a.376.376 0 11-.042.751.376.376 0 01.042-.751m3.818 7.332a.376.376 0 11.63.412.376.376 0 01-.63-.412m8.256.359a.377.377 0 11.674-.34.377.377 0 01-.674.34m4.438-6.974a.377.377 0 11.043-.754.377.377 0 01-.043.754m-3.817-7.333a.377.377 0 11-.63-.413.377.377 0 01.63.413m-8.143 4.057a.685.685 0 11-.75 1.145.685.685 0 01.75-1.145m-.674 4.668a.685.685 0 11.617 1.223.685.685 0 01-.617-1.223m3.655 2.917a.685.685 0 111.368.077.685.685 0 01-1.368-.077m4.428-1.75a.685.685 0 11.75-1.146.685.685 0 01-.75 1.146m.673-4.669a.685.685 0 11-.617-1.222.685.685 0 01.617 1.222m-3.703-2.917a.686.686 0 11-1.37-.08.686.686 0 011.37.08m-6.93.521a.48.48 0 11-.526.802.48.48 0 01.526-.802m-.462 7.493a.479.479 0 11.432.855.479.479 0 01-.432-.855m6.206 4.147a.479.479 0 11.956.052.479.479 0 01-.956-.052m6.766-3.346a.48.48 0 11.527-.803.48.48 0 01-.527.803m.463-7.493a.48.48 0 11-.431-.859.48.48 0 01.43.86m-6.254-4.148a.48.48 0 11-.958-.054.48.48 0 01.958.054" />
</svg>
