<svg viewBox="0 0 32 32" xmlns="http://www.w3.org/2000/svg" xmlns:xlink="http://www.w3.org/1999/xlink">
  <defs>
    <linearGradient id="gradient-alg" x1="0%" x2="100%" y1="100%" y2="0%">
      <stop offset="0" stop-color="#ff9580" />
      <stop offset="1" stop-color="#8aff80" />
    </linearGradient>
  </defs>
  <path fill="url(#gradient-alg)" fill-rule="evenodd"
    d="m10.7508772 23.9157895 2.3017544-3.9859649 2.3017544-3.9719299 2.2877193-3.9859649.3789473-.6315789.1684211.6315789.7017544 2.6245614-.7859649 1.3614035-2.3017544 3.9719299-2.2877193 3.9859649h2.7508772l2.3017544-3.9859649 1.1929824-2.0631579.5614035 2.0631579 1.0666667 3.9859649h2.4701754l-1.0666666-3.9859649-1.0666667-3.9719299-.2807018-1.0245614 1.7122807-2.9614035h-2.4982456l-.0842105-.2947368-.8701754-3.25614037-.1122807-.42105263h-2.4l-.0561404.08421053-2.245614 3.88771927-2.3017544 3.9859649-2.2877193 3.9719299-2.3017544 3.9859649z" />
</svg>
