<svg viewBox="0 0 32 32" xmlns="http://www.w3.org/2000/svg">
  <path fill="url(#gradient-blue-yellow)" fill-rule="evenodd"
    d="m8 24c0-.2245906 0-.4450221 0-.6696127.07657145-.0216177.15486296-.0369213.23405149-.0457499.2288871-.0379103.45493002-.0907094.67662159-.1580453.06086612-.0170821.12056265-.0379193.17873023-.0623862.28989445-.1116651.54507213-.2951298.7404538-.5323629.13476721-.168427.25436699-.3479374.35746049-.536522.1439776-.2598397.2718719-.5278892.3829933-.8027034.229796-.5573174.4553366-1.1104757.6808771-1.663634l2.314982-5.7312191c.7262689-1.8216792 1.4454453-3.6447448 2.1575292-5.46919678 0-.03743177.0297884-.07486353.0468103-.1122953l.7830086-.21627242c0 .03743177.0297884.07070445.0425549.10397713l.8936511 2.44970107c1.0170601 2.7824279 2.0383757 5.5606966 3.0894797 8.31817.2836988.7569535.5673975 1.5139069.8510963 2.2708604.1162254.308449.2512234.6098276.4042708.9025214.0680877.1206135.1404309.2453861.221285.3618404.2409626.3695739.6167399.6357295 1.051104.7444763.2346194.0624952.4735466.1083642.7149209.1372498l.1702193.0249545c.0105332.0717233.0105332.1445491 0 .2162724v.2287497c.0064047.0719549.0064047.1443175 0 .2162724h-.0595768-5.9832072v-.0415909-.5697946c-.0018452-.0082204-.0018452-.0167341 0-.0249545l.1489419-.0291136c.2469793-.0288732.4915672-.0747369.7319428-.1372498.0978761-.0249545.1914967-.0623863.2851173-.095659.0481729-.0162688.093955-.0386413.1361754-.0665453.2220977-.1120646.348152-.3484732.3149057-.5905901-.0130028-.1177545-.0343312-.234488-.0638323-.3493631-.0468103-.1788407-.114898-.3493632-.1787302-.5240448-1.2454376-3.3938133-2.4752718-6.7903994-3.6895026-10.1897582-.0067662-.0419264-.0260057-.0809801-.0553213-.1122953 0 0-.0297883 0-.0382993.0249545-.001741.0179826-.001741.0360856 0 .0540681-.5957674 1.663634-1.2298342 3.327268-1.8596455 4.990902-.4638475 1.2477255-.9319505 2.4580193-1.3617541 3.6974266-.1744748.4949311-.344694.9940213-.5064023 1.4931115-.0633465.1913387-.1103183.3874903-.1404309.586431-.0225868.1377574-.0225868.2781511 0 .4159085.0124606.1703516.0935769.3289093.2255405.440863.0971929.0652634.203169.1170512.3149056.1538861.1767906.0622517.3591524.1082019.5447017.1372498.2042631.0374318.4255482.0665454.6170448.0998181h.0425549c.0018745.0138031.0018745.0277877 0 .0415908v.5822719.0332727h-.0553213-5.3619069z" />
</svg>
