<svg viewBox="0 0 32 32" xmlns="http://www.w3.org/2000/svg">
  <path fill="url(#gradient-green-yellow)" fill-rule="evenodd"
    d="M16 7c.87 0 1.612 2.39 1.908 5.758l.053-.024.026-.012.053-.024.079-.036.052-.023.053-.023.026-.012.052-.023.052-.023.051-.022.026-.012.052-.022.026-.011.05-.022.027-.011.05-.022.026-.011.051-.022.026-.01.05-.022.026-.01.05-.022.076-.031.05-.02.025-.01.05-.021.099-.04.05-.02.048-.02.05-.02.048-.019.05-.02.048-.018.048-.019.024-.01.048-.018.191-.072a.63.63 0 01.62-.704c.229 0 .428.125.537.31 1.6-.484 2.728-.544 3.007-.066.432.741-1.297 2.56-4.113 4.487 2.806 1.937 4.529 3.763 4.093 4.502-.435.741-2.902.18-6.007-1.253C17.61 22.617 16.868 25 16 25c-.55 0-1.05-.956-1.417-2.512a.633.633 0 01-.498-.622c0-.217.107-.409.27-.523l-.008-.046a22.05 22.05 0 01-.011-.068l-.007-.046-.008-.046-.007-.046a23.027 23.027 0 01-.004-.023l-.007-.047-.007-.047a23.891 23.891 0 01-.01-.07l-.008-.048-.006-.047-.007-.048-.007-.048-.007-.048-.006-.048-.007-.049a26.059 26.059 0 01-.003-.024l-.007-.05-.006-.048-.006-.05a26.968 26.968 0 01-.003-.024l-.007-.05a27.41 27.41 0 01-.003-.024l-.006-.05-.006-.05-.006-.05-.006-.05a28.217 28.217 0 01-.003-.026l-.005-.05-.006-.051-.006-.051-.005-.051-.006-.052-.005-.051-.006-.052-.002-.026-.006-.052-.005-.052-.005-.052-.005-.052-.005-.053-.002-.026-.005-.053a31.878 31.878 0 01-.005-.053l-.005-.053c-3.117 1.423-5.594 1.978-6.026 1.236-.432-.74 1.297-2.56 4.114-4.486l-.022-.016-.044-.03-.044-.03-.043-.03-.044-.03-.043-.031a31.97 31.97 0 01-.021-.015l-.043-.03-.043-.03-.02-.016-.043-.03-.042-.03-.042-.03-.021-.015-.042-.03-.042-.03-.02-.015-.041-.03-.042-.03-.02-.015-.04-.03-.041-.03-.04-.03-.04-.03-.04-.03-.04-.03a27.55 27.55 0 01-.02-.014l-.04-.03-.04-.03-.019-.014-.039-.03a26.06 26.06 0 01-.019-.015l-.039-.03-.038-.029-.038-.03-.038-.029-.038-.029-.02-.015-.037-.029-.037-.03-.019-.014-.037-.029a23.46 23.46 0 01-.018-.014l-.037-.03-.036-.029-.036-.029a22.674 22.674 0 01-.054-.043l-.036-.029-.089-.072a.611.611 0 01-.247.052.63.63 0 01-.605-.792c-1.154-1.075-1.727-1.963-1.455-2.427.435-.74 2.904-.179 6.008 1.253C14.39 9.382 15.132 7 16 7zm-.006 11.305l-.018.01c-.5.262-.99.508-1.469.734.054.748.13 1.496.239 2.183a.63.63 0 01.587.634c0 .249-.14.464-.345.568.036.142.074.277.115.406l.003.012.002.009.005.017.005.023.005.017.003.01.005.02.007.023.018.064.008.029c.104.348.338 1.024.704 1.452l.015.018.003.003.009.007.003.002a.52.52 0 00.01.008l.005.002c.045.027.137.056.228-.064.06-.055.617-.617 1.027-2.85l.013-.075.005-.029.008-.047.007-.043.009-.052.007-.045.005-.032.009-.053.006-.037.006-.04.006-.04.007-.044.007-.046.007-.047.003-.024.008-.05.007-.051.008-.054.004-.027.008-.056.008-.057.004-.03.009-.06.004-.03.008-.063.01-.064.012-.098.009-.068c.046-.353.094-.763.138-1.21a35.652 35.652 0 01-.168-.08l-.068-.033a38.406 38.406 0 01-1.28-.652zm3.464-2.052l-.096.063c-.424.28-.87.561-1.334.84a36.578 36.578 0 01-.088 1.69 26.142 26.142 0 003.93 1.413l.046.012.016.004.016.004.022.005.008.002.018.004.02.005.022.005.024.005.026.005.056.012.03.006c.365.072 1.016.173 1.316.038a.158.158 0 00.09-.185c-.089-.329-.64-1.428-4.02-3.855l-.102-.073zm-6.9-.004l-.058.038c-1.157.768-2.268 1.599-2.978 2.35l-.004.003-.011.011-.014.013-.01.01a4.315 4.315 0 00-.006.006l-.014.013-.014.014a5.233 5.233 0 00-.008.008l-.017.016c-.226.225-.783.816-.998 1.392l-.008.022v.004l-.003.013-.001.01v.01c-.002.051.017.143.164.163l.007.001.01.004c.1.027.885.2 3.014-.546l.074-.026.025-.01.047-.016.053-.02.053-.02.044-.016.05-.018.035-.014.056-.021.04-.015.042-.016.043-.017.046-.017.047-.019.024-.01.05-.018.05-.02.053-.021.027-.01.055-.023.029-.01.057-.024.03-.011.059-.024.092-.037.063-.026.032-.013.065-.027a41.15 41.15 0 001.107-.473 36.576 36.576 0 01-.085-1.66c-.381-.232-.75-.465-1.105-.698l-.063-.041a35.785 35.785 0 01-.216-.144l-.03-.02zm5.077 1.141l-.096.057a41.513 41.513 0 01-1.148.646l.049.025.05.027.042.021.053.027.043.023.022.01.055.03.046.022.046.023.047.024.035.018.049.024.036.018.05.024.05.025.038.019.052.025.039.019.052.025.067.032.041.02.055.026.041.02.042.02.057.026.005-.061.005-.062.006-.062.005-.062.005-.062.007-.094.005-.063.004-.064c.017-.233.032-.471.044-.713l.001-.033zm-3.213.031l.001.038c.014.379.032.77.056 1.163.359-.165.734-.344 1.113-.535a41.31 41.31 0 01-1.17-.666zm1.564-3.243l-.075.041-.093.053-.068.038-.097.055-.085.048-.087.05-.103.059-.09.051-.076.044-.062.036-.062.036-.078.045-.096.056-.064.037-.08.048-.05.029-.065.038-.066.04-.067.039-.05.03-.067.04-.017.01V15.747l.001.074v.074l.001.075.001.095.001.077.001.078.001.06.001.078.002.08v.06l.002.062.001.081.001.042.002.082.002.063.001.062.002.064v.02c.366.223.74.439 1.115.639l.037.02.033.019.035.02.048.029.039.022.044.025.042.024.054.03.044.025.038.021.057.032c.401-.21.802-.433 1.187-.664l.036-.022.023-.012.028-.016.05-.027.042-.023.042-.024.047-.027.052-.03.05-.028.053-.031.049-.029c.015-.449.018-.903.006-1.35l-.002-.042.001-.037v-.04l.001-.046v-.269l-.001-.053-.056-.032-.085-.05-.073-.041-.075-.043-.076-.043-.078-.044-.095-.054-.098-.055-.05-.028-.066-.038-.085-.047-.086-.048-.052-.029-.07-.039-.053-.029-.09-.05-.073-.04-.073-.04-.055-.03-.075-.04-.056-.03-.076-.041-.057-.031-.019-.01zm-.007.742c.594 0 1.076.474 1.076 1.059s-.482 1.059-1.076 1.059a1.068 1.068 0 01-1.076-1.06c0-.584.481-1.058 1.076-1.058zm2.061.488a40.137 40.137 0 01-.002 1.309l.048-.03.048-.029.05-.03.051-.032.041-.026.053-.033.043-.027.033-.021.066-.042.045-.029.034-.022.046-.03.035-.022.047-.03.047-.031.048-.032.049-.032.037-.024.037-.025.037-.024.038-.026.05-.034.052-.034.039-.026.013-.009-.052-.036-.053-.037a52.196 52.196 0 00-.026-.018l-.053-.037-.053-.037-.054-.037-.054-.038-.027-.019-.042-.025-.087-.053-.06-.036-.072-.043-.092-.055-.071-.043-.078-.046-.059-.035-.087-.051-.066-.039.001.076zm-4.08-.05l-.031.02c-.33.202-.669.414-1.007.632l.028.02.055.037.055.038.056.038.056.038.257.171.058.039c.156.102.314.204.475.306a39.941 39.941 0 01-.002-1.28v-.058zm9.516-3.717c-.226-.061-.874-.119-2.469.374a.628.628 0 01-.616.533.616.616 0 01-.433-.177l-.052.02-.053.019-.035.013-.054.02-.036.013-.036.014-.036.014-.055.02-.037.015-.038.014-.056.022-.057.022-.038.015-.038.015-.058.023-.039.015-.058.024-.04.015-.04.016-.06.024-.06.025-.04.016-.041.017-.041.017-.042.017-.041.017-.063.026-.063.026-.043.018-.064.027-.043.018-.043.018-.065.028-.066.028-.045.019-.044.019-.045.02-.045.019-.045.02-.045.019-.069.03-.046.02c.04.533.069 1.087.085 1.659.507.308.991.618 1.45.927a25.653 25.653 0 003.244-2.67l.011-.012.017-.017.01-.011.012-.013.014-.014.014-.015.008-.009.017-.018.018-.019.018-.02.01-.01.02-.023c.245-.27.672-.785.702-1.112a.159.159 0 00-.117-.17zm-13.041.163l-.015-.004-.022-.006-.014-.004-.016-.005-.018-.005-.02-.005a5.483 5.483 0 00-.023-.006l-.024-.006c-.324-.083-1.103-.253-1.706-.149l-.023.005-.01.003-.01.005-.012.005c-.045.024-.119.087-.063.223l.002.006.002.008c.023.087.2.644 1.311 1.694a.615.615 0 01.372-.125.63.63 0 01.624.635.642.642 0 01-.07.292l.04.031.03.025.046.036.048.038.038.03.04.032.028.022.029.022.029.023.045.035.047.036.049.038.05.038.052.04.035.027.055.042.055.042.038.029.04.029.058.045.04.03.042.03.041.032.064.047.043.032.043.032.044.033.023.016.045.033.023.017.045.033.023.017.047.034.047.034.048.035.024.017.048.035.05.035.049.036.05.035.05.036.051.036.051.036c.453-.3.93-.603 1.43-.904.016-.568.045-1.12.084-1.65-1.276-.612-2.589-1.156-3.622-1.388zm7.073 1.577l-.03.014-.061.027-.062.028-.062.028-.062.028-.031.015-.032.014-.072.038-.08.042-.074.04-.069.037-.098.052-.075.041-.07.038-.061.033-.077.042-.054.03a43.234 43.234 0 011.208.69l-.002-.055-.002-.045-.003-.069-.002-.046-.002-.06-.003-.049-.003-.062-.003-.063-.003-.051-.002-.04-.003-.052-.003-.053-.003-.054-.004-.055-.003-.042-.003-.056-.004-.057-.003-.043-.005-.058-.003-.045-.004-.059-.004-.045-.004-.045-.005-.061-.062.028zm-3.062.001l-.01.105-.003.036-.007.071a52.02 52.02 0 00-.003.037l-.006.072-.004.037-.003.037-.002.051-.002.096-.002.078-.003.094-.001.073-.002.081-.001.075-.002.08v.084l-.002.103a43.216 43.216 0 011.15-.65 48.448 48.448 0 00-1.097-.56zm1.64-5.948a.163.163 0 00-.206.017c-.249.242-.95 1.28-1.389 5.477.493.235 1 .491 1.516.766.52-.274 1.03-.528 1.525-.762a25.07 25.07 0 00-.727-4.066l-.012-.045-.005-.016-.005-.015-.006-.021-.008-.026-.006-.02-.007-.02-.007-.023-.008-.025c-.107-.322-.363-1.017-.654-1.22z" />
</svg>
