<svg viewBox="0 0 32 32" xmlns="http://www.w3.org/2000/svg" xmlns:xlink="http://www.w3.org/1999/xlink">
  <defs>
    <linearGradient id="gradient-bch" x1="0%" x2="100%" y1="100%" y2="0%">
      <stop offset="0" stop-color="#ff9580" />
      <stop offset="1" stop-color="#8aff80" />
    </linearGradient>
  </defs>
  <path fill="url(#gradient-bch)" fill-rule="evenodd"
    d="m16.3427665 8c2.5829075 0 4.88 1.2242467 6.3426961 3.1238767h-2.8911366c1.5506608 1.0870132 2.5644405 2.8866255 2.5644405 4.9226431 0 2.0360881-1.0137797 3.8357005-2.5644405 4.9226432h2.8183965c-1.465445 1.8465551-3.7294802 3.030837-6.269956 3.030837-2.5405462 0-4.8045815-1.1842819-6.2700264-3.030837h2.8184669c-1.5508017-1.0869427-2.5644405-2.8865551-2.5644405-4.9226432 0-2.0359471 1.0136388-3.8355594 2.5644405-4.9226431h-2.891207c1.462696-1.89970049 3.7596476-3.1238767 6.3427665-3.1238767zm4.7745551 6.8065551c-.6737621-2.6340793-3.3575331-4.2238591-5.9945022-3.5507313-2.6369692.6729868-4.228511 3.3539383-3.5546784 5.9879471.6736916 2.6340088 3.3576035 4.2237886 5.9945022 3.5508018 2.6369691-.6730573 4.2284405-3.3540088 3.5546784-5.9880176zm-4.9059383-2.0587842.2441586.9547137c.4463083-.0849339.7947136-.084793 1.1339559.0530044.4387665.1781145.5403348.656141.5609868.7710308.020652.1148899.0266432.3448106-.036652.5103084-.0631542.1655683-.269674.3677181-.269674.3677181l.0509251-.0004086c.0961586.0011398.3109427.0127962.4906784.0878094.2396476.1000177.4567401.3288106.5481586.7215507.0918414.3926696.1112247.8008458-.180652 1.1391013-.2846872.3297974-.642185.4721057-.8104317.5390661l-.0126872.0050044c-.0800705.032141-.2191366.0797885-.3690573.1275771l.244511.9561938-.5893216.1504141-.2406343-.9406872-.4487754.1145374.2406344.9406873-.5891806.1504141-.2406344-.9407577-1.1591894.2958942-.0597709-.7379735.3524229-.0898679c.1184846-.0302379.1651454-.0538502.2027841-.1131982.0375683-.059489.0303084-.1337798.0155066-.1916476l-.6230132-2.4355242c-.038978-.1525991-.0620264-.1906608-.1522467-.2511366-.0902907-.0605462-.258044-.0287577-.3510837-.0050044l-.340652.0869075-.1563348-.6111013 1.1592599-.2958943-.2414096-.9434361.5892511-.1503436.2413392.9434361.4487753-.1146079-.2412687-.9433657zm1.1653215 3.4091278c-.1241938-.0269956-.388229-.0385551-.6850396.0165639-.2968106.0552599-.6663612.1700793-.6663612.1700793l.3229603 1.2624493s.393022-.0914185.6497974-.1775507c.2564934-.0859912.5094625-.2208986.6254097-.3296564.1159471-.1086872.248881-.2657268.1750132-.5543612-.0738679-.2888458-.2975859-.3605991-.4217798-.3875242zm-.8132511-1.7117181c-.2613568-.0124758-.4250925.0235419-.6103259.0678767-.1852335.0444053-.368282.1086872-.368282.1086872l.2906079 1.135859s.2774274-.0619559.4900793-.1250396c.212793-.0631542.4284758-.1708546.5704318-.3038591.1420969-.1328634.1990484-.2997709.1387841-.5129163-.0605463-.2132158-.2500088-.3580616-.5112952-.3706079z" />
</svg>
