<svg viewBox="0 0 32 32" xmlns="http://www.w3.org/2000/svg">
  <path fill="url(#gradient-red-green)" fill-rule="evenodd"
    d="m16.5000361 8c2.6469509 0 5.0010001 1.2242467 6.4999639 3.1238767h-2.9628226c1.5891096 1.0870132 2.628026 2.8866255 2.628026 4.9226431 0 2.0360881-1.0389164 3.8357005-2.628026 4.9226432h2.8882789c-1.5017809 1.8465551-3.8219531 3.030837-6.4254202 3.030837-2.6035393 0-4.9237116-1.1842819-6.4254924-3.030837h2.8883511c-1.589254-1.0869427-2.6280261-2.8865551-2.6280261-4.9226432 0-2.0359471 1.0387721-3.8355594 2.6280261-4.9226431h-2.9628948c1.4989637-1.89970049 3.8528685-3.1238767 6.5000361-3.1238767zm4.8929407 6.8065551c-.6904681-2.6340793-3.4407835-4.2238591-6.1431365-3.5507313-2.7023532.6729868-4.3333574 3.3539383-3.6428171 5.9879471.6903959 2.6340088 3.4408557 4.2237886 6.1431365 3.5508018 2.7023531-.6730573 4.3332852-3.3540088 3.6428171-5.9880176zm-5.0275816-2.0587842.2502126.9547137c.4573745-.0849339.8144186-.084793 1.1620724.0530044.4496458.1781145.5537325.656141.5748965.7710308.0211641.1148899.0273039.3448106-.0375608.5103084-.0647201.1655683-.2763605.3677181-.2763605.3677181l.0521877-.0004086c.0985429.0011398.3186526.0127962.5028449.0878094.2455897.1000177.468065.3288106.5617502.7215507.0941186.3926696.1139825.8008458-.1851313 1.1391013-.291746.3297974-.658108.4721057-.8305264.5390661l-.0130018.0050044c-.0820558.032141-.2245701.0797885-.3782081.1275771l.2505737.9561938-.6039339.1504141-.2466009-.9406872-.4599028.1145374.2466009.9406873-.6037893.1504141-.246601-.9407577-1.1879316.2958942-.061253-.7379735.3611613-.0898679c.1214224-.0302379.1692402-.0538502.2078122-.1131982.0384998-.059489.0310599-.1337798.0158911-.1916476l-.6384609-2.4355242c-.0399445-.1525991-.0635644-.1906608-.1560217-.2511366-.0925295-.0605462-.2644422-.0287577-.3597889-.0050044l-.3490985.0869075-.1602111-.6111013 1.1880039-.2958943-.2473954-.9434361.6038616-.1503436.2473233.9434361.4599027-.1146079-.247251-.9433657zm1.1942158 3.4091278c-.1272732-.0269956-.3978552-.0385551-.7020252.0165639-.3041701.0552599-.6828837.1700793-.6828837.1700793l.3309681 1.2624493s.402767-.0914185.6659092-.1775507c.2628532-.0859912.5220947-.2208986.6409168-.3296564.118822-.1086872.255052-.2657268.1793527-.5543612-.0756995-.2888458-.3049646-.3605991-.4322379-.3875242zm-.8334158-1.7117181c-.2678371-.0124758-.4356327.0235419-.625459.0678767-.1898263.0444053-.3774136.1086872-.3774136.1086872l.2978136 1.135859s.2843062-.0619559.5022309-.1250396c.2180692-.0631542.4390999-.1708546.5845757-.3038591.1456202-.1328634.2039838-.2997709.1422253-.5129163-.0620476-.2132158-.2562078-.3580616-.5239729-.3706079z" />
</svg>
