<svg viewBox="0 0 32 32" xmlns="http://www.w3.org/2000/svg">
  <path fill="url(#gradient-orange-yellow)" fill-rule="evenodd"
    d="m19.7677424 15.5824375c.8838908-.443125 1.4463871-1.2309375 1.3157956-2.540625-.1707856-1.7922187-1.6720931-2.3929062-3.6608315-2.5602813v-2.4815312h-1.5468248v2.4125937c-.4017831 0-.8136067.0098438-1.2253985.0196875v-2.4322812h-1.5468248v2.4815312c-.5687119.0168438-1.2310721.0086251-3.1036584 0v1.6149375c1.2212547-.0211875 1.8620357-.0981249 2.0088514.6695938v6.7946562c-.093234.609125-.5904505.5214063-1.6974974.5022188l-.311354 1.8020625c2.8203543 0 3.1036903.0098438 3.1036903.0098438v2.1251562h1.5468248v-2.095625c.4218324.0098437.833656.0098437 1.2253984.0098437v2.0857813h1.5468249v-2.1251562c2.591397-.137875 4.3237337-.7779376 4.5547629-3.1708438.1807625-1.9201875-.7433225-2.7769375-2.2097589-3.1215625zm-5.0871055-3.3776563c.8738502 0 3.6058792-.2658437 3.6058792 1.5165001 0 1.7035937-2.7319971 1.506625-3.6058792 1.506625zm0 7.868v-3.3283749c1.044604 0 4.243409-.2855626 4.243409 1.6642187 0 1.8808125-3.198805 1.6641562-4.243409 1.6641562z" />
</svg>
