<svg viewBox="0 0 32 32" xmlns="http://www.w3.org/2000/svg">
  <defs>
    <linearGradient id="gradient-btc" x1="0%" y1="100%" x2="100%" y2="0%">
      <stop offset="0%" stop-color="#ffca80" />
      <stop offset="100%" stop-color="#ffff80" />
    </linearGradient>
  </defs>
  <path d="m19.57625 15.5824375c.8665625-.443125 1.4180312-1.2309375 1.29-2.540625-.1674375-1.7922187-1.6393125-2.3929062-3.5890625-2.5602813v-2.4815312h-1.5165v2.4125937c-.3939063 0-.7976563.0098438-1.201375.0196875v-2.4322812h-1.5165v2.4815312c-.5575625.0168438-1.2069375.0086251-3.0428125 0v1.6149375c1.1973125-.0211875 1.8255312-.0981249 1.9694687.6695938v6.7946562c-.0914062.609125-.578875.5214063-1.6642187.5022188l-.30525 1.8020625c2.7650625 0 3.0428437.0098438 3.0428437.0098438v2.1251562h1.5165v-2.095625c.4135625.0098437.8173125.0098437 1.201375.0098437v2.0857813h1.5165v-2.1251562c2.5405938-.137875 4.2389688-.7779376 4.4654688-3.1708438.1772187-1.9201875-.72875-2.7769375-2.1664375-3.1215625zm-4.987375-3.3776563c.8567187 0 3.5351875-.2658437 3.5351875 1.5165001 0 1.7035937-2.6784375 1.506625-3.5351875 1.506625zm0 7.868v-3.3283749c1.024125 0 4.1602188-.2855626 4.1602188 1.6642187 0 1.8808125-3.1360938 1.6641562-4.1602188 1.6641562z" fill="url(#gradient-btc)" fill-rule="evenodd"/>
</svg>
