<svg viewBox="0 0 32 32" xmlns="http://www.w3.org/2000/svg">
  <path fill="url(#gradient-orange-yellow)" fill-rule="evenodd"
    d="m16 8c4.415493 0 8 3.5848553 8 8.0035635 0 4.4187083-3.584507 7.9964365-8 7.9964365-4.4154929 0-8-3.5777282-8-7.9964365 0-4.4187082 3.5774648-8.0035635 8-8.0035635zm0 .39910913c-4.1478873 0-7.5140845 3.39955457-7.5140845 7.60445437 0 4.1977728 3.359155 7.6044543 7.5140845 7.6044543 4.1478874 0 7.5140846-3.4066815 7.5140846-7.6044543 0-4.1977729-3.359155-7.60445437-7.5140846-7.60445437zm0 .44187083c3.9507043 0 7.1619719 3.20712694 7.1619719 7.15545664 0 3.9483296-3.2042254 7.1554565-7.1619719 7.1554565-3.9577464 0-7.16197183-3.2-7.16197183-7.1554565 0-3.9483297 3.20422543-7.15545664 7.16197183-7.15545664zm0 1.87438754c-2.8873239 0-5.2253521 2.366147-5.2253521 5.288196s2.3380282 5.288196 5.2253521 5.288196c2.887324 0 5.2253522-2.366147 5.2253522-5.288196s-2.3380282-5.288196-5.2253522-5.288196zm0 .6342984c2.5422535 0 4.5985916 2.0881961 4.5985916 4.6538976 0 2.5657016-2.0563381 4.6538975-4.5985916 4.6538975-2.5352113 0-4.5985915-2.0881959-4.5985915-4.6538975 0-2.5657015 2.056338-4.6538976 4.5985915-4.6538976zm-.0774648 7.6044544h-.5985915v1.1260579c.1901409.0356348.3943662.0498886.5985915.0570156zm.7887324-7.0200446v1.1403118c.5845071.0356348 1.0281691.1496659 1.4084508.4347439.4929576.3634745.4718309 1.0120268.4577464 1.1616927-.0140845.1567928-.0774647.4489977-.2112675.6414254-.1338029.1853006-.4577466.3777283-.4577466.3777283s.3873239.0783964.6549296.2850779c.2676057.2066816.471831.5701559.4577465 1.0975501-.0070422.5273943-.1126761 1.0547884-.5915493 1.389755s-.9859155.3991091-1.2112677.427617c-.1126759.0142539-.3028168.0285077-.5070422.0427616v1.1403118c1.915493-.3349665 3.3732395-2.0311803 3.3732395-4.0623607 0-2.0454344-1.4577465-3.7345212-3.3732395-4.0766148zm-2.1830986 7.0271716h-1.3943662c.3943662.3919821.8661972.698441 1.3943662.9051224zm-1.556338-5.7443208c-.6619718.7340758-1.0633803 1.7104677-1.0633803 2.786637 0 1.0832962.415493 2.0739421 1.0915493 2.8222717l.1408451-.8195991h.471831c.1549295 0 .2253521-.0142539.2887324-.0783964.0704225-.0641425.084507-.1639199.084507-.2423163v-3.3069043c0-.2066815-.0211268-.2636971-.112676-.3706012-.0915494-.1069043-.3098592-.1211582-.4366197-.1211582h-.4647888zm3.2394367 3.0788419c-.3943663-.0285078-.8943663 0-.8943663 0v1.7104677s.5281691.0142539.8732394-.0142539c.3521128-.0213809.7112676-.1140312.8943662-.2138085.1830986-.0997772.4014086-.2565702.4014086-.6485523 0-.3919822-.2605634-.5630289-.4084508-.6342985-.1478873-.0712695-.471831-.1710467-.8661971-.1995545zm-.3943663-2.35902c-.2464789 0-.5.0213808-.5.0213808v1.5394209s.3661972.0142539.6549296 0c.2887324-.0071269.5985915-.0783964.8169015-.1995545.2183098-.1211582.3450703-.3135858.3380281-.6057907-.0070423-.2922049-.1971831-.5416481-.5211268-.6414254-.3239436-.0997772-.5422535-.1069042-.7887324-.1140311zm.0985916-2.0668152c-.2042253.0071269-.4014084.0213809-.5985916.0570156v1.1260579h.5985916zm-1.387324.2708241c-.5211267.2066815-1 .5202672-1.3943662.9122494h1.3943662z" />
</svg>
