<svg viewBox="0 0 32 32" xmlns="http://www.w3.org/2000/svg" xmlns:xlink="http://www.w3.org/1999/xlink">
  <defs>
    <linearGradient id="gradient-btg" x1="0%" x2="100%" y1="100%" y2="0%">
      <stop offset="0" stop-color="#ffca80" />
      <stop offset="1" stop-color="#ffff80" />
    </linearGradient>
  </defs>
  <path fill="url(#gradient-btg)" fill-rule="evenodd"
    d="m16.0782222 8c4.4586667 0 8.0782222 3.5768889 8.0782222 7.9857778s-3.6195555 7.9786666-8.0782222 7.9786666c-4.4586666 0-8.0782222-3.5697777-8.0782222-7.9786666s3.6124444-7.9857778 8.0782222-7.9857778zm0 .39822222c-4.1884444 0-7.58755553 3.39199998-7.58755553 7.58755558 0 4.1884444 3.39200003 7.5875555 7.58755553 7.5875555 4.1884445 0 7.5875556-3.3991111 7.5875556-7.5875555 0-4.1884445-3.392-7.58755558-7.5875556-7.58755558zm0 .44088889c3.9893334 0 7.232 3.19999999 7.232 7.13955559 0 3.9395555-3.2355555 7.1395555-7.232 7.1395555-3.9964444 0-7.23199998-3.1928889-7.23199998-7.1395555 0-3.9395556 3.23555558-7.13955559 7.23199998-7.13955559zm0 1.87022219c-2.9155555 0-5.2764444 2.3608889-5.2764444 5.2764445 0 2.9155555 2.3608889 5.2764444 5.2764444 5.2764444 2.9155556 0 5.2764445-2.3608889 5.2764445-5.2764444 0-2.9155556-2.3608889-5.2764445-5.2764445-5.2764445zm0 .6328889c2.5671111 0 4.6435556 2.0835556 4.6435556 4.6435556s-2.0764445 4.6435555-4.6435556 4.6435555c-2.56 0-4.6435555-2.0835555-4.6435555-4.6435555s2.0764444-4.6435556 4.6435555-4.6435556zm-.0782222 7.5875556h-.6044444v1.1235555c.192.0355556.3982222.0497778.6044444.0568889zm.7964444-7.0044445v1.1377778c.5902223.0355556 1.0382223.1493333 1.4222223.4337778.4977777.3626667.4764444 1.0097778.4622222 1.1591111-.0142222.1564444-.0782222.448-.2133333.64-.1351112.1848889-.4622223.3768889-.4622223.3768889s.3911111.0782222.6613334.2844444c.2702222.2062223.4764444.5688889.4622222 1.0951111-.0071111.5262223-.1137778 1.0524445-.5973333 1.3866667-.4835556.3342222-.9955556.3982222-1.2231112.4266667-.1137777.0142222-.3057777.0284444-.512.0426666v1.1377778c1.9342223-.3342222 3.4062223-2.0266666 3.4062223-4.0533333 0-2.0408889-1.472-3.7262222-3.4062223-4.0675556zm-2.2044444 7.0115556h-1.408c.3982222.3911111.8746667.6968889 1.408.9031111zm-1.5715556-5.7315556c-.6684444.7324445-1.0737777 1.7066667-1.0737777 2.7804445 0 1.0808889.4195555 2.0693333 1.1022222 2.816l.1422222-.8177778h.4764445c.1564444 0 .2275555-.0142222.2915555-.0782222.0711111-.064.0853333-.1635556.0853333-.2417778v-3.2995556c0-.2062222-.0213333-.2631111-.1137777-.3697777-.0924445-.1066667-.3128889-.1208889-.4408889-.1208889h-.4693334zm3.2711112 3.072c-.3982223-.0284444-.9031112 0-.9031112 0v1.7066667s.5333334.0142222.8817778-.0142222c.3555556-.0213334.7182222-.1137778.9031111-.2133334.1848889-.0995555.4053334-.256.4053334-.6471111s-.2631111-.5617777-.4124445-.6328889c-.1493333-.0711111-.4764444-.1706666-.8746666-.1991111zm-.3982223-2.3537777c-.2488889 0-.5048889.0213333-.5048889.0213333v1.536s.3697778.0142222.6613334 0c.2915555-.0071111.6044444-.0782222.8248889-.1991111.2204444-.1208889.3484444-.3128889.3413333-.6044445-.0071111-.2915555-.1991111-.5404444-.5262222-.64-.3271111-.0995555-.5475556-.1066666-.7964445-.1137777zm.0995556-2.0622223c-.2062222.0071111-.4053333.0213334-.6044445.0568889v1.1235556h.6044445zm-1.4008889.2702223c-.5262222.2062222-1.0097778.5191111-1.408.9102222h1.408z" />
</svg>
