<svg viewBox="0 0 32 32" xmlns="http://www.w3.org/2000/svg"><path d="m11.0003121 8 4.4581433 3.9543463c.0518719.0476088.1080075.0874008.1513525.1385618.0049659.030357.0070978.0609111.006395.0916639-.0021318 1.7032468.0042632 3.4050719-.0021318 5.1061876-.2245551.0462421-.4353591.1279574-.6324114.2451475l-3.9387128-3.9380026c-.0330514-.0268725-.047026-.0614533-.0419232-.1037438.0042624-1.8318606-.0000008-3.66229981.0042624-5.49273934zm5.2916465 6.1159132c1.1093953.0742054 2.083356.4763898 2.9218813 1.2065531-.2323578.2487033-.4831913.4831928-.7233647.72692-.5073507.5059289-1.0111472 1.0161213-1.5206282 1.5170762-.2077144-.1355108-.4332031-.2274115-.6764667-.2757029-.0056842-1.0566237 0-2.11538 0-3.1748464zm-5.2895153.4746638c1.1568152 1.1461563 2.3065244 2.3001293 3.4612076 3.4484167-.1350088.2096194-.2316473.4405567-.2856511.684283h-3.1776877v-4.1348323l.0021319.0021319zm8.246926 1.6577693c.1513516-.1449575.289915-.3005732.4497928-.440556.7303013.8352666 1.1329589 1.8063837 1.207977 2.9133525-1.0424117.0042656-2.0869567.0000015-3.1293685.0021339-.0625305.0142115-.0625305-.0582678-.0746103-.0973487-.0503676-.2074372-.1353985-.3995296-.2550954-.5762757.5968824-.6011466 1.2001593-1.20016 1.8013058-1.7991741v-.0021319zm-8.2490572 3.1506866h2.7151044c.1556157 0 .3112314-.0071058.468979.0035521.0483189.2401734.1421147.4689791.2749923.6736244l-2.2027799 2.1970951c-.016343.0127903-.0433449.0518719-.0625308.0213179-.7223038-.8314643-1.120225-1.7966601-1.193765-2.8955895zm6.7234549.0035521c.4476611-.009948.8910595 0 1.338722-.0035521h1.8446516c-.0716394 1.0895185-.4641131 2.0476079-1.1774217 2.8742716l-1.2847183-1.2804535c-.3211796-.3233113-.6487543-.6409387-.9663817-.9685135.1186659-.1904339.2018038-.4014752.2451481-.6217525zm-.8910602 1.2292935c.0497402-.0284236.0994797-.0582678.1492199-.0831379l2.2425725 2.2383091c-.8400232.7367262-1.8175354 1.141043-2.9325393 1.2129503v-3.1712924c.1899309-.0381884.3694694-.1045084.5386152-.1989601zm-3.2622463 1.2747703c.4561888-.4519252.9074036-.9095358 1.3678556-1.3571969.2060665.1321676.435582.2273838.6750455.2792557v3.1712924c-1.1101348-.0724139-2.0840946-.474599-2.9218806-1.2065537.2863607-.3005744.5869339-.5883563.8789795-.8846672v-.0021317z" fill-rule="evenodd"/></svg>
