<svg viewBox="0 0 32 32" xmlns="http://www.w3.org/2000/svg"><path d="m17.4479494 9.69599953v-.07120012c.1416007-.05999981.4223997-.11679986.9055994.01279983.5527997.14879975.9800003.70399926 1.1759994 1.00319956l-.0016008.1919997c-.0095992 1.0711992-.3503998 3.7175981-.9408003 5.7015967-.5159997 1.7335988-1.6415991 4.0399974-1.8703981 4.5007972-.1125168-.0247656-.2261169-.042632-.3408003-.0536016.0951995-.5847989.5104002-3.1895958.772-5.5631954.2775999-2.5183984.2991999-5.0159975.2991999-5.72159667zm2.3191994 1.13919917v-.0087997c.2079999-.0047997.6687997.0328003 1.1943994.3711995.5087989.3272002.7711995.9495997.8799995 1.283999l-.0504.1975996c-.1239999.4816-1.0423986 2.9639983-2.0303989 4.8351981-.8383995 1.5855991-2.1767987 3.3399989-2.4687986 3.7159979-.1102159-.052464-.2235486-.0969984-.339999-.1336.2719999-.5495996 1.3575993-2.7927976 1.8639982-4.4959978.5968004-2.0047993.9408002-4.6815976.9511994-5.7655966zm.2055999 6.7871964c.9407995-1.7815993 1.891199-4.2815979 2.0479981-4.8775974.2072006.0751998.6520004.2744002.9415994.6695995.2479999.3375998.328799.7943996.3551998 1.0815996l-.0967999.2255996c-.1871991.4343999-1.3279993 2.4359982-2.4775986 3.8623982-.9951994 1.2351993-2.4903994 2.7007976-2.8487976 3.0479974-.1208999-.1085175-.2510343-.2045182-.3904006-.2880006.3367998-.4351997 1.6423991-2.1575988 2.4687994-3.7215979zm-7.9687961-6.6015962-.0279999-.2192c.1304-.2840002.4183996-.7576.9695994-1.00959951.5999996-.27359984 1.0663995-.19919997 1.2751992-.13839984l.0015998.04719997c.0160004.47599958.1416 2.81919818.4480001 5.58479728.2816 2.5303982.7351993 5.2215975.8223994 5.7327972-.1199996.0216-.2375998.0511992-.3527998.0879999-.2223997-.4719997-1.2127991-2.6159985-1.8783985-4.7639969-.7424-2.3959986-1.1679994-4.6199971-1.2575997-5.3215973zm2.4567987-1.32799913-.0031999-.10960002c.2192001-.19679973.7295995-.58319975 1.3679994-.58319975.6367992 0 1.1583996.38639962 1.3831995.58399967v.11199986c0 .70319937-.0216008 3.19039807-.2983998 5.69599667-.2647991 2.403198-.6879997 5.0455981-.7743995 5.576797l-.0623993-.0016c-.1152 0-.2295996.0063992-.344.0175992-.0848-.4919997-.5399999-3.1895982-.8215999-5.7247968-.3055998-2.7583985-.4303999-5.0935976-.4471998-5.56799695zm1.6127989 11.50959333c1.2936 0 1.8895989.7848003 2.0695988 1.0839994-.9799995.6879996-1.7775992 1.1135993-2.0591985 1.1135993-.2816 0-.9815996-.3520006-2.0823993-1.1479985.1760002-.2839998.7695995-1.0496002 2.071999-1.0496002zm7.3607958-6.3743966c.1968007.1279999.6007996.4727995.5632004 1.1359995-.0496007.8736004-1.5479991 2.6047986-3.4295988 4.3559976-.7062148.6559612-1.4502144 1.2658281-2.2319996 1.8296006-.0803575-.1252824-.1712903-.2423487-.272799-.3512006.364799-.3527998 1.8655989-1.8239998 2.8671976-3.0679975 1.1520001-1.4287984 2.2983995-3.4359981 2.5039994-3.9023996zm-14.77839071-.1695997c-.05827101-.1447059-.11347153-.2905722-.16561417-.4376005-.00102317-.2631743.06031063-.5109067.18401472-.743198.27359945-.4960004.96799913-.7232006 1.24319882-.7960002l.00159992.0047997.02959974.104c.19999988.6967998.66719928 2.3295984 1.89759868 4.6895974 1.0983995 2.1063988 2.2919985 3.5623988 2.6263985 3.9519986-.0897193.0613415-.1750517.1282759-.2559988.200799-1.1307894-.979133-2.1731884-2.0447308-3.127197-3.1967965-1.18560191-1.4336008-2.00400129-2.7040001-2.43360081-3.7775995zm5.39199941 7.1423952c-.0880027.0960007-.168003.1999998-.240003.3104006-.6938313-.5174469-1.3684983-1.058781-2.0240003-1.6240015-2.40959707-2.059998-3.72799617-3.4927956-3.78079614-4.3975955-.04000014-.6903995.31039983-1.0799997.47999965-1.2263993.44959959 1.0695993 1.26239896 2.3199991 2.42079829 3.7215975.9596376 1.1581401 2.0076382 2.2298723 3.1440015 3.2151974zm-3.8984002-9.1791937c-.0260406-.0889198-.0505737-.1782539-.0735999-.2680007.0615996-.2927992.2136-.7311992.5855999-1.0015985.3289587-.2387091.6964253-.3483091 1.1023996-.3287993l.0040001.0271996c.0903998.7079998.5183995 2.9503981 1.2655991 5.3599968.6623996 2.1367984 1.6423994 4.2695972 1.8823987 4.7799977-.0814697.0342544-.1609367.0726544-.2384002.1151991-.2919996-.3376006-1.5031989-1.794399-2.6175988-3.9327977-1.2199989-2.3391989-1.6823988-3.9559979-1.8799984-4.6463982z" fill-rule="evenodd"/></svg>
