<svg viewBox="0 0 32 32" xmlns="http://www.w3.org/2000/svg" xmlns:xlink="http://www.w3.org/1999/xlink">
  <path fill="url(#gradient-orange-yellow)" fill-rule="evenodd"
    d="m9.91260408 9h5.50406532c3.3478694 0 5.8856653 1.7994939 6.8298286 4.4179918h1.7146122v1.5826776h-1.3534694c.026449.2500735.04.5048653.04.7637388v.0388898c0 .2914449-.0171428.5779428-.0506122.8585469h1.3640816v1.5827429h-1.7472653c-.9689796 2.5820408-3.4870204 4.3644081-6.7971755 4.3644081h-5.50406532v-4.3644081h-1.91260408v-1.5827429h1.91260408v-1.6611755h-1.91260408v-1.5826776h1.91260408zm1.53872652 9.2445878v2.944653h3.9653388c2.4469714 0 4.2649306-1.1794286 5.1112979-2.944653zm9.5479837-1.5827429h-9.5479837v-1.6611755h9.5504327c.0354285.2614041.053551.5293714.053551.8026286v.0388734c0 .2795266-.0189388.5531919-.056.8196735zm-5.5826449-6.2444245c2.4582367 0 4.2817469 1.2104816 5.1228898 3.0005714h-9.0882286v-3.0005714z" />
</svg>
