<svg viewBox="0 0 32 32" xmlns="http://www.w3.org/2000/svg">
  <path fill="url(#gradient-orange-yellow)" fill-rule="evenodd"
    d="m9.91726421 9h5.51747619c3.3560266 0 5.9000059 1.8511957 6.8464697 4.5449264h1.7187899v1.62815h-1.3567672c.0265135.2572584.0400975.5193707.0400975.785682v.0400072c0 .2998185-.0171846.5945478-.0507355.883214h1.3674052v1.6282172h-1.7515226c-.9713405 2.6562262-3.4955166 4.4898032-6.813737 4.4898032h-5.51747619v-4.4898032h-1.91726421v-1.6282172h1.91726421v-1.7089032h-1.91726421v-1.62815h1.91726421zm1.54247569 9.5101968v3.0292567h3.9750005c2.4529335 0 4.2753222-1.2133151 5.1237517-3.0292567zm9.5712477-1.6282172h-9.5712477v-1.7089032h9.5737026c.0355149.2689146.0536815.5445809.0536815.8256892v.0399903c0 .2875577-.0189849.5690858-.0561364.8432237zm-5.5962472-6.4238349c2.4642263 0 4.2921795 1.2452603 5.1353719 3.0867817h-9.1103724v-3.0867817z" />
</svg>
