<svg viewBox="0 0 32 32" xmlns="http://www.w3.org/2000/svg">
  <path fill="url(#gradient-purple-green)" fill-rule="evenodd"
    d="m16.0001101 8c2.1368001 0 4.1457575.8321109 5.6568397 2.3431128 1.5110088 1.5110019 2.3430502 3.5200235 2.3430502 5.6568138 0 2.1369371-.8321147 4.1458119-2.3430502 5.6568139-1.5110822 1.5111485-3.5200396 2.3432595-5.6568397 2.3432595-2.1369469 0-4.1459044-.8321842-5.6569132-2.3431862-1.51108218-1.5110753-2.3431969-3.5198767-2.3431969-5.6568138 0-2.1368637.83218806-4.1458119 2.3431969-5.6568138 1.5109355-1.5110753 3.5198929-2.3431862 5.6569132-2.3431862zm0 .40626375c-2.0284676 0-3.9354002.78993692-5.3696154 2.22414555-1.4342152 1.4342086-2.22422908 3.3412058-2.22422908 5.3695907s.78994054 3.9352355 2.22415578 5.3695174c1.4342885 1.4344286 3.3412211 2.2242921 5.3696153 2.2242921 2.0283209 0 3.9352535-.7899369 5.3694686-2.2242921 1.4342886-1.4342819 2.2241558-3.3411325 2.2241558-5.3695174 0-2.0283116-.7899405-3.9353087-2.2241558-5.3695174-1.4341418-1.43435528-3.3410744-2.22421885-5.3693952-2.22421885zm.0141558 14.15175305c.1057411 0 .1948263.0714105.2215842.1686873l.00821.0611057v.3687106c0 .1268154-.1029784.2296465-.2297942.2296465-.105741 0-.1947754-.0714105-.2215163-.1686025l-.0082046-.061044v-.3687106c0-.1269619.1028316-.229793.2297209-.229793zm2.6496808-.3716221.0298093.0538869.1340772.3436996c.0460615.1180138-.0123223.2512102-.1304833.2974183-.0274315.0107818-.0557432.0159161-.0835415.0159161-.0735224 0-.1437589-.0355817-.1870133-.0963052l-.0270114-.0500936-.1340773-.3435529c-.0460614-.1182338.0123222-.2514303.1305566-.2975649.0986509-.0383233.2074888-.0042174.2676837.0765957zm-5.2826692-.1806004c.0968171.0426018.1496775.1437277.1351508.2434868l-.0169899.0592124-.1481596.3376852c-.0378467.0862549-.1221217.1375238-.2105775.1375238-.0308055 0-.0621244-.0063078-.0921231-.0193634-.0968783-.0424795-.1496979-.1436869-.1351135-.2434766l.0170258-.0592224.1480864-.3376853c.0509758-.1161802.1865199-.1688426.3027006-.1181605zm2.6329884-12.34832034c1.6952549 0 3.2889985.66018774 4.4877718 1.85895554 2.4744135 2.4745489 2.4744135 6.5008802 0 8.9754291-1.1987733 1.1987678-2.7925169 1.8588822-4.4877718 1.8588822-1.695255 0-3.2890719-.6601144-4.4877718-1.8588822-2.47456028-2.4746223-2.47456028-6.5009535 0-8.9755024 1.1986999-1.1986945 2.7925168-1.85888224 4.4877718-1.85888224zm0 .45958634c-1.5725465 0-3.0509162.6123661-4.1628474 1.7242922-2.29537498 2.2953645-2.29537498 6.0301452 0 8.3256565 1.1119312 1.1117793 2.5903009 1.7243655 4.1628474 1.7243655 1.5725464 0 3.0509162-.6125862 4.1628473-1.7243655 1.1119312-1.1119995 1.7243735-2.590289 1.7243735-4.1628283 0-1.5725392-.6124423-3.0509755-1.7243735-4.1628282-1.1119311-1.1119261-2.5903009-1.7242922-4.1628473-1.7242922zm-4.6343912 10.5213437c.0748132.0748741.0872821.1883057.0374067.2759475l-.0374067.0489754-.2607464.2607453c-.0448147.0448144-.1035651.0673317-.162389.0673317-.0587504 0-.1176475-.0225173-.1624621-.0673317-.0747522-.0747519-.0872109-.1881632-.0373762-.2758865l.0373762-.0490365.2607464-.2607452c.0896292-.0897022.2351484-.0897022.3248511 0zm9.5446218-.037376.0490117.037376.2607465.2607452c.0897026.0898489.0897026.2352208 0 .324923-.0448881.0448144-.1037119.0673317-.1624623.0673317-.0392159 0-.0784317-.0100077-.1134967-.0299578l-.0489655-.0373739-.2608198-.2607453c-.0897026-.0897022-.0897026-.235074 0-.3249229.0748133-.0747519.1882863-.0872105.2759861-.037376zm1.3350655-2.0990066.0591923.0169752.3376867.1482323c.1161073.0509022.16899.1863724.1180876.3026259-.0377733.0862549-.1220483.1375238-.210504.1375238l-.0464283-.0047309-.0457682-.0146325-.3376867-.148159c-.1161807-.0511222-.1689901-.1866657-.1180877-.3028458.0425409-.0968168.1437589-.149524.2435083-.134989zm-12.35101576-.1158544c.03844572.0985282.00420722.207447-.07665377.2677147l-.0539028.0298501-.34355446.1339299c-.02743154.0107819-.05566991.0159161-.08346818.0159161-.09182967 0-.17859845-.0555963-.21402475-.146252-.03844573-.0985282-.00420723-.2074471.07665377-.2677997l.05390279-.0299119.34348112-.1339299c.11823437-.0459879.2514314.0123221.29756628.1304827zm13.25816546-2.6117794c.1268893 0 .2297209.1029045.2297209.2297198 0 .1057406-.0714109.1947745-.1686457.2215152l-.0610752.0082046h-.3687122c-.1268893 0-.2297943-.1028312-.2297943-.2297198 0-.1056794.0715128-.1947542.1687393-.2215102l.061055-.0082096zm-13.93610609 0c.12688925 0 .22972087.1029045.22972087.2297198 0 .1057406-.07146178.1947745-.16867121.2215152l-.06104966.0082046h-.36878561c-.12688925 0-.22972087-.1028312-.22972087-.2297198 0-.1056794.07141086-.1947542.16864574-.2215102l.06107513-.0082096zm13.66098389-2.453352c.0383846.0984671.0042378.2073758-.0766334.2676843l-.0539232.0298807-.3435544.1340032c-.0274315.0107085-.0557433.0157694-.0833948.0157694-.0919031 0-.1787452-.055523-.2141715-.1463253-.0383847-.0984671-.0042378-.2074268.076591-.2676673l.0538922-.0298243.3436278-.1340766c.1183077-.045988.2514314.0123954.2975663.1305559zm-13.39410322-.4177634.05921735.0170006.33768675.1482324c.11618072.0509755.16906342.1864457.11816102.3026258-.03784673.0861816-.12212173.1375238-.21050412.1375238l-.04640075-.004795-.04579565-.0146416-.33768675-.1482324c-.11618067-.0510489-.16906341-.1865191-.11808767-.3026992.04247978-.0968167.14363666-.149575.24340982-.1350144zm11.73676842-2.1191296c.0747521.0748129.0872108.1882854.037376.2759848l-.037376.0490115-.2607465.2607452c-.0448146.0448144-.1036385.0672584-.1624623.0672584-.0588237 0-.1176475-.022444-.1625355-.0672584-.0747522-.0748129-.0872109-.1882854-.0373761-.2759849l.0373761-.0490114.2608198-.2607452c.0897026-.0897022.2350751-.0897022.3249245 0zm-10.164112-.0373454.0489856.0373454.2607464.2607452c.089776.0897756.089776.2351474 0 .324923-.0447413.0448144-.1035651.0672583-.1623889.0672583-.0392159 0-.0784317-.0099751-.1134967-.0299035l-.0489655-.0373548-.2607464-.2607453c-.0897026-.0897022-.0897026-.2351474 0-.3249229.074691-.0746907.1881945-.0871392.2758655-.0373454zm7.9099575-1.50284825c.0967561.04247958.1495554.14363601.13501.24345115l-.0169957.05924798-.1482329.33768521c-.0378468.08610826-.1220484.13745051-.2105042.13745051-.0308054 0-.0621977-.0062345-.0921964-.0194367-.0967561-.04247961-.1496062-.14368697-.1350354-.2434342l.0170211-.05919161.148233-.3376852c.0509024-.11618014.1864465-.1689893.3027005-.11808714zm-5.3813236-.04047004.0298248.05389237.1340773.34355288c.0462082.11816048-.0123223.2513569-.1305566.29741821-.0274316.01070853-.0557433.01576941-.0834683.01576941-.0734636 0-.1437353-.03553469-.1870062-.09623941l-.0270185-.05008596-.1340772-.34347953c-.0461348-.11816048.0123222-.2513569.1304832-.29749157.0985287-.03832331.207499-.00416646.2677415.0766636zm2.4154893-.58143109c.1057411 0 .1948263.07141052.2215842.16864497l.00821.06107485v.36871057c0 .12688867-.1029784.22971982-.2297942.22971982-.105741 0-.1947754-.07141053-.2215163-.16864497l-.0082046-.06107485v-.36871057c0-.12688866.1028316-.22971982.2297209-.22971982z" />
</svg>
