<svg viewBox="0 0 32 32" xmlns="http://www.w3.org/2000/svg" xmlns:xlink="http://www.w3.org/1999/xlink">
  <defs>
    <linearGradient id="gradient-default" x1="0%" x2="100%" y1="100%" y2="0%">
      <stop offset="0" stop-color="#9580ff" />
      <stop offset="1" stop-color="#8aff80" />
    </linearGradient>
  </defs>
  <path fill="url(#gradient-default)" fill-rule="evenodd"
    d="m15.9688037 8c2.1284383 0 4.1295342.82885845 5.6347031 2.3339543 1.5050959 1.5050959 2.3338813 3.5062649 2.3338813 5.6347032 0 2.1285845-.8288584 4.1296073-2.3338813 5.6347032-1.5051689 1.505242-3.5062648 2.3341005-5.6347031 2.3341005-2.1285845 0-4.1296804-.8289315-5.6347763-2.3340274-1.50516895-1.505169-2.3340274-3.5061187-2.3340274-5.6347032 0-2.1285114.82893151-4.1296073 2.3340274-5.6347032 1.5050228-1.50516895 3.5061187-2.3340274 5.6347763-2.3340274zm0 .4046758c-2.0205297 0-3.92.78684931-5.3486028 2.2154521-1.42860273 1.4286027-2.2155251 3.3281461-2.2155251 5.3486027s.78684931 3.9198539 2.2154521 5.3485297c1.4286758 1.4288219 3.3281461 2.2155981 5.3486027 2.2155981 2.0203836 0 3.9198539-.7868493 5.3484566-2.2155981 1.4286758-1.4286758 2.2154521-3.3280731 2.2154521-5.3485297 0-2.0203836-.7868493-3.9199269-2.2154521-5.3485297-1.4285297-1.42874885-3.328-2.2155251-5.3483835-2.2155251zm.0141004 14.0964384c.1053273 0 .1940639.0711314.2207171.168028l.0081779.0608669v.3672694c0 .1263197-.1025754.2287489-.228895.2287489-.1053272 0-.1940132-.0711314-.2206494-.1679435l-.0081725-.0608054v-.3672694c0-.1264657.1024292-.2288949.2288219-.2288949zm2.639312-.3701695.0296926.0536763.1335525.3423562c.0458813.1175525-.012274.2502283-.1299726.2962557-.0273242.0107397-.0555251.0158539-.0832146.0158539-.0732347 0-.1431964-.0354426-.1862815-.0959287l-.0269057-.0498978-.1335526-.3422101c-.0458812-.1177717.012274-.2504475.1300457-.2964018.0982648-.0381735.2066768-.0042009.2666362.0762963zm-5.2619969-.1798945c.0964383.0424353.1490918.1431659.134622.2425351l-.0169234.0589809-.1475799.3363653c-.0376986.0859178-.1216438.1369863-.2097534.1369863-.030685 0-.0618813-.0062831-.0917626-.0192877-.0964992-.0423135-.1491121-.1431253-.1345848-.2425249l.0169592-.058991.1475069-.3363653c.0507763-.1157261.18579-.1681827.301516-.1176987zm2.6226849-12.30005477c1.688621 0 3.2761279.65760727 4.4702101 1.85168947 2.4647305 2.4648767 2.4647305 6.4754704 0 8.9403471-1.1940822 1.1940822-2.7815891 1.8516164-4.4702101 1.8516164s-3.2762009-.6575342-4.47021-1.8516164c-2.46487675-2.4649498-2.46487675-6.4755434 0-8.9404201 1.1940091-1.1940092 2.781589-1.85161647 4.47021-1.85161647zm0 .45778997c-1.5663927 0-3.0389772.6099726-4.1465571 1.7175525-2.28639266 2.2863927-2.28639266 6.0065753 0 8.2931142 1.1075799 1.1074337 2.5801644 1.7176255 4.1465571 1.7176255s3.0389772-.6101918 4.1465571-1.7176255c1.1075799-1.107653 1.7176256-2.5801644 1.7176256-4.1465571s-.6100457-3.0390503-1.7176256-4.1465571c-1.1075799-1.1075799-2.5801644-1.7175525-4.1465571-1.7175525zm-4.6162557 10.4802192c.0745205.0745814.0869406.1875697.0372603.2748689l-.0372603.048784-.259726.2597261c-.0446393.0446392-.1031598.0670685-.1617535.0670685-.0585205 0-.1171872-.0224293-.1618264-.0670685-.0744597-.0744597-.0868696-.1874277-.0372299-.2748081l.0372299-.0488449.259726-.259726c.0892785-.0893516.2342283-.0893516.3235799 0zm9.5072714-.0372299.0488199.0372299.2597261.259726c.0893516.0894977.0893516.2343014 0 .323653-.0447124.0446392-.103306.0670685-.1618265.0670685-.0390624 0-.0781248-.0099686-.1130526-.0298407l-.0487739-.0372278-.2597991-.2597261c-.0893516-.0893516-.0893516-.2341552 0-.3236529.0745205-.0744597.1875495-.0868696.2749061-.0372299zm1.3298411-2.0908023.0589606.0169089.3363653.1476529c.1156529.0507032.1683287.1856439.1176255.301443-.0376255.0859178-.1215707.1369863-.2096803.1369863l-.0462466-.0047124-.0455891-.0145753-.3363652-.1475799c-.1157261-.0509224-.1683288-.1859361-.1176256-.3016621.0423744-.0964384.1431963-.1489396.2425554-.1344614zm-12.30268327-.1154016c.03829528.0981431.00419076.2066362-.0763538.2666683l-.05369187.0297335-.34221004.1334064c-.0273242.0107397-.05545206.0158539-.08314155.0158539-.09147032 0-.17789955-.055379-.21318722-.1456804-.03829528-.0981431-.00419077-.2066362.0763538-.2667529l.05369186-.029795.34213699-.1334064c.11777169-.0458082.25044749.0122739.29640183.1299726zm13.20628307-2.6015708c.1263927 0 .2288219.1025023.2288219.2288219 0 .1053273-.0711314.1940132-.1679857.2206494l-.0608362.0081725h-.3672694c-.1263927 0-.228895-.1024292-.228895-.2288219 0-.1052663.0712329-.1939929.1680789-.2206443l.0608161-.0081776zm-13.88157075 0c.1263927 0 .22882192.1025023.22882192.2288219 0 .1053273-.07118214.1940132-.16801116.2206494l-.06081076.0081725h-.36734246c-.1263927 0-.22882192-.1024292-.22882192-.2288219 0-.1052663.07113141-.1939929.16798579-.2206443l.06083613-.0081776zm13.60752515-2.4437626c.0382344.0980822.0042212.2065652-.0763335.266638l-.0537122.0297639-.34221.1334794c-.0273242.0106667-.0555252.0157078-.0830685.0157078-.0915434 0-.1780457-.055306-.2133334-.1457534-.0382344-.0980822-.0042212-.206616.0762913-.266621l.0536813-.0297078.3422831-.1335525c.1178448-.0458082.2504475.012347.2964019.1300456zm-13.34168885-.4161305.05898562.0169342.3363653.147653c.11572603.0507762.16840183.1857169.11769863.3014429-.03769863.0858447-.12164384.1369863-.20968037.1369863l-.04621917-.0047763-.04561644-.0145844-.3363653-.147653c-.11572603-.0508493-.16840183-.18579-.11762557-.301516.04231355-.0964383.14307458-.1489904.2424573-.1344867zm11.69083955-2.1108466c.0744596.0745205.0868696.1875494.0372298.2749061l-.0372298.0488199-.2597261.259726c-.0446392.0446393-.1032329.0669955-.1618265.0669955s-.1171872-.0223562-.1618995-.0669955c-.0744597-.0745205-.0868696-.1875494-.0372298-.2749061l.0372298-.0488199.2597991-.259726c.0893516-.0893516.2341552-.0893516.323653 0zm-10.1243373-.0371994.0487939.0371994.259726.259726c.0894247.0894247.0894247.2342283 0 .323653-.0445662.0446392-.1031598.0669954-.1617534.0669954-.0390624 0-.0781248-.0099361-.1130526-.0297866l-.0487739-.0372088-.259726-.2597261c-.0893516-.0893516-.0893516-.2342283 0-.3236529.0743987-.0743988.1874581-.0867986.274786-.0371994zm7.8790039-1.49697414c.0963775.04231354.1489701.14307458.1344817.24249958l-.0169292.0590164-.1476529.3363653c-.0376987.08577169-.1215708.13691326-.2096804.13691326-.0306849 0-.0619543-.0062101-.0918356-.01936075-.0963775-.04231355-.1490208-.14312532-.134507-.24248267l.0169545-.05896025.1476529-.3363653c.0507032-.11572603.1857169-.16832877.301516-.11762557zm-5.3602652-.04031186.0297081.05368172.1335526.34221005c.0460274.11769863-.012274.25037443-.1300457.2962557-.0273242.01066667-.0555251.01570777-.0831416.01570777-.0731762 0-.1431729-.0353958-.1862744-.09586324l-.0269128-.04989019-.1335525-.34213698c-.0459543-.11769863.012274-.25037443.1299726-.29632877.0981431-.03817352.206687-.00415018.2666937.07636394zm2.4060369-.57915846c.1053273 0 .1940639.0711314.2207171.16798579l.0081779.06083613v.3672694c0 .1263927-.1025754.22882192-.228895.22882192-.1053272 0-.1940132-.07113141-.2206494-.16798579l-.0081725-.06083613v-.3672694c0-.1263927.1024292-.22882192.2288219-.22882192z" />
</svg>
