<svg viewBox="0 0 32 32" xmlns="http://www.w3.org/2000/svg" xmlns:xlink="http://www.w3.org/1999/xlink">
  <path fill="url(#gradient-red-purple)" fill-rule="evenodd"
    d="m16.0711747 22.0014407c.423936-.105984.933248.12992 1.148672.529856.109376.198336.109376.7248 0 .923072-.092352.174336-.338496.406784-.512832.481984-.20512.092288-.601664.082048-.823872-.017088s-.458112-.35552-.533312-.574336c-.198272-.58112.133312-1.19648.721344-1.343488zm-.601664-13.97863581c.41024-.04786041 1.176-.01709301 1.644352.06153504.803392.14016256 1.77088.53330176 2.420416.9879744 1.31616.9230208 2.184448 2.24260477 2.519488 3.83225597.082048.386304.092288.505952.092288 1.1486464.003456.806784-.041024 1.128128-.239296 1.78112-.64608 2.14688-2.430592 3.770688-4.618496 4.215104-.18464.037632-.635904.092288-1.001664.123072-1.093952.088896-1.422144.20512-1.8973376.683712-.1948608.19488-.3076736.341888-.3897216.509376-.1435776.297408-.1470016.304256-.3316032 1.162304-.0854656.393152-.1743488.762368-.201696.827328-.0239296.061568-.1093952.174336-.1880256.249536-.526464.512832-1.41872.123072-1.4084608-.611904 0-.177792 1.8768128-9.0114368 1.962272-9.2575744.0649536-.1743488.2153728-.3350208.4102336-.4307456.5230592-.263232 1.1486592.0752128 1.2101632.6563712.013696.123072-.068352.5640448-.362368 1.9041408-.48544 2.225536-.5845632 2.717824-.5606336 2.758848.0102592.017088.0547136.023936.0957376.013632.191424-.044416.888832-.126464 1.473408-.174336.358976-.027328.762368-.071744.899072-.102528 1.63072-.341888 2.936576-1.610176 3.343424-3.24768.119616-.478592.1504-1.2341248.06496-1.7264-.153856-.9401152-.557248-1.7127232-1.244416-2.393024-.666624-.6632064-1.38112-1.03925117-2.310976-1.21702397-.444416-.0820416-1.162304-.0752064-1.613568.0170944-1.8084288.37262717-3.1792896 1.78792957-3.480128 3.58953597-.0478592.2734848-.0546944.4683456-.0410176.871744.017088.5059456.0546944.7179136.1982784 1.1965056.1264832.403392.041024.74528-.24272.984576-.4033984.348672-1.0597696.218752-1.3024896-.252992-.0376064-.071808-.1128128-.307648-.1675136-.523072-.64953596-2.5194816.3008384-5.1039488 2.4272064-6.58420477.7828608-.55039232 1.8392128-.94011328 2.840832-1.05292704z" />
</svg>
