<svg viewBox="0 0 32 32" xmlns="http://www.w3.org/2000/svg">
  <path fill="url(#gradient-red-purple)" fill-rule="evenodd"
    d="m15.9980797 22.0014776c.4188319-.1059843.922012.1299203 1.1348423.5298574.1080592.1983365.1080592.7248019 0 .9230744-.0912401.1743365-.3344206.4067851-.5066576.4819853-.2026505.0922882-.5944202.0820482-.8139529-.0170881-.2195327-.0991362-.4525965-.3555209-.5268911-.5743375-.1958848-.5811215.131707-1.1964831.7126593-1.3434915zm-.5944202-13.97867265c.4053009-.04786053 1.1618413-.01709305 1.6245545.0615352.7937194.14016293 1.7495592.53330317 2.391275.98797701 1.3003138.92302323 2.1581479 2.24261064 2.4891541 3.83226604.0810602.386305.0911769.5059534.0911769 1.1486495.0034144.8067861-.0405301 1.1281309-.2364149 1.7811246-.6383014 2.1468857-2.4013285 3.770698-4.5628908 4.2151152-.182417.0376321-.6282479.0922882-.9896043.1230723-1.0807811.0888962-1.4050218.2051205-1.8744942.6837138-.1925148.1948805-.3039693.3418889-.3850295.5093773-.141849.2974088-.1452317.3042568-.3276108 1.1623071-.0844366.393153-.1722497.76237-.1992676.8273302-.0236415.0615681-.1080781.1743364-.1857619.2495366-.5201255.5128334-1.401639.1230723-1.3915033-.6119056 0-.1777925 1.8542165-9.0114605 1.9386468-9.2575988.0641716-.1743492.2127798-.3350217.4052945-.4307467.5167618-.2632327 1.1348297.075213 1.1955933.6563729.0135311.1230723-.0675291.5640463-.3580053 1.9041458-.4795954 2.2255419-.5775252 2.7178312-.5538837 2.7588553.0101357.017088.0540549.0239361.094585.013632.1891193-.0444161.8781307-.1264643 1.4556686-.1743364.354654-.0273281.7531893-.0717442.8882474-.1025283 1.6110867-.3418889 2.9012206-1.6101802 3.3031702-3.2476886.1181759-.4785932.1485893-1.234128.0641779-1.7264045-.1520036-.9401177-.5505389-1.7127277-1.2294336-2.3930303-.658598-.6632082-1.3644917-1.03925392-2.2831525-1.21702719-.4390654-.08204181-1.1483103-.0752066-1.5941412.01709445-1.7866559.37262814-3.1410119 1.78793424-3.4382283 3.58954544-.047283.2734855-.0540359.4683468-.0405238.8717463.0168823.5059469.0540359.7179155.1958912 1.1965087.1249604.4033931.0405301.745282-.2397977.9845786-.3985416.3486729-1.0470103.2187526-1.2868081-.2529926-.0371536-.0718082-.1114545-.3076488-.1654967-.5230734-.64171579-2.5194883.2972164-5.1039623 2.3979835-6.58422213.7734354-.55039377 1.8170693-.94011576 2.8066293-1.05292982z" />
</svg>
