<svg viewBox="0 0 32 32" xmlns="http://www.w3.org/2000/svg">
  <path fill="url(#gradient-purple-blue)" fill-rule="evenodd"
    d="m18.4805877 10c5.1205135 0 6.0258773 2.7963111 5.2999838 6.7257418-.4895374 2.6407378-1.7081731 4.6639936-3.7544556 5.6086608-.9221892.4258219-1.7955047.6655974-3.8457932.6655974h-5.8143587l.4823266-2.7032879 5.1100978.0032077c3.0750321.0040096 3.895468-1.3287891 4.2936679-2.499599.147422-.436247.495947-1.7898958.5071639-2.5902165.0248374-1.5613473-.74352-2.5020049-3.3322196-2.5020049l-5.2575198-.0080192.4823266-2.7000802zm-2.3763797 5.1435445-.0089636.045174c-.0227495.112306-.0918168.4408496-.2410129 1.061482-.1450185.6022454-.3629468 1.5966319-1.8876436 1.5966319h-5.9665879s.00030658-.0016366.00094516-.0049626l.00801849-.0406533c.02274943-.1132511.09181673-.44373.24101291-1.061842.14501845-.6014435.36294674-1.59583 1.88844474-1.59583z" />
</svg>
