<svg viewBox="0 0 32 32" xmlns="http://www.w3.org/2000/svg" xmlns:xlink="http://www.w3.org/1999/xlink">
  <path fill="url(#gradient-purple-green)" fill-rule="evenodd"
    d="m15.7874544 20.1095348 2.1525569 2.152584-1.3735552 1.3735281c-.4302343.4302071-1.1277691.4302071-1.5580034 0l-1.366275-1.3735281zm6.5013786-6.4795382 1.3735552 1.3735823c.43018.4302615.43018 1.1277691 0 1.5580034l-4.9991986 4.9991715-2.1525569-2.1525569zm-5.9253273-.2123213 2.1518313 2.1518313-5.7691292 5.7691293-2.1518314-2.1518314zm-6.66243497.5836354 2.15255687 2.1525569-2.16228183 2.152584-1.37352801-1.3735552c-.42751783-.4329507-.42317148-1.1304312.00969779-1.5580305zm5.66413587-5.6786961c.4302342-.4301528 1.1277419-.4301528 1.5579762 0l1.3735823 1.376-5.7781732 5.7757555-2.1525568-2.1525569zm3.8328481 2.2610089 2.1518313 2.1518314-2.1518313 2.1518314-2.1518314-2.1518314z" />
</svg>
