<svg viewBox="0 0 32 32" xmlns="http://www.w3.org/2000/svg">
  <path fill="url(#gradient-purple-green)" fill-rule="evenodd"
    d="m15.7947507 20.1411761 2.1545737 2.1582085-1.3748422 1.377117c-.4306374.4313312-1.1288257.4313312-1.5594631 0l-1.3675551-1.377117zm6.5074699-6.4964688 1.3748421 1.3771714c.4305831.4313857.4305831 1.1307159 0 1.5620743l-5.0038825 5.012234-2.1545737-2.1581814zm-5.9308789-.212876 2.1538474 2.1574538-5.7745345 5.7842036-2.1538475-2.157454zm-6.66867719.5851603 2.15457369 2.1581814-2.16430776 2.1582085-1.37481491-1.3771442c-.42791838-.4340819-.42356796-1.1333849.00970688-1.5621015zm5.66944279-5.69353403c.4306373-.43127676 1.1287985-.43127676 1.5594359 0l1.3748692 1.37959537-5.7835869 5.79084706-2.1545736-2.1581813zm3.8364392 2.26691673 2.1538474 2.157454-2.1538474 2.1574539-2.1538475-2.1574539z" />
</svg>
