<svg viewBox="0 0 32 32" xmlns="http://www.w3.org/2000/svg" xmlns:xlink="http://www.w3.org/1999/xlink">
  <defs>
    <linearGradient id="gradient-eos" x1="0%" x2="100%" y1="100%" y2="0%">
      <stop offset="0" stop-color="#ff9580" />
      <stop offset="1" stop-color="#8aff80" />
    </linearGradient>
  </defs>
  <path fill="url(#gradient-eos)" fill-rule="evenodd"
    d="m16.403694 8c.0617733.00460294.122946.02799499.1743807.07316408l.0478502.05253873 3.4153617 4.66802979c.0185388.0260273.0289202.046109.0370234.0671234l.0134018.0447067 1.6523462 7.5460483.0065532.040647.0004158.0354214-.0018446.0277202-.0141104.0606296-.0265613.0551932-.0161656.0269206-.0338319.0374992-.031254.0289975-5.0862645 3.1873553c-.0373559.0234041-.0760808.0376883-.1145526.0441106l-.0573152.0038944-.0449547-.0038937c-.0192364-.0032111-.0385361-.0083877-.0576963-.0156871l-.0568594-.0284242-5.0862646-3.1873553-.0388005-.0347433c-.0344682-.0384-.0556138-.0746894-.0690122-.1138672l-.0141105-.0606296-.0014287-.0631416.0065476-.0406216 1.6516786-7.5460483.0134011-.0447159.0138367-.0307745.0250579-.0404621 3.4141813-4.66395593c.0585745-.08001591.1398707-.11954932.2222326-.12567967zm3.9673838 12.8250608h-2.7585156l-.6874656 2.1585457zm-5.2343531 0h-2.7585155l3.4459811 2.1585457zm1.829716 0h-1.1835945l.5913165 1.8585607zm-3.1431117-4.1238318-1.9893233 3.508478h3.106575zm2.5517952-4.5026589-2.1383544 3.7728878 1.3499324 4.2382491h1.5758825l1.3499324-4.240172zm2.5508337 4.5016975-1.1172517 3.5094394h3.106575zm-5.9122037-2.5412188-.9711051 4.4363161 1.525885-2.6931343zm6.7217785-.001923-.5547799 1.7431819 1.5258851 2.6940957zm-3.6709699-4.90840782-2.765246 3.77769522.6826581 2.1460463 2.0825879-3.6748158zm.6201613-.00096149v2.24796421l2.0825879 3.6748158.6826581-2.1441233z" />
</svg>
