<svg viewBox="0 0 32 32" xmlns="http://www.w3.org/2000/svg">
  <path fill="url(#gradient-red-green)" fill-rule="evenodd"
    d="m16.5288332 8c.0632038.00460294.1257931.02799499.1784189.07316408l.0489584.05253873 3.4944548 4.66802979c.0189682.0260273.02959.046109.0378808.0671234l.0137122.0447067 1.6906114 7.5460483.0067049.040647.0004254.0354214-.0018873.0277202-.0144371.0606296-.0271764.0551932-.01654.0269206-.0346154.0374992-.0319778.0289975-5.2040525 3.1873553c-.0382211.0234041-.0778427.0376883-.1172054.0441106l-.0586426.0038944-.0459958-.0038937c-.0196818-.0032111-.0394284-.0083877-.0590324-.0156871l-.0581762-.0284242-5.2040526-3.1873553-.039699-.0347433c-.0352664-.0384-.0569018-.0746894-.0706105-.1138672l-.0144372-.0606296-.0014618-.0631416.0066992-.0406216 1.6899284-7.5460483.0137114-.0447159.0141571-.0307745.0256382-.0404621 3.4932471-4.66395593c.059931-.08001591.1431099-.11954932.2273791-.12567967zm4.0592606 12.8250608h-2.8223974l-.703386 2.1585457zm-5.3555705 0h-2.8223975l3.5257834 2.1585457zm1.8720887 0h-1.2110043l.6050102 1.8585607zm-3.2159001-4.1238318-2.0353923 3.508478h3.1785174zm2.6108898-4.5026589-2.1878745 3.7728878 1.3811941 4.2382491h1.612377l1.3811942-4.240172zm2.6099061 4.5016975-1.1431251 3.5094394h3.1785173zm-6.0491189-2.5412188-.9935941 4.4363161 1.5612216-2.6931343zm6.8774419-.001923-.5676276 1.7431819 1.5612217 2.6940957zm-3.7559825-4.90840782-2.8292837 3.77769522.6984671 2.1460463 2.1308166-3.6748158zm.634523-.00096149v2.24796421l2.1308166 3.6748158.6984672-2.1441233z" />
</svg>
