<svg viewBox="0 0 32 32" xmlns="http://www.w3.org/2000/svg" xmlns:xlink="http://www.w3.org/1999/xlink">
  <path fill="url(#gradient-red-blue)" fill-rule="evenodd"
    d="m17.8629722 21.7210833c.6186667-.0000277 1.1196945.5013056 1.1196945 1.1199723 0 .6185833-.5010278 1.1198611-1.1196945 1.1198611-.6188055 0-1.1199166-.5013056-1.1199166-1.1198611 0-.6186389.5011111-1.1199723 1.1199166-1.1199723zm-3.2963889-.0234166c.6153889 0 1.1143334.49925 1.1143334 1.1144722 0 .6154444-.4989445 1.1146944-1.1143334 1.1146944-.6156111 0-1.1145555-.49925-1.1145555-1.1146944 0-.6152222.4989444-1.1144722 1.1145555-1.1144722zm6.7784167-1.5051667c.6625833 0 1.1995.5374444 1.1995 1.2000278 0 .6626111-.5369167 1.1998055-1.1995 1.1998055-.6631111 0-1.2000278-.5371944-1.2000278-1.1998055s.5369167-1.2000278 1.2000278-1.2000278zm-9.4901389.1380556c.5125.0000277.9282222.4157777.9282222.9284722 0 .5130833-.4157222.92875-.9282222.92875-.5129722 0-.9285555-.4156667-.9285555-.92875 0-.5126945.4155833-.9284722.9285555-.9284722zm11.2765556-3.5006667c.7801666 0 1.4125555.6324167 1.4125555 1.4125833 0 .7801945-.6323889 1.4131111-1.4125555 1.4131111-.78075 0-1.4131667-.6329166-1.4131667-1.4131111 0-.7801666.6324167-1.4125833 1.4131667-1.4125833zm-3.9169445-2.6121111c.1797778 0 .3683889.0102778.5601111.0306111.1966667.0207778.3853056.0595555.5603334.11525l.0395555.0124444.1043611.0378611-.0684722.52525-.0167557-.0029528-.1149809-.0198671c-.1565844-.0266708-.4125597-.0687449-.5391523-.0811523-.0644722-.0063889-.1326389-.0289722-.2086111-.0391389-.0754444-.0098333-.1795-.0149722-.3090833-.0149722-.1293056 0-.2541389.0141111-.37175.04175-.1089722.0258056-.2031389.0668889-.2806945.1224445-.0756389.0544444-.1346944.1210555-.18025.2039166-.0434166.0786945-.0655277.1779167-.0655277.2948334 0 .1911388.0457777.3383888.1399722.4499722.1050833.1247222.2392778.2332222.3993055.3219166.1706389.0952223.3571389.1815834.5546389.2570278.2140834.0824445.4164722.1821111.6016667.2962778.1945833.1205.3593055.2731667.4896111.45425.1376389.1916944.2073333.4412778.2073333.7416667 0 .2294166-.0476666.42975-.14125.59575-.0923333.1633333-.2190555.3001389-.3764444.4060277-.1529445.1024445-.3295833.1776945-.5249445.2234723-.1878333.0445-.3878888.0668611-.5936666.0668611-.2023889 0-.4128056-.0125278-.6255834-.0372222-.217-.0254445-.4248333-.0710556-.6179166-.1355556l-.0324722-.0109167-.1261389-.0574722v-.5411111l.4558333.10825c.3194722.0688889.6876111.1110833.9388889.1110833.1331944 0 .2669167-.0153889.3972222-.0455555.1238611-.0288889.2352222-.0738611.3304167-.1339445.0915278-.0580555.1633889-.1295555.2195555-.2195555.0530278-.0845.0788611-.1859722.0788611-.3103889 0-.1950556-.0458055-.3443611-.14025-.45675-.1053888-.1249167-.2401388-.2346945-.4003611-.32575-.1698611-.0966945-.3566666-.1851667-.5546389-.2632778-.2140833-.0845-.4159722-.1851944-.6003888-.2993333-.1946389-.1202222-.3592778-.2719167-.4890834-.4498334-.1378889-.1894166-.2078055-.4358611-.2078055-.7327222 0-.2095278.0418611-.396.1243333-.5544444.0822222-.1574445.1961667-.2899445.3384722-.3941111.1389167-.1014445.302-.1766389.4843889-.2231945.1758611-.0449166.3646945-.0676944.5613611-.0676944zm-5.2199444.1557222 1.2908333 3.7446389 1.2969445-3.7446389h.7885l-1.7724723 4.7794444h-.6198055l-1.76925-4.7794444zm-5.19863891.0533056 1.52766671 2.4808333 1.2613055-2.4808333h.7990278v4.6728333h-.6161389v-1.81975l.05775-1.964-1.2676944 2.4518055h-.4717223l-1.53097219-2.4421666.061 1.9543889v1.8197222h-.61611111v-4.6728333zm14.30616671-1.6741112c.79625 0 1.4419166.6456389 1.4419166 1.4420834 0 .7964444-.6456666 1.4422222-1.4419166 1.4422222-.7969167 0-1.4425278-.6457778-1.4425278-1.4422222 0-.7964445.6455833-1.4420834 1.4425278-1.4420834zm-11.3215834-3.00347218c.8293334 0 1.5016667.67233338 1.5016667 1.50174998 0 .8293611-.6723333 1.5017222-1.5016667 1.5017222-.8294722 0-1.5018333-.6723611-1.5018333-1.5017222 0-.8294166.6723611-1.50174998 1.5018333-1.50174998zm8.9828611-.02627778c.8061667 0 1.4596389.65333336 1.4596389 1.45924996 0 .8058056-.6534722 1.4594167-1.4596389 1.4594167-.8056944 0-1.4591666-.6535833-1.4591666-1.4594167 0-.8059166.6534722-1.45924996 1.4591666-1.45924996zm-4.21225-1.72294444c.8108889 0 1.4679723.65752778 1.4679723 1.46838889 0 .81058331-.6570834 1.46819441-1.4679723 1.46819441-.8111111 0-1.4685277-.6576389-1.4685277-1.46819441 0-.81086111.6574166-1.46838889 1.4685277-1.46838889z" />
</svg>
