<svg viewBox="0 0 32 32" xmlns="http://www.w3.org/2000/svg">
  <path fill="url(#gradient-red-blue)" fill-rule="evenodd"
    d="m18.134841 21.7546819c.63572-.0000277 1.1505584.5025332 1.1505584 1.1227148 0 .620098-.5148384 1.1226033-1.1505584 1.1226033-.6358626 0-1.1507867-.5025331-1.1507867-1.1226033 0-.6201537.5149241-1.1227148 1.1507867-1.1227148zm-3.3872525-.0234739c.6323518 0 1.1450495.5004725 1.1450495 1.1172012 0 .6169514-.5126977 1.1174239-1.1450495 1.1174239-.6325802 0-1.1452778-.5004725-1.1452778-1.1174239 0-.6167287.5126976-1.1172012 1.1452778-1.1172012zm6.9652609-1.5088524c.6808472 0 1.2325638.5387605 1.2325638 1.2029663 0 .6642336-.5517166 1.2027435-1.2325638 1.2027435-.6813894 0-1.233106-.5385099-1.233106-1.2027435s.5517166-1.2029663 1.233106-1.2029663zm-9.7517306.1383937c.5266268.0000277.9538082.4167958.9538082.9307457 0 .5143397-.4271814.9310242-.9538082.9310242-.5271121 0-.9541508-.4166845-.9541508-.9310242 0-.5139499.4270387-.9307457.9541508-.9307457zm11.5873892-3.5092388c.8016716 0 1.451492.6339653 1.451492 1.4160423 0 .782105-.6498204 1.4165714-1.451492 1.4165714-.8022711 0-1.4521201-.6344664-1.4521201-1.4165714 0-.782077.649849-1.4160423 1.4521201-1.4160423zm-4.0249135-2.6185073c.1847333 0 .3785434.010303.5755504.0306861.2020877.0208286.3959263.0597013.5757787.1155322l.0406458.0124748.1072378.0379538-.0703596.5265362-.0172176-.00296-.1181503-.0199158c-.1609005-.0267361-.4239317-.0689132-.5540138-.081351-.0662493-.0064045-.136295-.0290431-.2143613-.0392347-.077524-.0098574-.1844479-.0150089-.3176031-.0150089-.1328699 0-.2611441.0141457-.3819971.0418523-.111976.0258687-.2087384.0670526-.2884318.1227443-.0777238.0545777-.1384072.1213519-.1852185.2044159-.0446133.0788872-.0673339.1783524-.0673339.2955554 0 .1916068.0470395.3392174.1438304.451074.1079799.1250276.2458734.2337933.4103122.3227049.1753425.0954555.3669833.182028.5699273.2576572.2199846.0826463.4279521.182557.6182514.2970033.1999469.120795.3692096.2738356.5031071.4553623.1414328.1921638.2130483.4423583.2130483.7434828 0 .2299784-.0489805.4308023-.1451435.5972088-.0948784.1637332-.2250937.3008738-.3868209.4070219-.1571604.1026954-.3386681.1781296-.5394144.2240195-.1930108.044609-.3985808.0670249-.6100308.0670249-.2079676 0-.4241844-.0125585-.6428273-.0373134-.2229815-.0255068-.4365437-.0712296-.6349492-.1358875l-.0333673-.0109435-.1296159-.0576129v-.5424361l.4683982.1085151c.3282783.0690576.7065648.1113553.964769.1113553.1368658 0 .2742741-.0154266.4081714-.0456671.1272753-.0289596.241706-.0740419.3395245-.1342725.0940507-.0581976.1678927-.1298727.2256075-.2200931.0544895-.0847069.0810349-.1864276.0810349-.3111489 0-.1955333-.0470682-.3452044-.144116-.4578685-.1082938-.1252225-.2467581-.2352692-.4113969-.3265476-.1745432-.0969313-.3664979-.1856201-.5699273-.2639225-.2199844-.0847069-.4274383-.1856479-.6169382-.3000663-.2000041-.1205166-.3691812-.2725825-.5025648-.4509349-.1416898-.1898804-.2135336-.4369284-.2135336-.7345164 0-.2100409.043015-.3969697.1277605-.5558021.0844886-.15783.201574-.2906544.3478021-.3950761.1427458-.1016929.3103245-.1770714.4977408-.223741.1807087-.0450266.3747472-.0678602.5768348-.0678602zm-5.36383.1561035 1.3264146 3.7538084 1.3326942-3.7538084h.8102347l-1.8213298 4.7911478h-.6368901l-1.8180187-4.7911478zm-5.34193726.0534361 1.56977626 2.4869081 1.2960728-2.4869081h.8210527v4.6842756h-.6331225v-1.824206l.0593418-1.9688092-1.3026378 2.4578092h-.4847252l-1.57317278-2.4481467.06268144 1.9591746v1.8241781h-.63309396v-4.6842756zm14.70051036-1.6782105c.8181983 0 1.4816624.6472198 1.4816624 1.4456146 0 .7983946-.6634641 1.4457537-1.4816624 1.4457537-.8188834 0-1.4822905-.6473591-1.4822905-1.4457537 0-.7983948.6633785-1.4456146 1.4822905-1.4456146zm-11.6336582-3.01082678c.8521936 0 1.5430595.67397968 1.5430595 1.50542728 0 .831392-.6908659 1.5053995-1.5430595 1.5053995-.8523363 0-1.5432308-.6740075-1.5432308-1.5053995 0-.8314476.6908945-1.50542728 1.5432308-1.50542728zm9.2304699-.02634213c.8283884 0 1.4998733.65493321 1.4998733 1.46282321 0 .8077788-.6714849 1.4629904-1.4998733 1.4629904-.827903 0-1.4993879-.6551838-1.4993879-1.4629904 0-.80789.6714849-1.46282321 1.4993879-1.46282321zm-4.3283589-1.72716339c.8332407 0 1.5084364.65913786 1.5084364 1.47198452 0 .81256818-.6751957 1.47178958-1.5084364 1.47178958-.833469 0-1.5090071-.6592493-1.5090071-1.47178958 0-.81284666.6755381-1.47198452 1.5090071-1.47198452z" />
</svg>
