<svg viewBox="0 0 32 32" xmlns="http://www.w3.org/2000/svg">
  <path fill="url(#gradient-blue-yellow)" fill-rule="evenodd"
    d="m18.4137931 15.1165981v-1.6049383h-3.4310345l.0344828-.2496571c.0229885-.1545496.0804597-.3477366.1724138-.579561.091954-.2318244.2068965-.4606767.3448276-.6865569.137931-.2258802.341954-.4190672.6120689-.5795611.270115-.1604938.5833334-.2407407.9396552-.2407407.6321839 0 1.1666667.0891632 1.6034483.2674897l.275862 1.2482853h1.6034483l.0862069-2.94238681-.4655172-.19615912c-.3103449-.11888432-.7557472-.24074074-1.3362069-.36556927-.5804598-.12482853-1.1408046-.1872428-1.6810345-.1872428-.7701149 0-1.4568966.12780064-2.0603448.38340192-.6034483.25560128-1.0948276.60631001-1.474138 1.05212618-.3793103.4458162-.6810344.9213535-.9051724 1.4266118-.2241379.5052584-.387931 1.0550983-.4913793 1.6495199h-1.2413793v1.6049383zm-1.5 6.8834019c.4597701 0 .9166667-.0624143 1.3706897-.1872428.4540229-.1248285.8304597-.2645176 1.1293103-.4190672s.5862069-.329904.862069-.5260631c.275862-.1961591.454023-.3328761.5344827-.4101509.0804598-.0772748.1436782-.1396891.1896552-.1872428l-.9482759-1.569273-.3620689.2674897c-.2413793.1664381-.5919541.3328761-1.0517242.4993142-.4597701.166438-.9080459.249657-1.3448276.249657-1.1149425 0-1.8448275-.6241426-2.1896551-1.872428h3.3103448v-1.6049382h-7.4137931v1.6049382h1.2931034c.0919541.4755373.2212644.9213535.3879311 1.3374486.1666666.4160951.4166666.852995.75 1.3106996.3333333.4577046.7988506.8232739 1.3965517 1.0967078.5977012.2734339 1.2931035.4101509 2.0862069.4101509z" />
</svg>
