<svg viewBox="0 0 32 32" xmlns="http://www.w3.org/2000/svg" xmlns:xlink="http://www.w3.org/1999/xlink">
  <path fill="url(#gradient-blue-yellow)" fill-rule="evenodd"
    d="m18.74 15.174v-1.62h-3.582l.036-.252c.024-.156.084-.351.18-.585s.216-.465.36-.693.357-.423.639-.585.609-.243.981-.243c.66 0 1.218.09 1.674.27l.288 1.26h1.674l.09-2.97-.486-.198c-.324-.12-.789-.243-1.395-.369s-1.191-.189-1.755-.189c-.804 0-1.521.129-2.151.387s-1.143.612-1.539 1.062-.711.93-.945 1.44-.405 1.065-.513 1.665h-1.296v1.62zm-1.566 6.948c.48 0 .957-.063 1.431-.189s.867-.267 1.179-.423.612-.333.9-.531.474-.336.558-.414.15-.141.198-.189l-.99-1.584-.378.27c-.252.168-.618.336-1.098.504s-.948.252-1.404.252c-1.164 0-1.926-.63-2.286-1.89h3.456v-1.62h-7.74v1.62h1.35c.096.48.231.93.405 1.35s.435.861.783 1.323.834.831 1.458 1.107 1.35.414 2.178.414z" />
</svg>
