<svg viewBox="0 0 32 32" xmlns="http://www.w3.org/2000/svg"><path d="m21.7728703 21.3424418s-.0833651.1152224-.1170317.148829c-.0003207.0335265-1.9709425 1.4574842-3.0235867 1.8982902-.8835094.3727927-1.6643354.5761123-2.2423599.610439h-.629892l.1156225-.003573c.6522539-.0413172 1.5125353-.2726409 2.5188786-.6739991 1.1889141-.5088192 3.3447025-1.9799861 3.3783692-1.9799861zm1.9214044-3.0033057c-.0681349.2031596-.1707381.5080191-.2725397.7121389-1.1889942 2.4403959-6.6919701 5.1529248-8.866195 4.8134986-.2380714-.0336065-.5435563-.1016198-.7471594-.169633.7816276.2375663 2.2423599-.0336066 4.008577-.7799921 2.8536502-1.2199979 5.469229-3.2543947 5.8773171-4.5760124zm.2901745-1.4639654-.0865714.5826736c-.4072864 1.4575642-3.2950041 3.7287271-6.45454 5.0848315-2.0724234.8816119-3.7367588 1.1183781-4.5521332.8135987-.2036031-.1016198-.4754213-.2032397-.6453578-.3047795 2.7119296 1.1212587 10.9312438-3.2835202 11.7386024-6.1763243zm-7.526262 4.7854931c.0335064.0336866.0335064.1697131-.1700968.2712529-2.3441614.9152185-4.1785134 1.1183781-4.9256728.6104391-.113291-.090151-.2565435-.1955582-.3897851-.296117l-.1873577-.144689c.7134126.610439 2.6496463.4063993 5.1638244-.5761123.3728182-.1016199.509088.1352263.509088.1352263zm-6.79457324-.8127985c.37361974.4744125 1.29055534.6104391 2.61597964.4063993.2380714 0 .4072864.2032396.4417547.2711729.0336666.0681733.0681349.2033996-.0681349.2377263-1.2225807.2032396-2.1060901.1016198-2.5141781-.3391861-.1354682-.1696331-.33995312-.4063993-.47542134-.5761124zm11.65195084-5.5253974c.0681349.2031596 0 .3391061-.0681349.4407259-1.4943989 1.3560244-3.7033326 2.7119689-6.0127853 3.6952006-3.4312739 1.4242777-6.01278532 1.5255775-6.25093686.3047794-.03366666-.1016198-.10180157-.1696331-.16993647-.2711729.64535781.8472052 3.02326603.6775722 6.08092023-.6439655 2.3096932-.9832318 4.5183864-2.3727827 6.0127853-3.6952006.2725396-.1360265.3744214.0672131.408088.1696331zm2.2086131-2.1018499c.1018015.2703727.2036031.5416256.2372698.7455854.0338269.1697931.0338269.3729527-.0335064.6105991-.4072864 1.4911708-2.9551311 3.6952005-6.046452 5.2879911-.3399531.1352264-.5435562-.1016198-.4754213-.3391861.0336667-.1016198.1018016-.1696331.1699365-.2032396 3.1250676-1.6271973 5.7410473-3.8647537 6.1481734-5.389611.0681349-.2711996.0681349-.5085792 0-.7121389zm.4076872 1.7273769.0681349.4416061-.0003206.2711729c0 .1352263 0 .2375663-.0336667.4063992-.2380714.9152185-1.3589307 2.1016098-2.8877177 3.2543946-.2380714.1696331-.3736197-.0680133-.3399531-.2375663.0336667-.1352264.1354682-.2375663.1699365-.2711729 1.5970021-1.1863913 2.7514479-2.4063892 2.98992-3.3560144.0336667-.1696331.0681349-.3391862.0336667-.5088192zm-2.2417988-4.610019c.1691349.1704332.3391516.3735929.509088.5432259.203523.2379664.2379912.5428259.1353881.9492251-.4754213 1.7968304-3.9748302 4.5424058-7.8471373 6.169203-3.3666109 1.4624012-5.90413636 1.5255148-6.14102641.3210521l.02724108.0857473c-.06813491-.2032397-.13546823-.5088193-.20360314-.7121389.03322658.1002914.10002616.2005829.1672646.3007974l.00195045-.0290644-.00128251.0300599.00128251.0035466c.61169115.8472052 2.92138432.6439656 5.87731712-.610439 3.7704254-1.5935908 7.2017795-4.3048395 7.6771207-6.0679833.1018015-.4408059.0336666-.7455854-.2036032-.9832317zm-1.3253442-1.04916458.2717381.16883292.3400333.23748631c.2718182.23756633.3736197.57611235.2718182 1.01683825-.4417547 1.6952106-3.7704255 4.3048395-7.4053827 5.830417-2.8734983 1.2369124-5.09300527 1.4016509-5.67021447.5905883l-.00371453-.0059741.00013489.00102-.00313489-.00302.00313489.0277448c-.01206537-.0200952-.02364658-.0411356-.03463287-.0630104l.03463287.0382856c-.09622927-.0960575-.13157848-.2006945-.13515997-.3550009l-.0027724-.0293793c.00058129.0050816.00120116.0101521.00185889.0152105l.00060525-.0131449c0-.2032396-.03366666-.5088192-.03366666-.7121389 0 .2032397.06813491.3391862.13546823.4744126v.0008001c2.27602657 2.4063893 12.50099197-3.8304269 12.60287367-6.4743825.0336667-.4744125-.2380714-.64396557-.3736198-.74558538zm-12.19558721 5.02866058c-.06813491.2711729-.03366666.5088192.10180156.6439656l-.00080158-.0020804c.0681349.1016198.16993647.1696331.30548486.2375663.10260315.1352264.03446824.4744125.03446824.4744125-.03366666.1014598-.0681349.2374063-.13546822.2030796-.22663541-.1126086-.3627449-.2706305-.41809004-.4841181l-.00673111-.0366834c.02535019.097419.06763392.1820555.1185347.2497086-.06353135-.1049582-.11441937-.2121249-.13466733-.3362828l.00133403.0109602-.00459907-.0259103c-.00437904-.035158-.00656856-.0715806-.00626054-.1091124l.00785961-.1139773.06899998-.4403552zm10.79386511-5.7504719-.1272252-.05770069c.2036032.10081966.4754214.20243948.6790245.30405929.4074467.20347968.5773031.54266582.441915 1.05140503-.4072864 1.52557747-3.3968057 3.86475367-6.6581431 5.25438457-.6117713.2712529-1.2226609.4743325-1.7662171.6440456-.3054849.0336066-.3399531-.3727927-.2036032-.5761123.0336667-.0680133.0681349-.0680133.1018016-.1016198.5098896-.1352264 1.0534458-.3391862 1.6306687-.5761124 3.091401-1.3224178 5.9109838-3.559174 6.2844432-4.9832117.1128902-.42401602-.0096858-.72967562-.3093254-.91795123zm-1.6976947-.48946488.7889221.19363776c.4417546.16963308.6116911.47441251.4754213.94882502-.3399531 1.2882512-2.8877177 3.2880012-5.6729124 4.4743925-2.2078916.9160186-3.90669522 1.0855717-4.34764831.440806l.08632574-.2585789c-.03012565.0866445-.05668431.1692835-.08632574.2584188-.10180156-.1350663-.13573542-.3046727-.10180156-.5086592 0-.0680132 0-.1016198.03366666-.169633.06450333-.1978241.1440933-.390425.23807138-.5761124-.06776054.236261-.05544801.4884289.04482206.6579664l-.0111554-.0138408c.40728643.5761124 1.97062187.440806 3.97483017-.4063992 2.5478447-1.1183781 4.8920062-2.948815 5.197491-4.10159983.1018016-.44080596-.2460872-.80319663-.619707-.93922315zm-7.63543816 3.12012838s-.16993648.2375664-.2718182.5088193l-.00204894.0015172-.01158324.0864859c-.01699964.1503151-.00319515.258348.07997365.3427554l.00187359-.0013948c.2718182.3391861 1.1207791.3391861 2.2760265-.0336066.1185347-.0294057.1333516.2002653.1352037.2581426l.0002646.0123902c0 .1696331-.0336667.4063992-1.4943989.610439-.40728647.0680133-.98531096.0336066-1.257049-.2711729l1.3746891-.1700388-1.3746891.1699588c-.06813491-.1016198-.10180157-.200039-.10180157-.369592 0-.0168033 0-.0338066.00420833-.0550108l.00380754-.0161231c0-.0680133.06011904-.1928376.0937857-.2599707.03366666-.1016198.40728642-.6775721.54355624-.8135987zm.95557206-.9938738c-.1018016.1352264-.1891746.2519692-.2236428.3879957-.0095389.0076015-.0527445.2215632.0145087.2896565.2044047.2705327.9515641.2025195 1.9031282-.2038798.3054848-.1352263.6116911-.2711729.8835093-.4408059.1018818-.0336066.2381516.1352263.2718182.169633.0336667.0336066.0681349.1352264-.0000801.2033197-.3399531.2032396-.7134927.4063992-1.1207792.5424258-1.188914.5087392-2.1421615.5759523-2.38023284.2375663-.02749444-.0831362-.04160237-.2686124-.02749444-.3520687.00264524-.2966978.54588088-.7331829.67926498-.8338426zm5.532314-2.2037897c.7134125 0 1.0534458.27117288.917176.81359865-.1693754.64396558-1.0867919 1.55918405-2.2757059 2.37278265-.2380714.1016199-.4754214-.2032396-.4072865-.3391861 0-.0336066.0336667-.0336066.0336667-.0336066 1.0534458-.7121388 1.8342719-1.49117073 2.0039679-2.06800321.1100679-.44072094-.1603923-.68018701-.6849315-.71809778l-.0596399-.00248761.0150172-.00010626c.1559473-.00995749.3220005-.02489374.457736-.02489374z" fill-rule="evenodd"/></svg>
