<svg viewBox="0 0 32 32" xmlns="http://www.w3.org/2000/svg">
  <path fill="url(#gradient-purple-blue)" fill-rule="evenodd"
    d="m15.5486856 13.1438945c.2924895-1.3466944.6447349-2.5572546 1.0189956-3.34734973.1375959-.3773846.695842-1.2812121 1.3083402-1.87830691 1.0197819-.99515802 2.1637933-1.24760936 3.3549803-.42821951l-.1045728.18179943.1045728-.18179943c.6077806.41788021.8515219.84782294.7445902 1.25277901-.0786262.30156304-.3797645.54281347-.5409483.51782682-.2358786.02584826-.4733298-.02584826-.6997732-.2085093-.1906401-.16089982-.3376914-.37565802-.4253678-.62121986-.1666876-.43080434-.3852685-.57727781-.6533838-.54281346-.1942068.02412504-.419864.16025921-.4914139.25158973l-.1847715.22401826c-.1436222.16760357-.2711427.35094088-.3805509.5471215-.3742608.68325568-.7194298 1.93517305-1.1982634 4.52947685l3.1733538.5092107-.1745502 1.3932212-3.2205296-.5169652-.1375958.9167516-.0353818.229188c-.0188703.1189019-.0393131.2481432-.062901.3860006l3.2519801.5221349-.1863442 1.391498-3.3282474-.5341974c-.3844822 1.7904229-.890835 3.7092254-1.2485842 4.4665794-.1383822.3782462-.695842 1.2803505-1.3083402 1.8783069-1.0197819.9942964-2.1637933 1.2476094-3.3549803.4282195-.6077806-.4178802-.85152189-.8486845-.7445902-1.2536406.0786262-.301563.3797645-.5419519.5409483-.5169652.2358786-.0258483.4733298.0258483.6997732.2076477.1745502.1413038.3192225.3463667.4253678.6220815.1666876.4299427.3852685.5772778.6533838.5428134.1942068-.0249866.419864-.1611208.4914139-.2524513.7131397-.8702248 1.2784621-2.5469153 1.9931744-6.4189847l-3.1733539-.5100723.1745502-1.3932212 3.2205296.5169652.1383821-.91589c.0305793-.2057609.0633424-.4111249.0982828-.6160502l-3.2393999-.5195501.1855579-1.391498z" />
</svg>
