<svg viewBox="0 0 32 32" xmlns="http://www.w3.org/2000/svg" xmlns:xlink="http://www.w3.org/1999/xlink">
  <path fill="url(#gradient-purple-blue)" fill-rule="evenodd"
    d="M16.086 13.461c.268-1.197.591-2.273.934-2.975.127-.336.638-1.139 1.2-1.67.934-.884 1.983-1.109 3.075-.38l-.096.161.096-.161c.557.371.78.753.683 1.113-.072.268-.348.483-.496.46a.856.856 0 01-.642-.185 1.287 1.287 0 01-.39-.552c-.152-.383-.353-.513-.599-.483a.824.824 0 00-.45.224l-.17.2a2.971 2.971 0 00-.348.485c-.343.608-.66 1.72-1.099 4.027l2.91.452-.16 1.239-2.953-.46-.126.815-.032.204c-.018.106-.036.22-.058.343l2.98.464-.17 1.237-3.05-.475c-.353 1.592-.817 3.297-1.145 3.97-.127.337-.638 1.138-1.2 1.67-.934.884-1.983 1.109-3.075.38-.557-.37-.78-.754-.683-1.114.072-.268.348-.481.496-.46a.858.858 0 01.642.185c.16.126.292.308.39.553.152.382.353.513.599.483.178-.022.384-.143.45-.225.654-.773 1.172-2.264 1.827-5.705l-2.909-.454.16-1.238 2.952.46.127-.815c.028-.183.058-.365.09-.547l-2.97-.462.17-1.237 3.04.473z" />
</svg>
