<svg viewBox="0 0 32 32" xmlns="http://www.w3.org/2000/svg">
  <path fill="url(#gradient-red-purple)" fill-rule="evenodd"
    d="m20 23v-3.9888424h-1.6411765l-.4058823 1.8675035h-3.282353c.4352942-.3988843.6529412-1.0334728.6529412-1.9037657 0-.4834961-.0294118-1.0757787-.0882353-1.776848h2.4v-1.9944212h-2.5411765c-.0235294-.483496-.0352941-.8642492-.0352941-1.1422594v-.3444909c0-1.0636913.482353-1.595537 1.4470589-1.595537.5647058 0 1.0647058.0362622 1.5.1087866l.3529411 1.3417016h1.5882353v-2.9372385l-.4411764-.16318c-.282353-.1087866-.7352942-.2145513-1.3588236-.3172942s-1.2705882-.1541144-1.9411764-.1541144c-1.282353 0-2.2294118.3293817-2.8411765.988145-.6117647.6587634-.9176471 1.5804278-.9176471 2.7649931 0 .4955834.0176471.9972106.0529412 1.5048814l-1.5.2538355v1.6861924h1.6235294c.0588235 1.2450023.0882353 1.9279405.0882353 2.0488145 0 .5922827-.0529412 1.0183636-.1588235 1.2782427-.1058824.2598791-.3294118.4502557-.6705883.5711297l-.8823529.3263598v1.5774059z" />
</svg>
