<svg viewBox="0 0 32 32" xmlns="http://www.w3.org/2000/svg">
  <path fill="url(#gradient-purple-blue)" fill-rule="evenodd"
    d="m19.6360545 9.74016957c.488661 0 .8849944-.39033879.8849944-.87008479 0-.47974599-.3963334-.87008478-.8849944-.87008478-.488661.00218066-.8849944.39251945-.8849944.87226545 0 .47974599.3963334.86790412.8849944.86790412zm.260972 2.26136993c.4143485 0 .7498807-.3292802.7498807-.7370643 0-.4056034-.3355322-.7370643-.7498807-.7370643s-.7498807.3292802-.7498807.7370643.3355322.7370643.7498807.7370643zm2.0583438.287804c.4120966 0 .7476288-.3292802.7476288-.7348836s-.3355322-.7348836-.7476288-.7348836-.7476289.3292802-.7476289.7348836.3355323.7348836.7476289.7348836zm-.2471904 1.9346848c.3535473 0 .6395379-.2813056.6395379-.6280311s-.2859906-.6280311-.6395379-.6280311c-.3535474 0-.6395379.2813056-.6395379.6280311s.2859905.6280311.6395379.6280311zm1.6477784.6274205c.3557993 0 .6440417-.2834862.6440417-.6323924s-.2882424-.6323925-.6440417-.6323925-.6440417.2834863-.6440417.6323925.2882424.6323924.6440417.6323924zm-3.7186202-.8892092c.3625549 0 .6553012-.2878476.6553012-.6432957 0-.3554482-.2927463-.6432958-.6553012-.6432958-.362555 0-.6553012.2878476-.6553012.6432958 0 .3532675.2927462.6432957.6553012.6432957zm-.593847 1.5394831c.3040057 0 .5494622-.2420536.5494622-.5386239 0-.2987509-.2454565-.5386239-.5494622-.5386239s-.5494621.2420537-.5494621.5386239c0 .2965703.2454564.5386239.5494621.5386239zm2.0607983.2721032c.3017538 0 .5449584-.239873.5449584-.5364432 0-.2965703-.2432046-.5364433-.5449584-.5364433s-.5449583.239873-.5449583.5364433c-.0022519.2965702.2432045.5364432.5449583.5364432zm1.6431396.6250436c.3040057 0 .5494621-.2420536.5494621-.5408045s-.2454564-.5408046-.5494621-.5408046-.5494622.2420537-.5494622.5408046.2454565.5408045.5494622.5408045zm-.8117178 1.1677672c.256716 0 .4638902-.2049824.4638902-.4557587s-.2071742-.4557587-.4638902-.4557587c-.2567159 0-.4638901.2049824-.4638901.4557587s.2071742.4557587.4638901.4557587zm-1.650886-.615078c.2612197 0 .4751496-.2093437.4751496-.466662s-.211678-.466662-.4751496-.466662-.4751497.2093437-.4751497.466662.21393.466662.4751497.466662zm-2.0580735-.2849691c.2589678 0 .4706458-.207163.4706458-.4623007 0-.2551376-.2094261-.4623007-.4706458-.4623007-.2589679 0-.4706459.2071631-.4706459.4623007 0 .2551377.2094261.4623007.4706459.4623007zm1.1439621 1.0969174c.2274413 0 .4098448-.180995.4098448-.4012421 0-.2224277-.1824035-.4012421-.4098448-.4012421s-.4098447.1809951-.4098447.4012421c0 .2224277.1824034.4012421.4098447.4012421zm1.6502556.6252617c.2274413 0 .4143485-.1809951.4143485-.4056034 0-.2246084-.1846554-.4056035-.4143485-.4056035-.2274413 0-.4143485.1809951-.4143485.4056035.0022518.2246083.1869072.4056034.4143485.4056034zm-.9295144.4692134c.1801516 0 .3265247-.1439238.3265247-.3205576 0-.1766337-.1463731-.3205575-.3265247-.3205575-.1801515 0-.3265246.1439238-.3265246.3205575.0022519.1766338.1463731.3205576.3265246.3205576zm-.8804455.2516486c.1643883 0 .2949981-.1308398.2949981-.2900283 0-.1613691-.1328617-.2900282-.2949981-.2900282-.1643883 0-.2949981.1308398-.2949981.2900282-.0022519.1613691.1306098.2900283.2949981.2900283zm-.7711836-.8339294c.1936629 0 .3512954-.1548271.3512954-.3445449 0-.1897177-.1576325-.3445448-.3512954-.3445448s-.3512955.1548271-.3512955.3445448c0 .1897178.1576326.3445449.3512955.3445449zm-1.1320046-.7906214c.2251894 0 .4098447-.1788144.4098447-.4012421s-.1824035-.4012421-.4098447-.4012421c-.2251895 0-.4098448.1788144-.4098448.4012421.0022519.2224277.1846553.4012421.4098448.4012421zm3.3563805 5.0249032c.4864091 0 .8804906-.3881581.8804906-.8657235 0-.4775653-.3940815-.8657234-.8804906-.8657234s-.8804906.3881581-.8804906.8657234c0 .4775654.3940815.8657235.8804906.8657235zm-2.2376621-1.0961106c.4053409 0 .7341175-.3227382.7341175-.7217996 0-.3990615-.3287766-.7217997-.7341175-.7217997s-.7341175.3227382-.7341175.7217997c0 .3990614.3287766.7217996.7341175.7217996zm-1.2781525 1.5861275c.4098447 0 .7408731-.3249189.7408731-.7283416 0-.4012422-.3310284-.7283417-.7408731-.7283417-.4098448 0-.7408732.3249189-.7408732.7283417 0 .4012421.3310284.7283416.7408732.7283416zm-.3843308-2.9223291c.3535474 0 .6417898-.2813056.6417898-.6302118s-.2882424-.6302118-.6417898-.6302118-.6417898.2813056-.6417898.6302118c0 .3467255.2882424.6302118.6417898.6302118zm-1.2755178 1.6074544c.3535473 0 .6395379-.2813056.6395379-.6280312 0-.3467255-.2859906-.6280311-.6395379-.6280311-.3535474 0-.6395379.2813056-.6395379.6280311-.0022519.3467256.2859905.6280312.6395379.6280312zm-1.374331 1.0915529c.3535474 0 .637286-.2813056.637286-.6258504 0-.3467255-.2859905-.6258505-.637286-.6258505-.3535473 0-.637286.2813056-.637286.6258505 0 .3445448.2859905.6258504.637286.6258504zm-1.143827-1.4205715c.2995019 0 .5449583-.239873.5449583-.5342626 0-.2943895-.2432045-.5342625-.5449583-.5342625-.299502 0-.5449584.239873-.5449584.5342625.0022519.2943896.2454564.5342626.5449584.5342626zm1.376853-1.0959579c.3017538 0 .5449584-.239873.5449584-.5342626 0-.2965702-.2432046-.5342626-.5449584-.5342626s-.5449583.239873-.5449583.5342626.2432045.5342626.5449583.5342626zm1.2848857-1.6073671c.3017538 0 .5449584-.239873.5449584-.5364433 0-.2965702-.2432046-.5364432-.5449584-.5364432s-.5449583.239873-.5449583.5364432c0 .2965703.2432045.5364433.5449583.5364433zm-1.9652054.2213809c.2612197 0 .4728978-.207163.4728978-.4644813s-.2116781-.4644814-.4728978-.4644814-.4728977.2071631-.4728977.4644814.211678.4644813.4728977.4644813zm-1.3696245 1.0916838c.2589678 0 .468394-.2049823.468394-.46012 0-.2551376-.2094262-.46012-.468394-.46012s-.4683939.2049824-.4683939.46012c0 .2551377.2094261.46012.4683939.46012zm-.3152651-1.2795261c.2229375 0 .4053409-.1788145.4053409-.3968808 0-.220247-.1824034-.3968808-.4053409-.3968808-.2229376 0-.405341.1788144-.405341.3968808 0 .220247.1824034.3968808.405341.3968808zm-.0115072-1.1225621c.191411 0 .3467917-.1526464.3467917-.3423641 0-.1875371-.1553807-.3423642-.3467917-.3423642s-.3467917.1526464-.3467917.3423642c0 .1897177.1553807.3423641.3467917.3423641zm.1910056-.9336075c.1643883 0 .2949982-.1308398.2949982-.2900282 0-.1591885-.1328618-.2900283-.2949982-.2900283-.1643882 0-.2949981.1308398-.2949981.2900283 0 .1591884.1306099.2900282.2949981.2900282zm1.1810284-.1558084c.1936629 0 .3512955-.1548271.3512955-.3445448 0-.1897178-.1576326-.3445449-.3512955-.3445449s-.3512955.1548271-.3512955.3445449c0 .1897177.1576326.3445448.3512955.3445448zm1.2962578-.4893409c.2251894 0 .4098447-.1809951.4098447-.4012421 0-.2224277-.1824034-.4012421-.4098447-.4012421-.2251894 0-.4098448.1809951-.4098448.4012421 0 .2224277.1824035.4012421.4098448.4012421zm.308577 1.2732459c.2567159 0 .4661421-.2049824.4661421-.4579394s-.2094262-.4579394-.4661421-.4579394-.4661421.2049824-.4661421.4579394.2071743.4579394.4661421.4579394zm-1.5886212.3388969c.2251894 0 .405341-.1788144.405341-.3990614 0-.2202471-.1824035-.3990615-.405341-.3990615-.2251894 0-.4053409.1788144-.4053409.3990615-.0022519.220247.1801515.3990614.4053409.3990614zm-4.48052602-.5914832c.48415722 0 .87823868-.3859775.87823868-.8613621 0-.4753847-.39408146-.8613622-.87823868-.8613622s-.87823868.3859775-.87823868.8613622c0 .4753846.39408146.8613621.87823868.8613621zm1.99348922-1.538589c.4166004 0 .7521326-.3314609.7521326-.739245s-.3377841-.739245-.7521326-.739245c-.4166004 0-.7521326.3314609-.7521326.739245 0 .4099648.3377841.739245.7521326.739245zm-.7779168-1.8969375c.4143485 0 .7476288-.3292802.7476288-.7348836 0-.4056035-.3355322-.7348837-.7476288-.7348837-.41434851 0-.7476401.3292802-.7476401.7348837-.00224063.4056034.33329159.7348836.7476401.7348836zm1.9218339-.8988041c.3535474 0 .6417898-.2813056.6417898-.6302118s-.2882424-.6302118-.6417898-.6302118c-.3535473 0-.6417898.2813056-.6417898.6302118s.2882425.6302118.6417898.6302118zm.7849878 1.8924453c.3557992 0 .6440417-.2834863.6440417-.6323925 0-.3489061-.2882425-.6323924-.6440417-.6323924-.3557993 0-.6440417.2834863-.6440417.6323924 0 .3489062.2882424.6323925.6440417.6323925zm1.7491587-.3929774c.3017538 0 .5472102-.239873.5472102-.5386239 0-.2965703-.2454564-.5386239-.5472102-.5386239s-.5472103.239873-.5472103.5386239c-.0022519.2965702.2432046.5386239.5472103.5386239zm1.5102327.0047975c.2612197 0 .4728978-.2071631.4728978-.4623007 0-.2551377-.2116781-.4623007-.4728978-.4623007s-.4728977.207163-.4728977.4623007c.0022519.2551376.2139299.4623007.4728977.4623007zm1.2483375.2784707c.2184337 0 .3985853-.1744531.3985853-.3903388s-.1778997-.3903388-.3985853-.3903388c-.2184337 0-.3985852.1744531-.3985852.3903388.0022519.213705.1801515.3903388.3985852.3903388zm.1626768-1.4245403c.191411 0 .3467917-.1526465.3467917-.3401835 0-.1875371-.1553807-.3401836-.3467917-.3401836s-.3467917.1526465-.3467917.3401836c0 .187537.1553807.3401835.3467917.3401835zm-.9598023-.4662041c.2206857 0 .4008372-.1766337.4008372-.3947001s-.1801515-.3947001-.4008372-.3947001c-.2206856 0-.4008371.1766337-.4008371.3947001s.1778996.3947001.4008371.3947001zm-1.2338577-.2824832c.2589678 0 .4683939-.207163.4683939-.46012 0-.2551376-.2094261-.46012-.4683939-.46012-.2589679 0-.468394.207163-.468394.46012 0 .2551377.2094261.46012.468394.46012zm-1.5079133.0018318c.3040057 0 .5494621-.2420537.5494621-.5386239 0-.2965703-.2454564-.5386239-.5494621-.5386239s-.5494622.2420536-.5494622.5386239c.0022519.2987509.2477084.5386239.5494622.5386239zm-2.0310959-1.3469741c.3445398 0 .6215228-.272583.6215228-.6105858 0-.33800288-.2792349-.61058584-.6215228-.61058584-.3445398 0-.6215227.27258296-.6215227.61058584 0 .3380028.2792348.6105858.6215227.6105858zm1.7480778-.3700368c.3040057 0 .5494622-.2420537.5494622-.5386239 0-.29657028-.2454565-.53862395-.5494622-.53862395s-.5494621.24205367-.5494621.53862395c0 .2965702.2454564.5386239.5494621.5386239zm1.5101877.0069781c.2612197 0 .4728978-.207163.4728978-.4644813 0-.25731835-.2116781-.4644814-.4728978-.4644814s-.4728977.20716305-.4728977.4644814c0 .2551376.211678.4644813.4728977.4644813zm1.2389471.2763337c.2206856 0 .3985852-.1744531.3985852-.3903388s-.1778996-.3903388-.3985852-.3903388-.3985853.1744531-.3985853.3903388c0 .213705.1801516.3903388.3985853.3903388zm.9521233.4787647c.1959148 0 .3557993-.1570078.3557993-.3489062 0-.194079-.1598845-.3489062-.3557993-.3489062s-.3557992.1570078-.3557992.3489062.1598844.3489062.3557992.3489062zm.6984024.5492001c.1621364 0 .2927463-.1286591.2927463-.2878476 0-.1591884-.1306099-.2878476-.2927463-.2878476-.1621363 0-.2927462.1286592-.2927462.2878476-.0022519.1591885.1306099.2878476.2927462.2878476z" />
</svg>
