<svg viewBox="0 0 32 32" xmlns="http://www.w3.org/2000/svg"><path d="m19.6360545 9.79578059c.488661 0 .8849944-.40281294.8849944-.89789029 0-.49507736-.3963334-.8978903-.8849944-.8978903-.488661.00225035-.8849944.40506329-.8849944.90014065 0 .49507735.3963334.89563994.8849944.89563994zm.260972 2.33363711c.4143485 0 .7498807-.3398031.7498807-.7606188 0-.4185654-.3355322-.7606189-.7498807-.7606189s-.7498807.3398031-.7498807.7606189c0 .4208157.3355322.7606188.7498807.7606188zm2.0583438.2970014c.4120966 0 .7476288-.3398031.7476288-.7583685s-.3355322-.7583685-.7476288-.7583685-.7476289.3398031-.7476289.7583685.3355323.7583685.7476289.7583685zm-.2471904 1.996512c.3535473 0 .6395379-.2902954.6395379-.6481013s-.2859906-.6481012-.6395379-.6481012c-.3535474 0-.6395379.2902953-.6395379.6481012s.2859905.6481013.6395379.6481013zm1.6477784.6474712c.3557993 0 .6440417-.2925458.6440417-.652602 0-.3600563-.2882424-.652602-.6440417-.652602s-.6440417.2925457-.6440417.652602c0 .3600562.2882424.652602.6440417.652602zm-3.7186202-.9176259c.3625549 0 .6553012-.2970464.6553012-.6638538 0-.3668073-.2927463-.6638537-.6553012-.6638537-.362555 0-.6553012.2970464-.6553012.6638537 0 .364557.2927462.6638538.6553012.6638538zm-.593847 1.5886807c.3040057 0 .5494622-.249789.5494622-.5558368 0-.3082982-.2454565-.5558369-.5494622-.5558369s-.5494621.249789-.5494621.5558369c0 .3060478.2454564.5558368.5494621.5558368zm2.0607983.2807989c.3017538 0 .5449584-.2475387.5449584-.5535865s-.2432046-.5535865-.5449584-.5535865-.5449583.2475387-.5449583.5535865c-.0022519.3060478.2432045.5535865.5449583.5535865zm1.6431396.6450183c.3040057 0 .5494621-.2497891.5494621-.5580872 0-.3082982-.2454564-.5580872-.5494621-.5580872s-.5494622.249789-.5494622.5580872c0 .3082981.2454565.5580872.5494622.5580872zm-.8117178 1.2050858c.256716 0 .4638902-.2115331.4638902-.4703235 0-.2587905-.2071742-.4703235-.4638902-.4703235-.2567159 0-.4638901.211533-.4638901.4703235 0 .2587904.2071742.4703235.4638901.4703235zm-1.650886-.6347342c.2612197 0 .4751496-.2160338.4751496-.4815753s-.211678-.4815752-.4751496-.4815752-.4751497.2160337-.4751497.4815752.21393.4815753.4751497.4815753zm-2.0580735-.294076c.2589678 0 .4706458-.2137834.4706458-.4770745 0-.2632912-.2094261-.4770746-.4706458-.4770746-.2589679 0-.4706459.2137834-.4706459.4770746 0 .2632911.2094261.4770745.4706459.4770745zm1.1439621 1.1319719c.2274413 0 .4098448-.1867792.4098448-.4140647 0-.2295359-.1824035-.4140647-.4098448-.4140647s-.4098447.1867792-.4098447.4140647c0 .2295359.1824034.4140647.4098447.4140647zm1.6502556.6452433c.2274413 0 .4143485-.1867792.4143485-.4185654s-.1846554-.4185654-.4143485-.4185654c-.2274413 0-.4143485.1867792-.4143485.4185654.0022518.2317862.1869072.4185654.4143485.4185654zm-.9295144.4842082c.1801516 0 .3265247-.1485232.3265247-.3308017s-.1463731-.3308017-.3265247-.3308017c-.1801515 0-.3265246.1485232-.3265246.3308017.0022519.1822785.1463731.3308017.3265246.3308017zm-.8804455.2596906c.1643883 0 .2949981-.1350211.2949981-.2992968 0-.166526-.1328617-.2992968-.2949981-.2992968-.1643883 0-.2949981.1350211-.2949981.2992968-.0022519.166526.1306098.2992968.2949981.2992968zm-.7711836-.8605795c.1936629 0 .3512954-.159775.3512954-.3555556s-.1576325-.3555555-.3512954-.3555555-.3512955.1597749-.3512955.3555555.1576326.3555556.3512955.3555556zm-1.1320046-.8158875c.2251894 0 .4098447-.1845288.4098447-.4140647s-.1824035-.4140647-.4098447-.4140647c-.2251895 0-.4098448.1845288-.4098448.4140647.0022519.2295359.1846553.4140647.4098448.4140647zm3.3563805 5.1854852c.4864091 0 .8804906-.4005626.8804906-.8933896s-.3940815-.8933895-.8804906-.8933895-.8804906.4005625-.8804906.8933895.3940815.8933896.8804906.8933896zm-2.2376621-1.1311392c.4053409 0 .7341175-.333052.7341175-.7448664 0-.4118143-.3287766-.7448664-.7341175-.7448664s-.7341175.3330521-.7341175.7448664c0 .4118144.3287766.7448664.7341175.7448664zm-1.2781525 1.6368157c.4098447 0 .7408731-.3353023.7408731-.7516174 0-.4140647-.3310284-.7516174-.7408731-.7516174-.4098448 0-.7408732.3353024-.7408732.7516174 0 .4140647.3310284.7516174.7408732.7516174zm-.3843308-3.0157187c.3535474 0 .6417898-.2902953.6417898-.6503516 0-.3600562-.2882424-.6503516-.6417898-.6503516s-.6417898.2902954-.6417898.6503516c0 .3578059.2882424.6503516.6417898.6503516zm-1.2755178 1.6588242c.3535473 0 .6395379-.2902953.6395379-.6481012s-.2859906-.6481013-.6395379-.6481013c-.3535474 0-.6395379.2902954-.6395379.6481013-.0022519.3578059.2859905.6481012.6395379.6481012zm-1.374331 1.126436c.3535474 0 .637286-.2902953.637286-.6458509 0-.3578059-.2859905-.6458509-.637286-.6458509-.3535473 0-.637286.2902954-.637286.6458509 0 .3555556.2859905.6458509.637286.6458509zm-1.143827-1.465969c.2995019 0 .5449583-.2475387.5449583-.5513362 0-.3037974-.2432045-.5513361-.5449583-.5513361-.299502 0-.5449584.2475387-.5449584.5513361.0022519.3037975.2454564.5513362.5449584.5513362zm1.376853-1.1309817c.3017538 0 .5449584-.2475387.5449584-.5513362 0-.3060478-.2432046-.5513361-.5449584-.5513361s-.5449583.2475387-.5449583.5513361c0 .3037975.2432045.5513362.5449583.5513362zm1.2848857-1.6587342c.3017538 0 .5449584-.2475387.5449584-.5535865s-.2432046-.5535865-.5449584-.5535865-.5449583.2475387-.5449583.5535865.2432045.5535865.5449583.5535865zm-1.9652054.2284557c.2612197 0 .4728978-.2137834.4728978-.4793249s-.2116781-.4793249-.4728978-.4793249-.4728977.2137834-.4728977.4793249.211678.4793249.4728977.4793249zm-1.3696245 1.126571c.2589678 0 .468394-.211533.468394-.4748242 0-.2632911-.2094262-.4748242-.468394-.4748242s-.4683939.2115331-.4683939.4748242c0 .2632912.2094261.4748242.4683939.4748242zm-.3152651-1.3204163c.2229375 0 .4053409-.1845288.4053409-.409564 0-.2272855-.1824034-.409564-.4053409-.409564-.2229376 0-.405341.1845288-.405341.409564 0 .2272855.1824034.409564.405341.409564zm-.0115072-1.158436c.191411 0 .3467917-.1575246.3467917-.3533052 0-.1935303-.1553807-.3533052-.3467917-.3533052s-.3467917.1575246-.3467917.3533052.1553807.3533052.3467917.3533052zm.1910056-.963443c.1643883 0 .2949982-.1350211.2949982-.2992968s-.1328618-.2992968-.2949982-.2992968c-.1643882 0-.2949981.1350211-.2949981.2992968s.1306099.2992968.2949981.2992968zm1.1810284-.1607877c.1936629 0 .3512955-.1597749.3512955-.3555555s-.1576326-.3555556-.3512955-.3555556-.3512955.159775-.3512955.3555556.1576326.3555555.3512955.3555555zm1.2962578-.5049789c.2251894 0 .4098447-.1867792.4098447-.4140647 0-.2295358-.1824034-.4140647-.4098447-.4140647-.2251894 0-.4098448.1867792-.4098448.4140647 0 .2295359.1824035.4140647.4098448.4140647zm.308577 1.3139353c.2567159 0 .4661421-.211533.4661421-.4725738s-.2094262-.4725738-.4661421-.4725738-.4661421.211533-.4661421.4725738.2071743.4725738.4661421.4725738zm-1.5886212.3497272c.2251894 0 .405341-.1845289.405341-.4118144s-.1824035-.4118143-.405341-.4118143c-.2251894 0-.4053409.1845288-.4053409.4118143-.0022519.2272855.1801515.4118144.4053409.4118144zm-4.48052602-.6103854c.48415722 0 .87823868-.3983122.87823868-.8888889 0-.4905766-.39408146-.8888889-.87823868-.8888889s-.87823868.3983123-.87823868.8888889c0 .4905767.39408146.8888889.87823868.8888889zm1.99348922-1.5877581c.4166004 0 .7521326-.3420534.7521326-.7628692 0-.4208157-.3377841-.7628692-.7521326-.7628692-.4166004 0-.7521326.3420535-.7521326.7628692 0 .4230661.3377841.7628692.7521326.7628692zm-.7779168-1.9575584c.4143485 0 .7476288-.339803.7476288-.7583684s-.3355322-.7583685-.7476288-.7583685c-.41434851 0-.7476401.3398031-.7476401.7583685-.00224063.4185654.33329159.7583684.7476401.7583684zm1.9218339-.9275274c.3535474 0 .6417898-.2902953.6417898-.6503516s-.2882424-.6503516-.6417898-.6503516c-.3535473 0-.6417898.2902953-.6417898.6503516s.2882425.6503516.6417898.6503516zm.7849878 1.9529227c.3557992 0 .6440417-.2925457.6440417-.652602s-.2882425-.652602-.6440417-.652602c-.3557993 0-.6440417.2925457-.6440417.652602s.2882424.652602.6440417.652602zm1.7491587-.4055359c.3017538 0 .5472102-.2475387.5472102-.5558368 0-.3060479-.2454564-.5558369-.5472102-.5558369s-.5472103.2475387-.5472103.5558369c-.0022519.3060478.2432046.5558368.5472103.5558368zm1.5102327.0049508c.2612197 0 .4728978-.2137834.4728978-.4770746 0-.2632911-.2116781-.4770745-.4728978-.4770745s-.4728977.2137834-.4728977.4770745c.0022519.2632912.2139299.4770746.4728977.4770746zm1.2483375.2873699c.2184337 0 .3985853-.1800282.3985853-.402813s-.1778997-.4028129-.3985853-.4028129c-.2184337 0-.3985852.1800281-.3985852.4028129.0022519.2205345.1801515.402813.3985852.402813zm.1626768-1.4700647c.191411 0 .3467917-.1575246.3467917-.3510549 0-.1935302-.1553807-.3510548-.3467917-.3510548s-.3467917.1575246-.3467917.3510548c0 .1935303.1553807.3510549.3467917.3510549zm-.9598023-.4811027c.2206857 0 .4008372-.1822785.4008372-.4073136 0-.2250352-.1801515-.4073137-.4008372-.4073137-.2206856 0-.4008371.1822785-.4008371.4073137 0 .2250351.1778996.4073136.4008371.4073136zm-1.2338577-.2915105c.2589678 0 .4683939-.2137834.4683939-.4748242 0-.2632912-.2094261-.4748242-.4683939-.4748242-.2589679 0-.468394.2137834-.468394.4748242 0 .2632911.2094261.4748242.468394.4748242zm-1.5079133.0018903c.3040057 0 .5494621-.2497891.5494621-.5558369s-.2454564-.5558368-.5494621-.5558368-.5494622.249789-.5494622.5558368c.0022519.3082982.2477084.5558369.5494622.5558369zm-2.0310959-1.3900197c.3445398 0 .6215228-.281294.6215228-.6300985s-.2792349-.63009844-.6215228-.63009844c-.3445398 0-.6215227.28129394-.6215227.63009844s.2792348.6300985.6215227.6300985zm1.7480778-.3818622c.3040057 0 .5494622-.249789.5494622-.5558369 0-.30604777-.2454565-.5558368-.5494622-.5558368s-.5494621.24978903-.5494621.5558368c0 .3060479.2454564.5558369.5494621.5558369zm1.5101877.0072011c.2612197 0 .4728978-.2137834.4728978-.4793249 0-.26554146-.2116781-.47932487-.4728978-.47932487s-.4728977.21378341-.4728977.47932487c0 .2632912.211678.4793249.4728977.4793249zm1.2389471.2851646c.2206856 0 .3985852-.1800282.3985852-.402813s-.1778996-.4028129-.3985852-.4028129-.3985853.1800281-.3985853.4028129c0 .2205345.1801516.402813.3985853.402813zm.9521233.4940647c.1959148 0 .3557993-.1620253.3557993-.3600563 0-.2002813-.1598845-.3600562-.3557993-.3600562s-.3557992.1620253-.3557992.3600562c0 .198031.1598844.3600563.3557992.3600563zm.6984024.566751c.1621364 0 .2927463-.1327707.2927463-.2970464s-.1306099-.2970464-.2927463-.2970464c-.1621363 0-.2927462.1327707-.2927462.2970464-.0022519.1642757.1306099.2970464.2927462.2970464z" fill-rule="evenodd"/></svg>
