<svg viewBox="0 0 32 32" xmlns="http://www.w3.org/2000/svg" xmlns:xlink="http://www.w3.org/1999/xlink">
  <path fill="url(#gradient-red-yellow)" fill-rule="evenodd"
    d="m12.6950673 18.1309417v3.3578475l.0286995.0143498.258296.129148.2439462.1219731.2582959.1363229.516592.2582959.2582959.129148.258296.1363229.258296.1219731.2582959.129148.2511211.1363228.258296.1219731.2582959.1363229.1363229.064574.1147982-.0430494.258296-.1076233.2582959-.1004484.258296-.1076233.2295964-.0932736.0215247.0430494.2582959.6457399-.2582959.1004484-.2511211.1004484-.258296.1076234-.2582959.1076233-.258296.0932735-.1506726.0717489-.1004485-.0573991-.2582959-.1219731-.258296-.1363229-.2511211-.1219731-.2582959-.1363228-.516592-.258296-.2582959-.129148-.258296-.129148-.258296-.1291479-.2582959-.129148-.2439462-.1363229-.258296-.1219731-.2582959-.1363229-.258296-.1291479-.258296-.1219731v-3.8170404zm5.8260089-1.6932735-.4233184.444843-.4304932.4520179-.4376682.4591929-.4376681.4520179-.4304933.4591928-.0789238.0717489v1.7004484l.0789238.0573991.4304933.3300449.4376681.3372197.4376682.3300449.4304932.3372197.1793722.1363229.258296-.1865471.4376682-.3085202.4304932-.3156951.4376682-.3085201.4376682-.3085202.4376681-.3156951.4376682-.3156951.4376682-.3013453.0645739-.0573991-.0143497-1.5784753.3874439.0143498.4304933.0143498-.0717489 1.9372197-.3587444.2654708-.4376681.3156951-.4376682.3013453-.4376682.3156951-.4376681.315695-.4376682.3013453-.4376682.3156951-.4304932.3156951-.4376682.3013453-.2798206.2008968-.1578476-.1219731-.4304932-.3372197-.4376682-.3300449-.4376681-.3372197-.4304933-.3300448-.4448431-.3372198-.3730941-.2941704v-2.0591928l-.064574-.064574-.4304933-.4520179-.4376682-.4591928-.4376681-.452018-.4304933-.4520179-.4376682-.4591928zm-3.7237668-.5524664-2.2833094-.9832018-.0772287-.0284574-.1219731-.0430493h-.0071749l-.2726457.1363228-.2726458.1434978-.2798206.129148-.2798206.1363229-.2654709.1434977-.5596412.2726458-.2726458.1363228-.27982059.1363229-.05022422.0286995-.02152466 3.329148.07174888.0430494.27982059.2008968.2726458.193722.2798206.193722.2798206.1937219.2654709.193722.0286995.0215247-.0286995.0358744-.2654709.3587444-.1578475.2008969-.1219731-.0932736-.2798206-.193722-.2726458-.1937219-.27982059-.2008969-.27264574-.1865471-.27264574-.1937219-.27982063-.193722.02869955-4.1112108.25112108-.129148.27264574-.1506726.27264574-.1363229.27982059-.1434977.2726458-.1506727.2798206-.1363229.2798206-.1506726.2654709-.1434978.2798206-.1363228.2798206-.1506727.2726458-.1434977.1147982-.0573991h2.6475336zm6.6367713-4.8860987.1363229.1004485.1865471.1506726.1793722.1434978.1793722.1434977.1865471.1434978.1793721.1434977.1793722.1434978.1793722.1506727.1793722.1434977.1793722.1434978v4.1470852l-.1793722.1147982-.1793722.1076233-.1793722.1219731-.1793722.1076233-.1793721.1147982-.1865471.1076233-.1793722.1147982-.1793722.1076234-.1865471.121973-.1865471.1076234-.1793722.1147982-.1793722.1076233-.1793722.1147982-.1793722.1076233-.1793722.1219731-.1865471.1076233-.1793722.1147982-.1793722.1076234-.1506726.0932735-.0286996-.0502242-.186547-.2869955-.1793722-.2869956.1793722-.1147982.186547-.1147982.1793722-.1147982.1793722-.1147982.1793722-.1147982.1865471-.1147982.1793722-.1147982.1793722-.1147982.1793722-.1147982.1793722-.1147982.1793722-.1147982.1865471-.1147982.1865471-.1147982.1793722-.1147982.1793722-.1147982.1865471-.1147983.0932735-.0645739-.0071749-3.393722-.0860986-.0717489-.1865471-.1506726-.1793722-.1506727-.1793722-.1578475-.1865471-.1506727-.1865471-.1506726-.1793722-.1506727-.1793722-.1506726-.0502242-.0502242.0502242-.0573991.1793722-.2295964.1793722-.2224216zm-5.4672646-2.9991031.1506727.08609865.2798206.15784754.2726458.15784753.2726457.16502242.2798206.16502243.2798207.15784753.2726457.16502242.2798206.16502242.2726458.16502242.2798206.15784754.2798206.15784753.2726458.17219731.5596412.31569506.2726458.1721973v4.4412556l-.2367713.1004485-.2439462.0932735-.2367713.1004484-.2439462.0932736-.2439462.1004484-.2367713.0932735-.2439462.1004485-.2439462.1004484-.2367713.0932735-.2439462.1004485-.2439462.0932735-.0573991.0215247v-1.8439462l.0141794.0035695.0001704-.0035695h1.9587444v-3.2717489l-.0932735-.0502242-.2726458-.1578475-.2798206-.1721973-.2798206-.1578476-.2726458-.1578475-.2798206-.16502243-.2726457-.16502242-.2798207-.15784754-.2798206-.16502242-.2726457-.16502242-.2726458-.15784753-.2798206-.15784754-.1721973-.10044843-.1076233.0573991-.2798207.14349776-.2798206.15067265-.2654708.14349776-.1076234.0573991-.1721973-.10762332-.2798206-.15784753-.2798206-.15784754.2798206-.15784753.2798206-.14349776.2798207-.15067264.2654708-.15784754.2798206-.14349776.2798207-.15067264zm-2.812556 1.28430493.0143498.00717489.3372197.19372197.3515695.20089686.3443946.19372198.3443946.19372197.3443947.2008969.3443946.1937219.3443946.193722.3515695.193722.3443946.2008968-.3443946.6242153-.0143498.0286995-.3372197-.1937219-.3443946-.2008969-.3443946-.193722-.3443947-.1937219-.3443946-.193722-.3443946-.2008969-.3515695-.1937219-.3300448-.193722h-.0071749l-.3515695.2152466-.3443947.2152467-.3515695.2080717-.6887892.4233184-.3443946.2080717-.3443946.2152467-.3443947.2080717-.3515695.2080718-.2798206.1793722-.00717488 2.109417h-.05022422l-.35156951-.0071749h-.34439461l.01434977-2.5183856.33004484-.2080718.35156951-.2080717.3372197-.2080718.3515695-.2152466.3443947-.2080718.3443946-.2152466.3443946-.2080717.3515695-.2080718.3372197-.21524663.3515695-.21524664.3443947-.21524664z" />
</svg>
