<svg viewBox="0 0 32 32" xmlns="http://www.w3.org/2000/svg">
  <path fill="url(#gradient-red-yellow)" fill-rule="evenodd"
    d="m12.6432542 18.1674167v3.369937l.0282971.0144015.2546741.1296129.2405255.1224123.254674.1368137.5093483.2592259.254674.1296129.2546741.1368137.2546741.1224123.254674.129613.2475999.1368136.2546741.1224122.254674.1368137.1344113.0648065.1131885-.0432044.2546741-.1080107.254674-.1008101.2546741-.1080108.226377-.0936094.0212229.0432044.254674.6480648-.254674.10081-.2475999.1008101-.2546741.1080109-.254674.1080108-.2546741.0936093-.1485598.0720072-.09904-.0576058-.254674-.1224122-.2546741-.1368137-.2475999-.1224123-.254674-.1368136-.5093482-.2592259-.254674-.129613-.2546741-.129613-.2546742-.1296129-.254674-.1296129-.2405255-.1368138-.2546741-.1224122-.254674-.1368137-.2546741-.1296129-.2546742-.1224122v-3.8307832zm5.7443153-1.6993699-.4173826.4464446-.4244567.4536454-.4315311.4608461-.431531.4536454-.4244568.460846-.0778172.0720072v1.7065707l.0778172.0576057.4244568.3312332.431531.3384338.4315311.3312332.4244567.3384338.176857.1368137.2546742-.1872187.4315311-.309631.4244567-.3168317.4315311-.3096309.4315311-.309631.431531-.3168317.4315312-.3168317.4315311-.3024303.0636684-.0576057-.0141485-1.5841584.3820111.0144015.4244568.0144014-.0707428 1.9441944-.353714.2664266-.431531.3168317-.4315311.3024303-.4315312.3168317-.431531.3168316-.4315311.3024302-.4315311.3168318-.4244567.3168317-.4315311.3024302-.2758969.2016201-.1556343-.1224122-.4244567-.3384338-.4315311-.3312332-.431531-.3384338-.4244568-.3312331-.4386054-.3384339-.3678625-.2952295v-2.0666067l-.0636686-.0648065-.4244568-.4536453-.4315311-.460846-.431531-.4536455-.4244568-.4536453-.4315312-.4608461zm-3.6715513-.5544554-2.2512923-.9867417-.0761458-.0285599-.1202628-.0432043h-.0070743l-.2688226.1368136-.2688227.1440145-.2758968.129613-.2758969.1368137-.2617484.1440143-.5517938.2736274-.2688227.1368137-.2758969.1368137-.04951997.0288028-.02122283 3.3411341.0707428.0432044.2758969.2016201.2688227.1944195.2758969.1944195.2758969.1944193.2617484.1944195.028297.0216022-.028297.0360036-.2617484.360036-.1556342.2016202-.1202627-.0936095-.2758969-.1944194-.2688227-.1944194-.2758969-.2016202-.26882264-.1872187-.26882264-.1944194-.27589692-.1944195.02829712-4.1260126.2475998-.129613.26882264-.1512151.26882264-.1368137.2758969-.1440143.2688227-.1512152.2758969-.1368137.2758969-.1512151.2617484-.1440144.2758969-.1368136.2758968-.1512152.2688227-.1440144.1131885-.0576057h2.6104093zm6.543709-4.9036904.1344113.1008101.1839313.1512151.176857.1440144.176857.1440144.1839313.1440144.1768569.1440144.176857.1440144.176857.1512152.176857.1440143.176857.1440145v4.1620162l-.176857.1152115-.176857.1080108-.176857.1224122-.176857.1080108-.1768569.1152115-.1839313.1080108-.176857.1152115-.176857.1080109-.1839313.1224121-.1839313.1080109-.176857.1152115-.176857.1080108-.176857.1152115-.176857.1080108-.176857.1224123-.1839313.1080107-.176857.1152115-.176857.1080109-.1485598.0936093-.0282972-.050405-.1839312-.2880288-.176857-.2880289.176857-.1152115.1839312-.1152115.176857-.1152115.176857-.1152115.176857-.1152115.1839313-.1152115.176857-.1152116.176857-.1152115.176857-.1152115.176857-.1152115.176857-.1152115.1839313-.1152115.1839313-.1152115.176857-.1152116.176857-.1152115.1839313-.1152116.0919656-.0648064-.0070743-3.4059406-.0848913-.0720072-.1839313-.1512151-.176857-.1512152-.176857-.1584158-.1839313-.1512152-.1839313-.151215-.176857-.1512152-.176857-.1512151-.0495199-.050405.0495199-.0576058.176857-.230423.176857-.2232224zm-5.3906014-3.009901.1485599.08640864.2758969.15841584.2688227.15841584.2688226.16561656.2758969.16561657.275897.15841584.2688226.16561656.2758969.16561656.2688227.16561656.2758969.15841585.2758969.15841584.2688227.17281728.5517937.31683166.2688227.1728173v4.4572457l-.2334512.1008102-.2405255.0936093-.2334513.10081-.2405255.0936094-.2405255.1008101-.2334513.0936093-.2405255.1008102-.2405255.10081-.2334513.0936093-.2405255.1008102-.2405255.0936093-.0565943.0216022v-1.8505851l.0139806.0035824.000168-.0035824h1.9312785v-3.2835283l-.0919656-.0504051-.2688227-.1584158-.2758969-.1728173-.2758969-.1584159-.2688227-.1584158-.2758969-.16561654-.2688226-.16561656-.275897-.15841585-.2758969-.16561656-.2688226-.16561656-.2688227-.15841583-.2758969-.15841585-.1697827-.10081008-.1061142.05760575-.275897.14401441-.2758968.15121512-.2617483.14401441-.1061143.05760575-.1697827-.1080108-.2758969-.15841584-.2758969-.15841584.2758969-.15841584.2758969-.14401441.275897-.15121511.2617483-.15841585.2758968-.1440144.275897-.15121512zm-2.7731177 1.28892889.0141486.00720072.3324911.19441944.3466397.20162016.3395654.19441945.3395655.19441944.3395655.2016202.3395654.1944194.3395654.1944194.3466397.1944195.3395655.2016201-.3395655.6264627-.0141485.0288028-.3324912-.1944193-.3395654-.2016202-.3395654-.1944195-.3395655-.1944194-.3395655-.1944194-.3395654-.2016202-.3466397-.1944194-.3254168-.1944195h-.0070743l-.3466397.2160216-.3395655.2160217-.3466398.2088208-.6791308.4248425-.3395654.2088208-.3395654.2160217-.3395655.2088208-.3466398.2088209-.27589685.1800181-.00707427 2.1170116h-.04951997l-.34663972-.0072007h-.33956543l.01414856-2.5274527.32541687-.2088209.34663972-.2088209.33249109-.2088209.3466398-.2160216.3395655-.2088209.3395654-.2160216.3395654-.2088208.3466397-.2088209.3324911-.21602164.3466398-.2160216.3395655-.21602161z" />
</svg>
