<svg viewBox="0 0 32 32" xmlns="http://www.w3.org/2000/svg"><path d="m21.4405609 8.16070465c.2652664.08956855.5358381.21383192.8773236.39645381.0233014.01246127.0543955.02939582.0911509.04959155l.0591128.03258797.798128.44574587c.0691814.02829172.1249355.08783153.1440972.1652529l.0071544.05944658v10.06246947c0 2.200411-.4265893 3.0814316-1.7087096 3.9152715-.207975.1352586-1.0470972.6359506-1.1145592.6756682l-.0021338.001154-.0551892.0249881c-.0780949.0242337-.1598916.0057783-.2203043-.041258l-8.7482451-5.0804769c-.8311249-.4784235-1.4010629-.9166446-1.78519061-1.3710035-.57949336-.6854436-.72027365-1.2283078-.76359672-2.5814072l-.00706432-.2634337-.01251537-.500888c-.00010252-.0147826.00019169-.0215922.00076692-.028381l-.00076692.028381c-.00071316-.0230328.0016741-.0450744.00671368-.0658572.00162588-.0060087.00336182-.0121084.00533855-.0181419.00418736-.0132248.00953858-.0256677.0158315-.0374705.00370874-.0069055.00777005-.0137526.01219688-.020417.00632248-.009374.01314303-.0181501.02050425-.0263982.00263301-.0031188.00523786-.0058997.00792139-.0086293l.01271037-.0118822c.00920485-.0081229.01900162-.0155414.02928859-.0221948l.01119871-.0068287 8.770292-5.0307534c1.5566167-.89512881 2.5302724-1.08541445 3.5485454-.74158945zm-1.220665 5.63729535-1.71 1.016v2.098l.0010282.0048445v2.4504932c0 .1245067-.0898989.2178487-.1977248.2385237l-.0550737.0040898-.0560623-.0091743-.0550517-.023591-8.6515196-5.0071582.00831694.3160634c.03426146 1.0993527.12987688 1.5889269.48234677 2.0834149l.07953199.1062609.0878223.1077555c.3047211.3604341.7553933.7209678 1.4046882 1.1149102l.252899.1493595 8.4088924 4.8828059zm.2413733-.6708626c.0968474.0015148.1786812.0513889.2197693.1292706l.0203646.0533655.0072413.0598241-.000825 9.9600306.6848018-.4155652.1898743-.1255007c.9828629-.6788482 1.3207294-1.3925658 1.3482512-3.1675865l.0018607-.248723-.0009435-9.64269963-8.3047452 4.80071103 1.7289772.9997358 1.678-.997c.006382-.0228737.0147171-.0425692.0254487-.0608587l.039097-.0501618.0517558-.0387952 2.1928052-1.2252467.0178933-.0049376.0365638-.0161764c.0186815-.0056168.0375549-.0088033.0562804-.0097531zm-2.0921265-3.93686455-.2356202.13252333-8.4062386 4.82050162 8.2979563 4.8026508v-1.8892496l-1.7763443-1.028699-.0153795-.0058683-2.2117632-1.2821205c-.141109-.0817985-.1586363-.2703484-.0526985-.3786997l.0529607-.0409811.5998805-.3473304 8.0595492-4.65950846-.5290657-.29445211-.2469758-.13024149c-.2348446-.11930786-.4313436-.20496469-.6199738-.26865663-.8195847-.27673689-1.6118558-.14617288-2.9162871.57013154zm-.3432468 5.91072715-1.19.707 1.19.688z" fill-rule="evenodd"/></svg>
