<svg viewBox="0 0 32 32" xmlns="http://www.w3.org/2000/svg">
  <path fill="url(#gradient-purple-green)" fill-rule="evenodd"
    d="m11.8722326 16.2577314c-2.1360031 0-3.86758557 1.7331718-3.86758557 3.8711343s1.73174972 3.8711343 3.86775277 3.8711343c2.1360031 0 3.8677528-1.7331718 3.8677528-3.8711343s-1.7315825-3.8711343-3.8677528-3.8711343zm0 6.5712968c-1.4885622 0-2.69630458-1.2081958-2.69630458-2.6988271 0-1.4906312 1.20724058-2.6988271 2.69630458-2.6988271 1.4890639 0 2.6964718 1.2081959 2.6964718 2.6988271-.0025089 1.4892959-1.2082442 2.6969909-2.6964718 2.6988271zm8.2600146-14.8288597c-2.136003 0-3.8677528 1.7331718-3.8677528 3.8711343s1.7317498 3.8711343 3.8677528 3.8711343c2.1360031 0 3.8677528-1.7331718 3.8677528-3.8711343s-1.7314152-3.87130122-3.8675855-3.87130122zm0 6.5712968c-1.4885621 0-2.6963045-1.2081959-2.6963045-2.6988271 0-1.4906313 1.2067388-2.69882712 2.6964718-2.69882712 1.4897329 0 2.6964718 1.20819582 2.6964718 2.69882712-.0025088 1.4899635-1.2090805 2.6961563-2.6964718 2.6986601zm-8.2600146-6.57146451c-1.8413012-.00116768-3.42871061 1.29683327-3.79466275 3.10311781-.36595213 1.8062845.59057449 3.6204144 2.28603005 4.3376868 1.7004576.7128262 3.668694.1317348 4.7069242-1.3896467 1.0382302-1.5213814.8591635-3.5620682-.4282279-4.88018532h1.0966856v-1.17097259zm2.696639 3.87113511c0 1.4904643-1.2072406 2.6988271-2.6964718 2.6988271s-2.69630453-1.2083628-2.69630453-2.6988271c0-1.4904644 1.20707333-2.69832636 2.69613733-2.69832636 1.4890639 0 2.695301 1.20869666 2.697977 2.69882706h-.001338z" />
</svg>
