<svg viewBox="0 0 32 32" xmlns="http://www.w3.org/2000/svg" xmlns:xlink="http://www.w3.org/1999/xlink">
  <path fill="url(#gradient-purple-blue)" fill-rule="evenodd"
    d="m15.9930662 8.0001824c4.3995277.02969742 7.954893 3.6191292 7.9215351 7.9974613-.0337712 4.4253874-3.6148192 7.9741992-8.0126347 7.9409003-4.4020664-.033417-7.93747602-3.6360738-7.90169742-8.0519557.03530627-4.3726052 3.62639112-7.91586716 7.99279702-7.8864059zm-.2242952.58332103c-3.9075424.06724724-7.2010627 3.39412547-7.19316549 7.38863467.00804375 4.0716753 3.29684079 7.3592325 7.37034629 7.3677502 4.0784059.0083679 7.4056384-3.3016247 7.3912791-7.3777871-.0149839-4.2451365-3.5261868-7.44814758-7.5684599-7.37859777zm2.1284133 3.92873797c-.1127675.3603838-.2179188.6965019-.2950849.9428192-.5479557-.0900369-1.0563542-.1980221-1.5702435-.248797-.3051218-.0301698-.6215203.0497122-.7400738.3940959-.1215646.3528856-.1360886.7288561.1558081 1.0008561.2990406.2786716.6512177.5000148.9792472.74769.3017565.2278377.6335646.4263322.8969447.6924281.7140369.7212989.8409742 1.5965166.5474834 2.5397491-.1740517.5591734-.5870996.9124723-1.1163985 1.12738-.8102731.3287971-2.1903469.167144-2.9646052-.3547749.116369-.338952.2365166-.6890627.3392472-.9881623.4939927.1301845.945358.2872915 1.4099484.3606789.4428634.0699631.9065092.0020665 1.1335203-.4505977.2286051-.4560296.1564575-.9372104-.2017417-1.3033211-.2764871-.2825682-.6231735-.4981254-.9463617-.7328118-.2159114-.1568118-.4569151-.2799705-.6666863-.4438671-.8423911-.6583026-1.1175793-1.7578746-.6905978-2.7381255.2052841-.4710849.5762362-.7762657 1.0634982-.8923395.90769-.2161476 1.7883985-.1181402 2.6660959.3470996zm-6.746214 2.3992916c.5063321.0076162.9040295.4164132.9013275.9263468-.0026707.5069816-.4087519.9173727-.9100655.9196257-.5058598.0023522-.9390996-.4393305-.9270554-.944836.0118081-.4956458.440738-.9085757.9357934-.9011365zm9.6493579.0251507c.5049152-.0005308.8807085.3726057.8873801.8810633.0067306.5230996-.4096827.9473062-.9231587.9399262-.5030258-.007262-.9057417-.4191882-.9054466-.9262288.0002953-.5300074.3834097-.8942288.9412252-.8947607z" />
</svg>
