<svg viewBox="0 0 32 32" xmlns="http://www.w3.org/2000/svg">
  <path fill="url(#gradient-purple-blue)" fill-rule="evenodd"
    d="m16.0358399 8.0001831c4.4230711.02981149 7.9974624 3.6330309 7.963926 8.0281809-.0339519 4.4423861-3.6341633 8.0048295-8.0555131 7.9714027-4.4256234-.0335454-7.97995224-3.6500406-7.94398218-8.0828847.03549521-4.3894011 3.64579718-7.94627333 8.03556928-7.9166989zm-.2254955.58556167c-3.928453.06750554-7.23959809 3.40716293-7.23167287 7.41701563.00810104 4.0873154 3.31449757 7.3875006 7.40980187 7.3960669 4.1002309.0083842 7.4452686-3.3143227 7.430879-7.4061423-.0151107-4.2614428-3.5451033-7.4767572-7.609008-7.40694023zm2.1398032 3.94382893c-.1133709.3617681-.2190849.6991773-.296664.9464407-.550888-.0903827-1.0620071-.1987827-1.5786464-.2497527-.3067546-.0302856-.6248463.0499032-.7440342.3956097-.1222151.3542411-.1368169.7316558.1566419 1.0047006.3006408.279742.6547026.5019354.9844875.750562.3033713.2287129.636955.4279698.9017445.6950878.717858.7240696.8454746 1.6026491.5504132 2.5495048-.1749831.5613212-.5902414.9159772-1.1223727 1.1317104-.8146092.3300601-2.2020682.167786-2.9804699-.3561376.1169918-.340254.2377823-.6917095.3410627-.991958.4966362.1306845.9504169.288395 1.4174935.3620643.4452333.0702318.9113602.0020744 1.1395862-.4523285.2298284-.4577813.1572947-.9408104-.2028213-1.3083274-.2779667-.2836536-.6265084-.5000388-.9514261-.7356267-.2170668-.1574141-.4593602-.2810459-.6702539-.445572-.8468991-.6608313-1.1235599-1.7646269-.6942935-2.7486431.2063827-.4728945.5793199-.7792475 1.0691894-.8957672.9125474-.2169778 1.7979688-.118594 2.6803631.3484329zm-6.7823153 2.4085077c.5090416.0076454.9088672.4180127.9061645.929905-.0026987.508929-.410953.9208965-.9149493.9231676-.5085668.0023518-.9441251-.4410275-.9320164-.9484747.0118713-.4975497.4430965-.9120657.9408012-.9045979zm9.700995.0252467c.5076171-.0005322.8854214.3740375.8921287.8844482.0067667.5251089-.411875.950945-.9280988.9435366-.5057177-.0072899-.9105886-.4207984-.9102921-.9297866.000297-.5320432.3854616-.8976637.9462622-.8981982z" />
</svg>
