<svg viewBox="0 0 32 32" xmlns="http://www.w3.org/2000/svg" xmlns:xlink="http://www.w3.org/1999/xlink">
  <path fill="url(#gradient-pink-yellow)" fill-rule="evenodd"
    d="m23.7959697 12.8201484c-.7397985-.6924909-1.7631864-1.7499768-2.5966927-2.4999669l-.0493199-.0349995c-.0820605-.0668046-.1745835-.1191961-.2737254-.154998-2.0097859-.37999491-11.36330475-2.15247139-11.54578838-2.12997169-.05113288.00725992-.10000841.02605431-.1430277.05499927l-.04685391.03749951c-.05769336.0593994-.10151245.13115923-.12823174.20999721l-.01232997.03249957v.17749764.02749964c1.0529798 2.97246055 5.2106473 12.70983135 6.0293576 14.99480105.0493199.1549979.1430277.449994.3181134.4649938h.0394559c.0937078 0 .493199-.5349929.493199-.5349929s7.1415214-8.7798835 7.8640579-9.7148711c.0935266-.1151709.1760944-.2390547.2465995-.3699951.0366063-.2083974-.0373491-.4209827-.1948136-.5599925zm-6.0836096 1.0224864 3.0479698-2.562466 1.7878463 1.6699778zm-1.1836775-.1674978-5.2476373-4.35994214 8.4904206 1.58747894zm.473471 1.1424848 5.370937-.8774883-6.1403274 7.4999005zm-6.4337808-5.06743271 5.5213627 4.74993701-.7989824 6.9449078z" />
</svg>
