<svg viewBox="0 0 32 32" xmlns="http://www.w3.org/2000/svg" xmlns:xlink="http://www.w3.org/1999/xlink">
  <path fill="url(#gradient-red-purple)" fill-rule="evenodd"
    d="M17.474 22.07c.54.133 1.022.433 1.273.79.245.35.35.655.46 1.332.043.267.09.535.104.596.082.351.242.632.44.772.316.224.858.238 1.391.036a.705.705 0 01.175-.053c.02.02-.25.194-.439.286a1.529 1.529 0 01-.727.171c-.489 0-.894-.241-1.233-.733a5.773 5.773 0 01-.333-.645c-.357-.791-.534-1.032-.948-1.296-.362-.23-.827-.27-1.178-.104-.46.22-.588.79-.259 1.152.131.144.376.268.575.292a.608.608 0 00.695-.597c0-.238-.094-.374-.331-.478-.324-.141-.672.024-.67.32 0 .126.057.205.187.262.083.036.085.04.017.026-.297-.06-.366-.408-.127-.639.286-.277.88-.154 1.083.224.086.159.096.475.02.666-.166.427-.653.652-1.147.53-.336-.083-.473-.173-.878-.579-.704-.704-.978-.84-1.993-.994l-.195-.03.222-.181c.743-.61 1.669-1.043 2.512-1.176a4.036 4.036 0 011.304.05zm3.585-3.561c.016 0 .078.033.14.073.123.08.369.215 1.025.562.818.433 1.284.768 1.601 1.151.278.336.45.718.533 1.184.047.264.02.898-.05 1.164-.22.838-.732 1.496-1.46 1.88a1.938 1.938 0 01-.214.103c-.01 0 .028-.096.086-.214.246-.497.274-.982.088-1.52-.113-.33-.345-.733-.812-1.413-.544-.791-.677-1.002-.81-1.28-.267-.556-.328-1.093-.182-1.593.015-.053.04-.097.055-.097zM8 7c.03 0 6.61 7.015 7.083 7.55l.13.149-.01.23c-.016.303-.114.505-.348.714-.27.241-.597.37-1.113.44-.316.04-.43.087-.558.224-.123.13-.17.294-.204.707-.052.64-.13.912-.442 1.547-.301.613-.362.845-.31 1.174.065.4.298.692.843 1.054.416.276.605.454.709.668.063.132.072.18.07.409-.001.35-.06.49-.306.746-.399.412-1.108.749-1.98.94-.365.08-.382.08-.382-.002 0-.103-.135-.366-.37-.72-.273-.41-.38-.615-.482-.926a2.375 2.375 0 01-.133-.965c.016-.35.056-.506.2-.784.113-.22.187-.321.64-.869.772-.935 1.05-1.481 1.15-2.255.089-.69.211-1.023.485-1.32.164-.178.2-.246.2-.375 0-.064-.26-.54-1.035-1.884a169.65 169.65 0 01-1.188-2.074l-.014-.027c-.01-.023-.004-.017.004-.01.015.015.586.867 1.267 1.893.891 1.341 1.277 1.9 1.373 1.989a.753.753 0 00.486.201c.145 0 .436-.079.578-.157.255-.14.31-.32.162-.52-.128-.171-1.999-2.402-3.915-4.673l-.36-.426c-.657-.78-1.309-1.55-1.884-2.227A8.464 8.464 0 018 7zm2.887 13.907c0 .044.025.075.08.103.095.047.102.1.028.208-.075.109-.07.205.017.27.138.105.334.047.436-.129a.4.4 0 00-.129-.536c-.169-.11-.432-.058-.432.084zm9.232-2.852l.095.104c.131.143.235.326.323.57.067.186.075.242.074.544 0 .298-.009.36-.07.528a1.66 1.66 0 01-.424.653c-.366.361-.836.561-1.516.644-.118.015-.462.04-.764.054-.763.039-1.265.119-1.715.272a.373.373 0 01-.129.03c-.018-.018.289-.195.542-.314.358-.167.714-.258 1.511-.387.394-.064.8-.141.904-.172.976-.29 1.477-1.04 1.317-1.966a3.385 3.385 0 00-.097-.412l-.051-.148zm-1.142-2.683c.007 0 .085.056.172.124.406.317.862.452 2.121.63.742.105 1.159.19 1.544.314 1.223.393 1.98 1.193 2.16 2.28.053.317.022.91-.063 1.223-.067.247-.272.692-.326.709-.015.004-.03-.052-.034-.128-.02-.409-.233-.807-.59-1.105-.407-.338-.953-.608-2.288-1.13-2.004-.783-2.71-1.463-2.71-2.61 0-.168.006-.307.014-.307zm-3.438.83c.154-.045.472-.016.621.058.29.143.5.468.455.703-.056.287-.535.517-1.086.52-.281.002-.385-.035-.493-.174-.066-.086-.091-.365-.047-.524.073-.261.308-.51.55-.582zm-.144.384c0 .126.217.263.416.263.132 0 .313-.077.372-.158.085-.117.048-.243-.097-.329-.275-.163-.691-.028-.691.224zm.105-5.23c.724.167 1.382.594 2.085 1.354l.187.202.267-.042c1.125-.176 2.27-.036 3.228.393.263.118.679.354.73.414.017.02.047.143.068.276.071.457.035.808-.109 1.07-.078.142-.083.188-.03.31a.31.31 0 00.276.169c.238 0 .494-.374.613-.893l.047-.207.093.103c.513.563.915 1.332.984 1.878l.018.143-.086-.13a1.623 1.623 0 00-.488-.497c-.343-.22-.707-.296-1.67-.345-.868-.045-1.36-.117-1.848-.271-.83-.263-1.249-.612-2.234-1.868-.438-.557-.709-.866-.978-1.114-.612-.565-1.213-.861-1.983-.977-.21-.032-.22-.035-.12-.05.19-.029.64.01.95.082zm6.96.206a.533.533 0 01-.041.146c-.076.219-.089.517-.036.865.066.441.104.505.585.981.225.224.487.505.582.626l.173.22-.173-.157c-.211-.192-.697-.567-.804-.62-.072-.037-.083-.036-.127.007-.041.04-.05.099-.056.38-.008.437-.07.717-.218.998-.08.152-.093.12-.02-.052.054-.128.06-.184.06-.607-.002-.851-.106-1.056-.716-1.406a6.798 6.798 0 00-.566-.284 2.164 2.164 0 01-.277-.132c.017-.016.613.152.852.242.356.133.415.15.459.134.029-.01.043-.093.057-.334.022-.373.074-.62.179-.845a.91.91 0 01.086-.162zm-7.998.15l.097.018c.184.033.5.147.648.234.406.24.582.555.76 1.364.053.237.122.505.154.596.05.146.243.488.4.71.112.16.037.235-.212.213-.38-.033-.896-.378-1.228-.823-.429-.573-.694-1.451-.637-2.108l.018-.203z" />
</svg>
