<svg viewBox="0 0 32 32" xmlns="http://www.w3.org/2000/svg">
  <path fill="url(#gradient-red-purple)" fill-rule="evenodd"
    d="m16.4743903 20.0694418c.5392396.1339156 1.0214813.4338715 1.2724294.7913614.2451303.349249.350321.6537068.459757 1.3309157.0432398.2671446.0902533.5354337.1044831.5961727.0822342.3510803.2422215.6316546.4405742.772514.314943.2237269.8573274.2376145 1.3908279.0357109.0905677-.0343374.1691856-.0580683.1746888-.0526506.0194186.0186184-.2492971.1931285-.4387661.2850763-.2550362.1236144-.4578701.1714578-.727372.1714578-.4886884 0-.8942777-.2412771-1.2328847-.7332932-.0665893-.096755-.2162776-.3867911-.3327106-.6443976-.3573966-.7912851-.5339722-1.032257-.9488385-1.2960441-.3612489-.2295261-.8269808-.2706547-1.1773805-.1039278-.4603073.218996-.5886902.7898354-.2589671 1.1517511.1309773.1436827.3753215.2676787.5750894.2917911.3737491.045249.6949815-.230747.6949815-.597012 0-.2378434-.0941841-.3735141-.3312955-.4774418-.3237481-.1417751-.6717892.0240361-.6702169.3191847.0007076.1259037.0573124.2050322.1872677.2621085.0834135.0366265.0853789.0396024.0172959.0258674-.2970968-.0598232-.3666735-.4074698-.127754-.6382168.2867192-.2770643.8798121-.1548233 1.0834322.2233454.0856148.1587911.0955207.4751526.0209124.6662208-.1669057.4275382-.6537072.6524097-1.1475058.5300924-.3361698-.0833253-.473122-.1735181-.8784755-.5787751-.7042584-.7042209-.9776912-.8407309-1.9931583-.9944859l-.1945791-.0295302.2214114-.1814538c.7437088-.6095261 1.669072-1.0424056 2.5120123-1.1754056.3632143-.0572289.9684143-.0344899 1.3047414.0490643zm3.5850512-3.5606306c.0151732 0 .0779889.0330402.1397039.0733294.1226438.0800441.3687961.2151807 1.0243902.5621405.818097.4328795 1.2845365.7680884 1.6017594 1.1511406.2778354.3354377.449694.7174217.5324785 1.183265.0468562.2639398.01934.8987992-.0503154 1.1645703-.2200513.8378314-.7312243 1.4958113-1.4604046 1.8799318-.1068416.0561606-.202834.1023253-.2131329.1026309-.0103776.0002285.0285382-.0958398.0864796-.2135024.2453662-.497739.2732755-.9818193.0878161-1.5206105-.1135241-.3299437-.3450536-.7325301-.8125152-1.4129437-.5435636-.7910563-.6767422-1.0015061-.8104711-1.2805543-.2662786-.555502-.3273646-1.0919277-.1815285-1.5921847.0155663-.0534137.040724-.0972129.05574-.0972129zm-13.05926119-11.5088112c.02914362 0 6.60929799 7.0147542 7.08281309 7.5506l.1308201.1479863-.0114783.2300603c-.015016.3035422-.1128951.5052169-.3469404.7143695-.2696748.2412771-.5977942.3706907-1.1130947.4390602-.3160672.0418153-.4310379.0881325-.5587604.2246426-.1224473.1309397-.1692799.2941566-.2030856.7077309-.0523359.6402771-.1297194.9110843-.4419815 1.546249-.301688.6137229-.3629234.8456145-.3101473 1.1743373.0643408.4006025.2972618.6918595.8426101 1.0536988.4162027.2761486.6050427.4543213.7087711.6685101.0637276.1317028.0720139.1796225.0707875.4083092-.001879.3499358-.0598125.4907952-.3065466.7461125-.3986867.4124297-1.1075679.7489357-1.9805795.9402329-.3647945.0799679-.3808955.0798916-.3808955-.0019839 0-.1029358-.1355528-.3658836-.37097387-.7197872-.27278811-.4100642-.37948822-.6151727-.48172283-.9256586-.11677105-.3546667-.14974336-.5942651-.13280909-.9652611.01601445-.3508514.0555435-.5064377.19927259-.7843413.11410591-.2205984.18810886-.3210161.6403579-.8684297.7725694-.9351205 1.0513482-1.4815422 1.1504853-2.2550482.088445-.6900282.2109473-1.023482.4850012-1.320233.1643977-.1779437.2007585-.2459317.2007585-.375269 0-.0636386-.2614436-.5390964-1.0359078-1.8840752-.86336592-1.49934794-1.12267618-1.94969449-1.18821981-2.07365449l-.01380861-.0271601c-.01078571-.02278183-.00438347-.0169452.00401081-.00925363.01556633.01425381.58594651.86575902 1.26752371 1.89222452.8907556 1.341461 1.2766276 1.900702 1.372219 1.9886819.1352619.1246064.3210123.2016747.4858817.2016747.1457732 0 .4369264-.0792048.5785407-.1573414.2546588-.1404779.3105797-.3197951.1619527-.519257-.1280248-.1717376-1.9988062-2.4029115-3.91484814-4.67409593l-.35937384-.42582294c-.65830485-.77972722-1.30942144-1.54926829-1.88439933-2.22659634-.1966389-.23165884-.35245942-.42121169-.34623288-.42121169zm2.88714511 13.9073896c0 .0434176.02474103.075008.08049679.1028594.09388539.0468514.10070159.0995783.02683226.2073213-.07480486.1091928-.06877487.2051084.01702863.2702731.1382887.1050723.334055.0473855.4365805-.1288795.1070539-.1840482.0501739-.4205944-.1289018-.5361205-.1691934-.1091928-.43203638-.0578394-.43203638.0845462zm9.23121798-2.8522129.095049.1034699c.131449.1431486.2353031.3263574.3233551.5705341.0671396.1862611.0747655.2416587.0742413.5442852-.0004978.2971325-.0089099.3594739-.071018.5271164-.0978006.2643976-.2191865.4518795-.4228853.6530201-.3660445.3616105-.8367294.5618354-1.5159088.6448554-.118084.0144217-.4622728.0387631-.7647155.0540241-.7624356.0385342-1.2642532.1180442-1.7150478.2716466-.0648597.0220522-.1227224.0354819-.1285401.0298354-.018318-.0175502.2886846-.1951888.5423057-.3136908.3573966-.1671847.7133781-.2584458 1.51072-.387249.3939539-.0637149.8007225-.1410121.9040264-.1717631.9754113-.2903413 1.4769143-1.0394297 1.3164554-1.9666144-.0251577-.1449799-.068712-.3303253-.0967786-.4115904zm-1.1418452-2.6827389c.0073114 0 .0849072.0557028.1723303.1238433.4063755.3163615.861494.4514217 2.1213446.6298996.7412874.1048434 1.1585122.1896948 1.543425.3136145 1.2232147.3936586 1.9799112 1.1928032 2.1604178 2.2810683.052438.3162851.0216985.909253-.0632874 1.2217992-.0672182.2468473-.2720176.6918594-.3262639.7089518-.0150947.0048072-.0299534-.0512772-.0337271-.1275824-.0205979-.4086144-.2334163-.8065462-.5907343-1.1045943-.4062969-.3387952-.9521404-.6086105-2.2867565-1.1301567-2.0041255-.7830442-2.7099563-1.4629237-2.7099563-2.6099438 0-.1687871.0059749-.3068995.0132078-.3068995zm-3.4378787.8302771c.1538551-.0459358.4718642-.0165583.6213167.0571526.2897066.1429196.5000879.4685903.454411.7036104-.0556615.286755-.5346012.5160522-1.0854763.5197912-.2814518.0018313-.3852273-.0347952-.4926979-.1741285-.0665893-.0861486-.091747-.3654257-.0473279-.5245984.0727215-.2609639.3078674-.5097952.5497744-.5818273zm-.1438706.3834337c0 .1255221.2169066.2626426.4158097.2626426.1323924 0 .3136064-.0766868.3720981-.1574177.0849859-.1171285.0477996-.2437952-.0966213-.3293333-.275241-.1631406-.6912865-.0281567-.6912865.2241084zm.1051907-5.23045583c.7235984.16695582 1.3820226.59464659 2.0849445 1.35422693l.186796.2017968.2671433-.0416856c1.1254141-.1755325 2.2702468-.0360237 3.2278905.3933305.2634483.1181282.6787863.3532551.730674.4136735.0165098.0192595.0468563.1432097.0673755.2754848.0712278.45761.0355353.808408-.1085712 1.0703638-.0784606.1425382-.0829418.1877109-.0301892.3097229.0422177.0973655.1595941.1693976.2757913.1693213.2379761-.0003052.4941916-.373743.6128259-.8932289l.0470921-.2063446.0933979.1026763c.5122737.5632546.9146397 1.3314956.9837448 1.8782225l.0180035.1426145-.0860865-.1295663c-.1482732-.2230402-.2971754-.3748875-.487745-.4973574-.3437171-.2206747-.7070887-.2958354-1.669528-.3450522-.8691986-.0444097-1.3611103-.1165181-1.8489339-.2708836-.8298897-.2626425-1.2482938-.6124257-2.2342398-1.8677992-.4378227-.5576156-.7084252-.8661253-.9776913-1.1145751-.6117252-.56452888-1.2128371-.86060077-1.9823483-.97643972-.2112146-.03180402-.220122-.03553535-.1207098-.05036145.1905224-.02843896.6403736.01031647.9503637.08186024zm6.9589349.20633695c.0061322 0-.0119499.06576747-.040095.14611687-.0763379.21843132-.0888382.51719681-.0362429.86479761.066668.4410442.1046404.5046827.5849166.9811096.2252401.2234599.4872733.5052932.5823222.626298l.1727234.2200185-.1727234-.1572422c-.2111674-.1922815-.696947-.5672759-.8043389-.6208803-.0718567-.035955-.0826273-.0353217-.1269678.0075466-.0408812.0395032-.0494506.098861-.0551897.3794811-.0088052.4373663-.0702057.7180779-.2184789.9988048-.0801116.1517711-.0928477.1194177-.0202048-.0519638.0540891-.1279639.0596709-.1842008.0592778-.607588-.0009434-.8506964-.1049547-1.0552096-.7151077-1.405565-.1546412-.0887506-.4094416-.216745-.5660483-.2844506-.1567639-.0677133-.2812159-.126682-.2766561-.1310848.0172173-.0166956.6123542.1519008.8518241.2413305.356296.1330229.4151807.1502526.4584205.1342057.02901-.0107514.043004-.0927414.0571552-.3337514.0218557-.3736515.074058-.62010969.1790128-.84517957.0415102-.08908634.0805046-.16200361.0864009-.16200361zm-7.9972012.1508249.0976119.01728313c.1833289.03245261.4994511.14662811.6474099.23388313.4061396.23940762.5819291.55460922.7607846 1.36398632.0524381.2370651.1212287.5053542.1528331.5961727.0508657.1462008.2433221.4876819.3997716.7094707.1127379.1597068.0378938.2354016-.2111675.2135783-.3805102-.0333454-.89585-.3785273-1.2282462-.8227305-.4288602-.5730293-.6941953-1.4516229-.6367493-2.10840483z" />
</svg>
