<svg viewBox="0 0 32 32" xmlns="http://www.w3.org/2000/svg">
  <defs>
    <linearGradient id="gradient-usd" x1="0%" y1="100%" x2="100%" y2="0%">
      <stop offset="0%" stop-color="#8aff80" />
      <stop offset="100%" stop-color="#ffff80" />
    </linearGradient>
  </defs>
  <path d="m16.8649835 24v-2.4763996c.9366996-.1990486 1.6831321-.6059275 2.2392975-1.2206366s.8342481-1.3962679.8342481-2.3446762c0-.7025247-.1844127-1.2938163-.5532382-1.7738749-.3688255-.4800585-.816685-.8371752-1.3435785-1.0713501s-1.0508599-.4361508-1.571899-.6059276c-.5210392-.1697768-.9659715-.3688255-1.3347969-.597146-.3688255-.2283205-.5532382-.5122576-.5532382-.8518112 0-.3278448.1463593-.5942188.4390779-.7991218.2927186-.2049031.7142334-.3073546 1.2645445-.3073546.4449323 0 .9132821.0878156 1.4050494.2634468l.3336992 1.2996707h1.5104281l.0702525-2.8803513-.3512624-.1229418c-.2341749-.09367-.5795829-.1931943-1.0362239-.298573-.4566411-.1053787-.9074278-.1756312-1.3523601-.2107574v-2.0021954h-1.8792535v2.0724479c-.9132821.1756311-1.6392243.5444566-2.1778266 1.1064764-.5386023.5620197-.8079034 1.2879619-.8079034 2.1778265 0 .5386023.0995243 1.0157336.298573 1.4313941.1990487.4156604.4566411.7435053.7727772.9835346.3161361.2400292.6644712.4507867 1.0450055.6322722.3805342.1814855.7610684.3336992 1.1416026.4566411.3805342.1229418.7288694.2458836 1.0450055.3688254s.5737285.2780827.7727771.4654226c.1990487.18734.298573.4039517.298573.6498354 0 .3980973-.1873399.7054519-.5620197.9220636-.3746799.2166118-.8430297.3249177-1.4050494.3249177-.6205635 0-1.1298939-.1053787-1.5279912-.3161361l-.2634468-1.3172338h-1.6158068v3.1086718l.3863886.1229418c.2575924.0819612.6351994.1697768 1.1328211.2634468.4976216.0936699.9864617.1522137 1.4665203.1756311v2.3710209z" fill="url(#gradient-usd)" fill-rule="evenodd"/>
</svg>
