<svg viewBox="0 0 32 32" xmlns="http://www.w3.org/2000/svg">
  <path fill="url(#gradient-green-yellow)" fill-rule="evenodd"
    d="m16.9026549 24v-2.4763996c.9439528-.1990486 1.6961652-.6059275 2.2566371-1.2206366.560472-.6147091.840708-1.3962679.840708-2.3446762 0-.7025247-.1858407-1.2938163-.5575221-1.7738749-.3716814-.4800585-.8230089-.8371752-1.3539823-1.0713501-.5309735-.2341749-1.0589971-.4361508-1.5840708-.6059276-.5250738-.1697768-.9734513-.3688255-1.3451328-.597146-.3716814-.2283205-.5575221-.5122576-.5575221-.8518112 0-.3278448.1474926-.5942188.4424779-.7991218.2949852-.2049031.719764-.3073546 1.2743363-.3073546.4483776 0 .920354.0878156 1.4159292.2634468l.3362832 1.2996707h1.5221239l.0707964-2.8803513-.3539823-.1229418c-.2359882-.09367-.5840708-.1931943-1.0442478-.298573s-.9144543-.1756312-1.3628318-.2107574v-2.0021954h-1.8938053v2.0724479c-.920354.1756311-1.6519174.5444566-2.1946903 1.1064764-.5427729.5620197-.8141593 1.2879619-.8141593 2.1778265 0 .5386023.100295 1.0157336.300885 1.4313941.2005899.4156604.4601769.7435053.778761.9835346.3185841.2400292.6696165.4507867 1.0530974.6322722.3834808.1814855.7669616.3336992 1.1504424.4566411.3834809.1229418.7345133.2458836 1.0530974.3688254s.5781711.2780827.778761.4654226c.20059.18734.300885.4039517.300885.6498354 0 .3980973-.1887906.7054519-.5663717.9220636-.3775811.2166118-.8495575.3249177-1.4159292.3249177-.6253687 0-1.138643-.1053787-1.539823-.3161361l-.2654867-1.3172338h-1.6283186v3.1086718l.3893805.1229418c.2595871.0819612.640118.1697768 1.141593.2634468.5014749.0936699.9941002.1522137 1.4778761.1756311v2.3710209z" />
</svg>
