<svg viewBox="0 0 32 32" xmlns="http://www.w3.org/2000/svg">
  <path fill="url(#gradient-green-yellow)" fill-rule="evenodd"
    d="m21.0365455 9h-10.0729366l-2.9636089 6.2620895 7.9975691 7.7379105 8.0024309-7.7379105zm-2.9034925 9.9221136c-.3670266.3695705-.8723443.6024937-1.5030652.693233v1.0558827h-1.1645147v-1.0544216c-.6444574-.0877404-1.164206-.3420412-1.5459724-.7566737-.4135609-.4491596-.6232353-1.0612655-.6232353-1.8192464v-.1772492h1.3668578v.1772492c0 .4521587.117146.800736.3481197 1.03612.2298933.2343843.5675177.3531912 1.0037669.3531912.4320821 0 .7724075-.1009667 1.0114841-.3002087.2328258-.193936.3459588-.4543887.3459588-.7961991 0-.2851367-.0977759-.5183675-.2986528-.7131495-.2143819-.2077776-.5913636-.4018674-1.1203728-.576656-.7986456-.2417664-1.3952568-.5669669-1.7703864-.9658354-.3853934-.409788-.5807912-.9348457-.5807912-1.5604856 0-.6357135.1913077-1.1665385.5684438-1.5778644.3447241-.3761069.8113017-.6152587 1.387694-.7116116v-1.2109854h1.170071v1.2190597c.5837237.1098868 1.0511502.3802592 1.3902408.8046577.3647887.4566187.5496139 1.0829508.5496139 1.8613864v.1773262h-1.3613787v-.1773262c0-.4670768-.1098919-.8394155-.3265888-1.1066352-.210369-.2594529-.4885715-.3854883-.8505048-.3854883-.3834641 0-.6762519.0954302-.870415.2836758-.1926195.1870152-.2903183.4576184-.2903183.8042733 0 .3198177.0997053.5655058.3049809.751137.222099.2008568.6028621.3892563 1.1318713.5599692.5696012.1837856 1.022751.3904097 1.3469476.6141052.3342289.2308471.5849583.5051412.7453203.8154235.1599761.309821.241006.6745469.2409289 1.0841811-.0000773.6562451-.2038867 1.1942986-.6061034 1.5991651z" />
</svg>
