<svg viewBox="0 0 32 32" xmlns="http://www.w3.org/2000/svg" xmlns:xlink="http://www.w3.org/1999/xlink">
  <defs>
    <linearGradient id="gradient-usdt" x1="0%" x2="100%" y1="100%" y2="0%">
      <stop offset="0" stop-color="#8aff80" />
      <stop offset="1" stop-color="#ffff80" />
    </linearGradient>
  </defs>
  <path fill="url(#gradient-usdt)" fill-rule="evenodd"
    d="m21.7698361 8h-11.4121968l-3.3576393 7.1199126 9.0608962 8.7979016 9.0664043-8.7979016zm-3.2895301 11.2813115c-.4158251.4201967-.9883279.6850273-1.7029071.7881967v1.2005246h-1.3193443v-1.1988634c-.730142-.0997596-1.3189945-.3888962-1.7515191-.8603279-.4685464-.5106885-.7060983-1.2066448-.7060983-2.068459v-.20153h1.5485901v.20153c0 .5140984.1327213.9104262.3944044 1.1780547.260459.2664918.6429727.4015737 1.137224.4015737.4895301 0 .8751039-.1147978 1.1459673-.3413333.2637814-.2205027.3919562-.5166339.3919562-.9052678 0-.3241967-.1107759-.589377-.3383606-.8108415-.2428853-.2362404-.6699891-.456918-1.2693334-.6556503-.9048306-.2748852-1.580765-.6446338-2.0057704-1.098142-.4366339-.4659235-.658011-1.0629071-.658011-1.7742514 0-.7227978.2167432-1.3263388.6440219-1.7940109.3905574-.4276285.9191694-.699541 1.5721967-.8090929v-1.37687435h1.3256393v1.38605465c.6613334.1249399 1.1909072.4323497 1.575082.9148852.4132896.5191694.6226885 1.2313006.6226885 2.1163716v.2016175h-1.5423825v-.2016175c0-.5310601-.1245027-.9544043-.3700109-1.2582295-.2383388-.2949945-.5535301-.4382951-.9635847-.4382951-.4344481 0-.7661639.1085028-.9861421.3225356-.2182295.2126338-.328918.520306-.328918.914448 0 .3636285.1129617.6429727.34553.8540328.2516285.2283716.6830164.4425793 1.2823607.6366776.6453333.2089618 1.1587322.4438907 1.5260328.6982295.3786667.26247.6627322.5743388.8444153.9271257.1812459.3522623.2730492.7669508.2729618 1.2326995-.0000875.746142-.2309946 1.3579016-.6866886 1.8182295z" />
</svg>
