<svg viewBox="0 0 32 32" xmlns="http://www.w3.org/2000/svg">
  <path fill="url(#gradient-pink-yellow)" fill-rule="evenodd"
    d="m21.0436338 9 2.9563662 6.3157143-8 7.6842857-8-7.6842857 2.9563663-6.3157143zm-1.7968527 2.3314286h-6.6344778v1.6221428h2.4377683v1.0635715c-1.9814021.0942857-3.4706724.4814285-3.4706724.9514285s1.4899856.8614286 3.4706724.9535715v3.4092857h1.7646637v-3.4092857c1.9756796-.0914286 3.46495-.4842858 3.46495-.9528572s-1.4871245-.8614286-3.46495-.9521428v-1.0635715h2.4320458zm-4.1945636 2.95v.7607142c.1144492.0078572.4427754.0278572.8962804.0278572.5436338 0 .8161659-.0228571.8662374-.0278572v-.7592857c1.7474965.0785714 2.6924178.3571429 2.6924178.6028572 0 .1957143-.9456366.3821428-2.6924178.4607143-.0493562.0021428-.3025751.0171429-.8748211.0171429l-.147482-.0004488c-.3787813-.0023203-.6397537-.0130433-.7402147-.0181227l-.2237481-.0107124c-1.6072946-.0832546-2.4751074-.2682317-2.4751074-.4492876 0-.2464286.9492131-.5264286 2.6988555-.6035714z" />
</svg>
