<svg viewBox="0 0 32 32" xmlns="http://www.w3.org/2000/svg" xmlns:xlink="http://www.w3.org/1999/xlink">
  <defs>
    <linearGradient id="gradient-xaut" x1="0%" x2="100%" y1="100%" y2="0%">
      <stop offset="0" stop-color="#ff80bf" />
      <stop offset="1" stop-color="#ffff80" />
    </linearGradient>
  </defs>
  <path fill="url(#gradient-xaut)" fill-rule="evenodd"
    d="m21.8857143 8 3.3738775 7.2179592-9.1297959 8.7820408-9.1297959-8.7820408 3.3738776-7.2179592zm-2.0506123 2.6644898h-7.5714285v1.8538775h2.7820408v1.2155103c-2.2612245.1077551-3.9608163.550204-3.9608163 1.0873469 0 .5371428 1.7004081.9844898 3.9608163 1.0897959v3.8963265h2.0138775v-3.8963265c2.2546939-.1044898 3.9542858-.5534694 3.9542858-1.0889796s-1.6971429-.9844898-3.9542858-1.0881632v-1.2155103h2.7755102zm-4.7869387 3.3714286v.8693877c.1306122.0089796.5053061.0318368 1.0228571.0318368.6204082 0 .9314286-.0261225.9885714-.0318368v-.8677551c1.9942858.0897959 3.0726531.4081633 3.0726531.6889796 0 .2236735-1.0791837.4367347-3.0726531.5265306-.0563265.002449-.3453061.0195919-.9983673.0195919l-.16831-.0005129c-.4322745-.0026517-.7301027-.0149066-.8447512-.0207116l-.2553468-.0122428c-1.834284-.0951481-2.8246532-.3065505-2.8246532-.5134715 0-.2816327 1.0832653-.6016327 3.08-.6897959z" />
</svg>
