<svg viewBox="0 0 32 32" xmlns="http://www.w3.org/2000/svg" xmlns:xlink="http://www.w3.org/1999/xlink">
  <path fill="url(#gradient-purple-blue)" fill-rule="evenodd"
    d="m21.7412127 10.7711575-1.9251007.9818018-9.3030529 4.7381564c-.0662737-.5091129-.0618843-1.017616.0131674-1.5255086.0750516-.5078927.2179229-.9959322.4286123-1.4641178.2106894-.4681864.4812152-.8987792.8115767-1.2917792.3303624-.3929993.7080439-.7335158 1.1330441-1.0215494.4250002-.2880337.8812163-.5126699 1.3686477-.6739096.4874313-.1612396.9876108-.2529736 1.5005385-.2752013.512927-.0222276 1.0191669.0258926 1.5187203.1443615.4995526.1184681.9734901.3027967 1.4218142.5529843l1.1021197-.5614877.1644358-.0842228c-.5227814-.37936919-1.0882767-.67779754-1.696486-.89528484-.6082118-.21748649-1.234716-.34529943-1.8795157-.38343874-.6447996-.03813931-1.2820037.01492684-1.9116125.15919763s-1.2263424.37395425-1.7902001.68905012c-.5638576.31509663-1.0722001.70295383-1.5250274 1.16357163-.4528274.4606169-.8319578.9755006-1.1373906 1.5446503-.30543286.5691497-.52490557 1.1697127-.65841746 1.8016907-.13351196.6319771-.17570248 1.2699937-.12657141 1.9140489.0187987.2477069-.03265565.4798421-.15436338.6964041-.12170732.2165618-.29324421.3812102-.51461018.4939465l-.58154107.2967873v1.3828637l1.71173598-.8727118.55426882-.2831512.5462473-.2783376 9.8067868-4.9972422 1.1021214-.5606861 2.2780368-1.1606754v-1.38206289zm2.2587873 1.6138768-12.6294684 6.429839-1.102121.5614879-2.26760888 1.1574665v1.3820624l2.25236918-1.1470396 1.9259036-.9818026 9.3126779-4.7453756c.0672863.5098923.0636623 1.0192797-.0108712 1.528163-.0745343.508882-.217145.9979124-.4278338 1.4670925-.2106887.4691785-.4814422.9006659-.8122612 1.2944631-.3308191.3937971-.7091256.7349307-1.1349227 1.0234016-.425798.28847-.8828925.513309-1.3712859.6745194-.4883942.1612112-.989519.2526592-1.5033733.2743478-.5138556.0216887-1.0209045-.0272081-1.5211467-.1466887-.5002416-.1194798-.9746578-.3050026-1.4232479-.5565661l-.0681808.0360941-1.195167.6096154c.5228616.3795811 1.0884756.678178 1.696842.8957939.6083658.2176183 1.2350425.3455116 1.880031.3836783.6449876.0381692 1.2823749-.0149211 1.9121606-.1592701.6297865-.1443497 1.226669-.3741579 1.7906475-.6894253.5639794-.3152651 1.0723979-.7033254 1.5252563-1.1641779.4528593-.460854.8319639-.9759871 1.1373131-1.5453976.30535-.5694089.5246784-1.1702219.657986-1.8024356.1333061-.632216.1752356-1.2704338.1257878-1.9146557-.0185949-.2474499.0328703-.4793518.1543979-.6957058.1215253-.216354.2927831-.3809687.5137727-.4938448l.5823432-.2967872v-1.3780514z" />
</svg>
