<svg viewBox="0 0 32 32" xmlns="http://www.w3.org/2000/svg">
  <path fill="url(#gradient-purple-blue)" fill-rule="evenodd"
    d="m21.7412127 10.8316599-1.9251007 1.0153399-9.3030529 4.9000108c-.0662737-.526504-.0618843-1.0523775.0131674-1.5776196.0750516-.5252422.2179229-1.0299531.4286123-1.5141318.2106894-.4841795.4812152-.9294813.8115767-1.3359061.3303624-.406424.7080439-.7585725 1.1330441-1.0564453s.8812163-.5301826 1.3686477-.6969302c.4874313-.1667475.9876108-.2616152 1.5005385-.2846021.512927-.0229869 1.0191669.026777 1.5187203.1492928.4995526.122515.9734901.3131402 1.4218142.5718742l1.1021197-.5806681.1644358-.0870998c-.5227814-.39232833-1.0882767-.70095093-1.696486-.92586755-.6082118-.22491578-1.234716-.35709479-1.8795157-.39653693-.6447996-.03944214-1.2820037.01543674-1.9116125.16463579s-1.2263424.38672845-1.7902001.71258794c-.5638576.32586025-1.0722001.72696665-1.5250274 1.20331895-.4528274.4763515-.8319578 1.0088236-1.1373906 1.5974153-.30543286.5885918-.52490557 1.2096699-.65841746 1.863236-.13351196.6535654-.17570248 1.3133764-.12657141 1.9794324.0187987.2561685-.03265565.4962335-.15436338.7201931-.12170732.2239596-.29324421.3942323-.51461018.5108197l-.58154107.3069255v1.4301021l1.71173598-.9025236.55426882-.2928235.5462473-.2878455 9.8067868-5.167947 1.1021214-.5798391 2.2780368-1.2003238v-1.42927386zm2.2587873 1.6690065-12.6294684 6.6494809-1.102121.5806683-2.26760888 1.1970053v1.4292734l2.25236918-1.1862223 1.9259036-1.0153407 9.3126779-4.9074768c.0672863.5273102.0636623 1.0540982-.0108712 1.5803648-.0745343.5262654-.217145 1.0320008-.4278338 1.5172081-.2106887.4852055-.4814422.9314325-.8122612 1.3386816-.3308191.4072492-.7091256.7600359-1.1349227 1.0583608-.425798.2983241-.8828925.5308436-1.3712859.6975609-.4883942.1667182-.989519.2612899-1.5033733.2837195-.5138556.0224296-1.0209045-.0281375-1.5211467-.1516996-.5002416-.1235612-.9746578-.3154215-1.4232479-.5755782l-.0681808.037327-1.195167.6304398c.5228616.3925475 1.0884756.7013443 1.696842.9263939.6083658.2250521 1.2350425.3573142 1.880031.3967847.6449876.039473 1.2823749-.0154308 1.9121606-.1647107.6297865-.1492806 1.226669-.386939 1.7906475-.7129759.5639794-.3260345 1.0723979-.7273509 1.5252563-1.203946.4528593-.4765967.8319639-1.0093266 1.1373131-1.5981881.30535-.5888598.5246784-1.2101964.657986-1.8640064.1333061-.6538124.1752356-1.3138315.1257878-1.98006-.0185949-.2559027.0328703-.4957263.1543979-.7194709.1215253-.2237446.2927831-.3939825.5137727-.5107145l.5823432-.3069253v-1.4251253z" />
</svg>
