<svg viewBox="0 0 32 32" xmlns="http://www.w3.org/2000/svg"><path d="m16 8c.5252875 0 1.0455285.05123924 1.5607225.15371774.515194.10247849 1.0154415.25422712 1.5007445.45524593.485302.20101881.946333.44744523 1.383094.73927933s.8408585.62346815 1.2122925.9949026c.3714345.3714342.703068.7755315.994902 1.2122919.2918335.4367608.5382605.8977919.7392785 1.3830944.2010185.4853024.352768.9855509.455247 1.5007453.102478.5151939.153719 1.0354347.153719 1.5607228 0 .5252875-.051241 1.0455285-.15372 1.5607225s-.2542275 1.0154415-.455246 1.5007445c-.201018.485302-.447445.946333-.7392785 1.383094-.291834.436761-.6234675.8408585-.994902 1.2122925-.371434.3714345-.7755315.703068-1.2122925.994902-.436761.2918335-.897792.5382605-1.383094.7392785-.485303.2010185-.9855505.352768-1.5007445.455247-.515194.102478-1.035435.153719-1.5607225.153719-.5252881 0-1.0455289-.051241-1.5607233-.15372s-1.0154424-.2542275-1.5007448-.455246c-.4853024-.201018-.9463336-.447445-1.3830943-.7392785-.4367604-.291834-.8408578-.6234675-1.212292-.994902-.37143445-.371434-.7030686-.7755315-.9949027-1.2122925-.291834-.436761-.53826042-.897792-.73927923-1.383094-.20101881-.485303-.35276744-.9855505-.45524593-1.5007445-.1024785-.515194-.15371774-1.035435-.15371774-1.5607225 0-.5252881.05123924-1.0455289.15371774-1.5607233.10247849-.5151944.25422712-1.0154424.45524593-1.5007448.20101881-.4853025.44744523-.9463336.73927933-1.3830944.2918341-.4367604.62346815-.8408577.9949026-1.2122919.3714342-.37143445.7755316-.7030686 1.212292-.9949027.4367607-.291834.8977919-.53826042 1.3830943-.73927923s.9855509-.35276744 1.5007453-.45524593c.5151939-.1024785 1.0354347-.15371774 1.5607228-.15371774zm2.8904909 7.9364723-1.8791574 1.8996514-.9934719.9954667-1.0119473-.9954667-1.897019-1.8996514v3.5279235h-2.7999504c1.1739345 1.9181539 3.2877552 3.2022722 5.6910568 3.2022722.5716983.0003551 1.1341077-.071852 1.6872267-.216624.5531184-.1447732 1.0788797-.3573824 1.5772869-.6378265.4984072-.2804459.9531787-.6195688 1.3643157-1.0173681.4111382-.3977988.7652137-.8412835 1.0622272-1.3304536h-2.8005673zm-2.8904904-6.60313897c-3.6856376 0-6.66666717 2.98516757-6.66666717 6.67591787.00231196.7237949.11666685 1.4293791.34306492 2.116755h1.98755835v-5.6089063l4.3360433 4.3420603 4.3360435-4.3420608v5.6089068h1.9869426c.2266069-.6873432.3411677-1.3929274.3436807-2.116755 0-3.6907509-2.9810298-6.67591787-6.6666662-6.67591787z" fill-rule="evenodd"/></svg>
