<svg viewBox="0 0 32 32" xmlns="http://www.w3.org/2000/svg">
  <path fill="url(#gradient-purple-orange)" fill-rule="evenodd"
    d="m16 8c.5252871 0 1.0455281.05123924 1.5607221.15371773s1.0154415.25422711 1.5007444.45524591c.485302.20101881.946333.44744522 1.383094.7392793.436761.29183409.8408584.62346813 1.2122924.99490256.3714345.3714342.703068.7755315.994902 1.2122919.2918335.4367607.5382605.8977919.7392785 1.3830943.2010185.4853024.3527679.9855508.4552469 1.5007452.102478.5151939.1537197 1.0354347.1537197 1.5607231 0 .5252871-.0512417 1.0455281-.1537207 1.5607221s-.2542274 1.0154415-.4552459 1.5007444c-.201018.485302-.447445.946333-.7392785 1.383094-.291834.436761-.6234675.8408584-.994902 1.2122924-.371434.3714345-.7755314.703068-1.2122924.994902-.436761.2918335-.897792.5382605-1.383094.7392785-.4853029.2010185-.9855504.3527679-1.5007444.4552469-.515194.102478-1.035435.1537197-1.5607221.1537197-.5252884 0-1.0455292-.0512417-1.5607236-.1537207-.5151943-.102479-1.0154423-.2542274-1.5007447-.4552459-.4853024-.201018-.9463336-.447445-1.3830943-.7392785-.4367604-.291834-.8408577-.6234675-1.2122919-.994902-.37143443-.371434-.70306857-.7755314-.99490266-1.2122924-.29183398-.436761-.53826039-.897792-.7392792-1.383094-.2010188-.4853029-.35276742-.9855504-.45524591-1.5007444s-.15371773-1.035435-.15371773-1.5607221c0-.5252884.05123924-1.0455292.15371773-1.5607236.10247849-.5151943.25422711-1.0154423.45524591-1.5007447.20101881-.4853024.44744522-.9463336.7392793-1.3830943.29183409-.4367604.62346813-.8408577.99490256-1.2122919.3714342-.37143443.7755315-.70306857 1.2122919-.99490266.4367607-.29183398.8977919-.53826039 1.3830943-.7392792.4853024-.2010188.9855508-.35276742 1.5007452-.45524591.5151939-.10247849 1.0354347-.15371773 1.5607231-.15371773zm-.0000001 8.4765366c-.1827829 0-.3638427.0176635-.5431793.0529895-.1793365.035326-.3535689.0876485-.5226969.1569685-.1691279.0693195-.3299632.15433-.4825048.2550295-.1525421.1007005-.2939153.215192-.424119.3434755l-3.0275 2.9964999h1.4469995l2.3050007-2.2814999c.1663737-.164214.3576927-.290698.5739559-.379452.2162633-.0887525.441278-.133129.675045-.133129.2337675 0 .4587821.0443765.6750441.133129.2162625.088754.407581.215238.5739545.379452l2.3024999 2.2809999h1.4475004l-3.0275003-2.9960009c-.1302045-.1282835-.271577-.242775-.424119-.3434745-.1525425-.1006995-.3133775-.18571-.482505-.2550295-.1691275-.06932-.34336-.1216425-.5226965-.156969-.1793365-.0353255-.3603963-.052989-.5431792-.052989zm-3.5349999-4.4765368h-1.4475002l3.0100001 2.9785003c.1302037.128283.2715769.2427744.424119.3434743.1525416.1006999.3133769.18571.4825048.2550297.169128.0693202.3433604.1216431.5226969.1569691.1793366.0353255.3603964.0529885.5431791.0529885.1827841 0 .3638439-.017663.5431804-.0529885.1793365-.035326.353568-.0876489.5226955-.1569691.1691285-.0693197.3299635-.1543298.482506-.2550297.152542-.1006999.2939145-.2151913.424118-.3434743l3.0074994-2.9785003h-1.4449995l-2.2869989 2.2615003c-.166373.1642155-.3576915.2906995-.5739555.3794522-.2162635.0887532-.4412783.1331296-.6750454.1331296-.2337665-.0000005-.4587812-.0443768-.6750445-.1331296-.2162632-.0887532-.4075817-.2152371-.5739555-.3794527z" />
</svg>
