<svg viewBox="0 0 32 32" xmlns="http://www.w3.org/2000/svg" xmlns:xlink="http://www.w3.org/1999/xlink">
  <path fill="url(#gradient-red-green)" fill-rule="evenodd"
    d="m17.5862222 23.9197037c-1.1429629 0-1.9753333-.2737778-2.4984444-.8208148-.5225185-.5468889-.7839259-1.1368148-.7839259-1.7686667 0-.231037.0454814-.4253333.1365925-.5833333.088963-.156.2180741-.2851111.373926-.3743704.1582222-.091037.3525185-.1363704.5836296-.1363704s.4251852.0453334.5834815.1363704c.1580741.0911852.2824444.2163704.3737037.3743704.0912592.158.1368889.3522963.1368889.5833333 0 .2796297-.0668889.5072593-.2005926.6838519-.134.1761481-.2918519.2914815-.4742222.3464444.1582963.2188148.4074814.3738519.748.4647408.3402963.0974814.6805185.146074 1.021037.146074.4738518 0 .9027407-.1275555 1.2855556-.3827407.3829629-.2554815.6655555-.6324445.848074-1.1308148.1825185-.4985185.2734815-1.0637037.2734815-1.6960741 0-.6868148-.1002963-1.2736296-.300963-1.7594074-.1947407-.4925185-.4831851-.857037-.8663703-1.0945185-.3712593-.2334815-.8011852-.3566667-1.2397778-.3551852-.292 0-.6564444.1217037-1.0941482.3645185l-.8023703.4012593v-.4012593l3.6106666-4.8140741h-4.9965925v4.9963704c0 .4132593.091037.7537778.2734814 1.0211111.1823704.2676296.461926.4013334.838963.4013334.2914074 0 .5713333-.0971112.8388148-.2917778.2693333-.1962963.5034074-.4367408.6928148-.7110371.0245185-.0548889.0548889-.0943703.0911852-.1187407.0328889-.0288889.0748148-.0451111.1185185-.0455556.0668889 0 .1457037.0332593.2371852.1005186.0851111.0971851.1276296.2094814.1276296.337037-.0103703.0858518-.0257777.1712593-.0456296.2556296-.2065185.4617037-.4925185.8143704-.8571852 1.0572593-.3551111.2404444-.7744444.3674074-1.2032592.365037-1.0820741 0-1.829926-.2129629-2.2431852-.6382222-.4131852-.4257037-.62-1.0033333-.62-1.7324444v-4.9965186h-2.5531852v-.9302222h2.5531852v-2.11503702l-.5834074-.584v-.47377778h1.6957778l.638074.32807407v2.84481483l6.6014815-.0180741.6565926.6563704-4.0482963 4.0482963c.2451111-.0976296.5031852-.1591111.7661482-.1823704.4373333 0 .9297777.1398519 1.4768888.4194815.5531112.2734074.9786667.6508148 1.2765186 1.1303704.2977037.4741481.489037.9302222.5741481 1.3677777.0913333.438.1372593.8267408.1372593 1.1670371 0 .7780741-.1643704 1.5015555-.4926667 2.1705185-.3282222.6682222-.8266667 1.1666667-1.4952593 1.4948148-.669037.3285185-1.3921481.4925926-2.1702222.4925926z" />
</svg>
