<svg viewBox="0 0 32 32" xmlns="http://www.w3.org/2000/svg">
  <path fill="url(#gradient-red-green)" fill-rule="evenodd"
    d="m17.751345 24c-1.1678408 0-2.0183287-.2751587-2.5528259-.8249549-.5338917-.5496473-.800989-1.1425487-.800989-1.7775875 0-.2322023.0464714-.4274786.1395656-.5862755.0908994-.1567869.2228208-.2865492.382065-.3762587.161666-.0914962.3601914-.1370582.5963329-.1370582s.4344399.045562.5961817.1370582c.1615147.0916451.2885921.2174617.3818377.3762587.0932456.1587969.1398685.3540732.1398685.5862755 0 .2810401-.0683448.5098178-.2049587.6873011-.1369167.1770366-.2982044.2929517-.4845442.3481918.1617418.2199185.4163507.3757376.764281.4670849.3477033.0979731.6953308.1468108 1.0432611.1468108.4841657 0 .9223899-.1281989 1.3135372-.3846712.3912985-.2567701.680042-.6356344.8665333-1.1365184.1864912-.501033.2794341-1.0690689.2794341-1.7046289 0-.6902789-.1024794-1.2800535-.3075138-1.7682815-.1989795-.4950027-.4937022-.8613598-.8852278-1.1000391-.3793402-.2346591-.818624-.3584656-1.266763-.3569767-.2983557 0-.6707327.1223176-1.1179636.3663571l-.8198348.4032832v-.4032832l3.6892569-4.8383555h-5.1053491v5.0215713c0 .4153437.0930186.7575797.2794341 1.0262614.1863399.2689795.4719803.4033576.857224.4033576.2977502 0 .583769-.097601.8570725-.2932494.2751957-.1972864.5143647-.4389437.7078947-.7146235.0250522-.0551657.0560836-.0948463.09317-.1193396.0336047-.0290346.0764432-.0453386.1210982-.0457854.0683448 0 .1488751.0334271.2423478.1010256.0869636.0976753.1304076.210538.1304076.338737-.0105961.0862848-.0263388.1721231-.0466228.2569189-.2110136.4640325-.5032387.818478-.8758428 1.062592-.3628405.2416571-.7913011.3692605-1.2294495.3668782-1.1056267 0-1.8697565-.2140371-2.2920107-.6414413-.4221787-.4278509-.633495-1.008394-.633495-1.7411826v-5.0217202h-2.6087582v-.9349141h2.6087582v-2.12570487l-.5961059-.58694559v-.47616744h1.7326883l.6519624.32972882v2.85916358l6.7451703-.0181652.6708841.659681-4.1364121 4.0687152c.2504462-.098122.5141376-.1599136.7828243-.1832902.4468523 0 .9500153.1405572 1.5090349.4215972.5651503.2747865.9999685.6540974 1.3043035 1.1360718.3041836.4765397.4996815.9349141.5866451 1.3746766.0933213.4402092.1402469.8309107.1402469 1.1729234 0 .7819986-.1679481 1.5091291-.5033902 2.1814663-.3353663.6715926-.84466 1.1725511-1.5278053 1.5023543-.6835993.3301755-1.4224498.4950772-2.2174595.4950772z" />
</svg>
