<svg viewBox="0 0 32 32" xmlns="http://www.w3.org/2000/svg">
  <path fill="url(#gradient-purple-blue)" fill-rule="evenodd"
    d="m17.052506 17.4235628.124105-1.3396579.2986434.2365337.3129591.2613364.3684105.3261996.2565467.2421993.2513917.254074c.2856476.3007092.5364338.6118172.6671798.8848651l.1204715.2737751c.0137735.0334066.0275662.0677979.0412679.1031627l.0802374.2237833c.2579456.7842975.3913994 1.9491736-.4806402 3.406096-.6109786.9457838-1.7875895 1.8380786-3.8138425 1.6873367-1.0214797-.0705083-3.4797136-1.4101661-3.0167065-4.3690838.0231845-.1583832.0644879-.3312551.1116639-.4974072l.0736378-.2415372.1068819-.3086112.0920646-.2386132-1.3770883.2723079-.2696897-1.106251 3.3627685-.8120612.6539379 3.5497286-1 .2017997-.3484486-1.6849055-.0456907.0809238-.048137.0971208-.0570193.1313079-.0599175.1628057c-.1880107.5625843-.3296026 1.5584979.4303349 2.6034629.5498806.6574292.8736992.8153678 1.3881432.9281811l.4280859.0832484c.6945107.1215661 2.326969-.0778023 2.8615752-1.9961145.2362768-1.2375424.0286396-2.166307-1.5131265-3.416006zm-.4749404-6.4113935v10.1142954h-1.0811456v-10.1142954zm-.0238663-3.00511279c1.0214797.04376378 3.5155131 1.31534467 3.1288783 4.28641889-.0190931.1590779-.0559155.3332399-.0987775.5008805l-.0673615.2438693-.0988506.3120163-.0858458.2415594 1.3699284-.3112091.2983294 1.1013884-3.3389021.9020201-.7446301-3.5302781.9928401-.2285442.3914081 1.6727489.0650407-.1269792.0503556-.1160578.0553863-.1490606.0544985-.1792018c.1562456-.5799557.2206081-1.5281882-.5259971-2.4970277-.5670644-.64186879-.8958473-.79202718-1.4115895-.89114727l-.428506-.0716559c-.699284-.10211548-2.3245823.1385853-2.8090692 2.07148547-.2052506 1.2448364.026253 2.166307 1.601432 3.3722423l-.0883055 1.3420892-.3047023-.228527-.2047519-.1605036-.2361951-.1918927-.2555486-.216817c-.0870652-.0757081-.1753411-.1544927-.2628127-.2352764l-.2579872-.247271c-.2934688-.2929655-.5524029-.5972207-.6904127-.8665688l-.0414828-.0838186-.0869922-.1856364-.0879502-.2093144c-.3033281-.7735875-.5270115-1.9751816.3500768-3.53047893.5847255-.96280311 1.7374701-1.8867051 3.7684964-1.78945226z" />
</svg>
