<svg viewBox="0 0 32 32" xmlns="http://www.w3.org/2000/svg" xmlns:xlink="http://www.w3.org/1999/xlink">
  <path fill="url(#gradient-purple-blue)" fill-rule="evenodd"
    d="M17.157 17.432l.126-1.337.304.236.319.26.374.327.261.241.256.254c.29.3.546.611.679.884l.122.273.042.103.082.224c.262.783.398 1.946-.489 3.401-.621.944-1.818 1.836-3.88 1.685-1.039-.07-3.54-1.408-3.069-4.363.024-.158.066-.33.114-.497l.075-.24.109-.31.093-.237-1.4.272L11 17.503l3.42-.811.666 3.545-1.017.201-.355-1.682-.046.08-.049.097-.058.132-.061.162c-.191.562-.335 1.557.438 2.6.56.657.889.814 1.412.927l.435.083c.707.121 2.368-.078 2.912-1.993.24-1.236.029-2.164-1.54-3.412zm-.483-6.402v10.1h-1.1v-10.1h1.1zm-.024-3c1.039.043 3.576 1.313 3.183 4.28-.02.158-.057.332-.1.5l-.07.243-.1.312-.087.241 1.393-.31.304 1.1-3.397.9-.757-3.525 1.01-.229.398 1.67.066-.126.051-.116.057-.149.055-.179c.16-.579.225-1.526-.535-2.493-.577-.641-.911-.791-1.436-.89l-.436-.072c-.711-.102-2.365.139-2.857 2.069-.21 1.243.026 2.163 1.629 3.367l-.09 1.34-.31-.228-.208-.16-.24-.192-.26-.216a11.947 11.947 0 01-.268-.235l-.263-.247c-.298-.292-.561-.596-.702-.865l-.042-.084-.089-.185-.089-.21c-.309-.772-.536-1.972.356-3.525.595-.961 1.768-1.884 3.834-1.787z" />
</svg>
