<svg viewBox="0 0 32 32" xmlns="http://www.w3.org/2000/svg"><path d="m15.9930586 8.00694143c1.0776572 0 2.1275488.20997831 3.1132321.62646421.9527115.40260304 1.8065076.97874187 2.540564 1.71279826.7340564.7340564 1.3101952 1.5895879 1.7127982 2.540564.4164859.9856833.6281996 2.0338395.6281996 3.1114967 0 1.0793927-.2117137 2.1258135-.6281996 3.1114968-.402603.9527115-.9787418 1.8065076-1.7127982 2.540564s-1.5895879 1.3101952-2.540564 1.7127982c-.9856833.4199567-2.0321041.6316703-3.1114968.6316703-1.0793926 0-2.1258134-.2117136-3.1114967-.6281995-.9527115-.4026031-1.8065076-.9787419-2.540564-1.7127983-.73405641-.7340564-1.31019524-1.5895879-1.71279828-2.540564-.41822125-.9874187-.62993492-2.0338395-.62993492-3.1132321s.21171367-2.1258134.62819957-3.1114967c.40260303-.9527115.97874186-1.8065076 1.71279823-2.540564.7340564-.73405644 1.5895879-1.31019527 2.540564-1.7127983.9856833-.4164859 2.0338395-.62819957 3.1114968-.62819957zm.0017353 1.77527115c-1.6607375 0-3.2225596.64728852-4.3973969 1.82039042-1.1748373 1.1748373-1.82039049 2.7366595-1.82039049 4.397397s.64728849 3.2225597 1.82039049 4.397397c1.1748373 1.1731019 2.7366594 1.8203904 4.3973969 1.8203904 1.6607376 0 3.2225597-.6472885 4.397397-1.8203904 1.1731019-1.1748373 1.8203904-2.7366595 1.8203904-4.397397s-.6472885-3.2225597-1.8203904-4.397397c-1.1748373-1.1731019-2.7366594-1.82039042-4.397397-1.82039042zm.8659436 1.01518442v1.4212581h2.1501085c0 .586551.0711497 1.154013-.0347072 1.6885033-.0537961.2845986-.3731019.5327548-.5865509.780911-.6750543.8-1.3501085 1.5809111-2.0425163 2.3809111-.2637744.3175705-.5292842.6004338-.8329718.921475h3.4637744v1.740564h-2.1327549c.0347072.4980477.0537961.959653.0885033 1.4559653h-1.7943601v-1.4386117h-2.1327549c0-.5691974-.0711497-1.1366594.0347072-1.6694143.053796-.2845987.3731019-.5327549.5691973-.7809111.6750543-.8 1.3501085-1.580911 2.0425163-2.380911.2672451-.3019523.5327549-.586551.8347072-.9232105h-3.3214751v-1.7405639h1.9713666v-1.4559653z" fill-rule="evenodd"/></svg>
