<svg viewBox="0 0 32 32" xmlns="http://www.w3.org/2000/svg">
  <path fill="url(#gradient-red-orange)" fill-rule="evenodd"
    d="m15.9991317 8c1.078476 0 2.1291653.21013785 3.1155975.62694019.9534354.40290894 1.8078802.97948551 2.5424943 1.71409961.7346141.7346142 1.3111907 1.5907956 1.7140996 2.5424943.4168024.9864323.6286769 2.0353848.6286769 3.1138609 0 1.0802127-.2118745 2.1274286-.6286769 3.1138608-.4029089.9534354-.9794855 1.8078802-1.7140996 2.5424943-.7346141.7346142-1.5907956 1.3111907-2.5424943 1.7140997-.9864322.4202757-2.0336481.6321502-3.1138609.6321502-1.0802127 0-2.1274286-.2118745-3.1138608-.6286769-.9534354-.4029089-1.8078802-.9794855-2.5424943-1.7140996-.73461414-.7346141-1.31119072-1.5907956-1.71409965-2.5424943-.41853902-.9881689-.63041355-2.0353848-.63041355-3.1155975 0-1.0802128.21187453-2.1274287.62867687-3.1138609.40290893-.9534354.97948551-1.8078802 1.71409963-2.5424943.7346141-.73461412 1.5907956-1.3111907 2.5424943-1.71409963.9864322-.41680234 2.0353848-.62867687 3.1138609-.62867687zm.0017366 1.77661999c-1.6619993 0-3.2250081.64778031-4.400738 1.82177361-1.17573 1.1757299-1.82177363 2.7387387-1.82177363 4.4007381 0 1.6619993.64778033 3.2250081 1.82177363 4.400738 1.1757299 1.1739933 2.7387387 1.8217736 4.400738 1.8217736 1.6619994 0 3.2250082-.6477803 4.4007381-1.8217736 1.1739933-1.1757299 1.8217736-2.7387387 1.8217736-4.400738 0-1.6619994-.6477803-3.2250082-1.8217736-4.4007381-1.1757299-1.1739933-2.7387387-1.82177361-4.4007381-1.82177361zm.8666016 1.01595571v1.422338h2.1517421c0 .5869966.0712037 1.1548898-.0347335 1.6897862-.053837.2848149-.3733855.5331596-.5869967.7815044-.6755671.8006078-1.3511342 1.5821122-2.0440681 2.38272-.2639749.3178118-.5296864.6008901-.8336047.9221752h3.4664061v1.7418865h-2.1343753c.0347335.4984261.053837.9603821.0885705 1.4570715h-1.7957234v-1.4397047h-2.1343754c0-.5696299-.0712037-1.1375231.0347335-1.6706828.053837-.2848149.3733855-.5331596.5696299-.7815044.6755671-.8006078 1.3511343-1.5821122 2.0440682-2.38272.2674482-.3021817.5331596-.5869967.8353413-.9239119h-3.3239987v-1.7418865h1.9728645v-1.4570715z" />
</svg>
