<svg viewBox="0 0 32 32" xmlns="http://www.w3.org/2000/svg" xmlns:xlink="http://www.w3.org/1999/xlink">
  <path fill="url(#gradient-purple-green)" fill-rule="evenodd"
    d="m20.2833962 18.6961509c.1778113.2186416.3473963.4443019.5197736.6673963.4270189.5613585.8497359 1.1257358 1.2584906 1.7000754-.1166038.1627925-.2609057.3037736-.3980378.449434-1.1439245 1.1776604-2.6593962 1.990566-4.2768301 2.2817359-.3821887.073283-.7711699.1043018-1.1593963.1297358h-.5768302c-.1710188-.0216604-.3434717-.0252075-.514566-.0449811-1.1124528-.1169812-2.2028679-.4678491-3.1660377-1.0378868.3298113-.2514717.6643019-.4966038.9956226-.7461132 1.2649057-.9435472 2.5293585-1.8877736 3.7933585-2.8326038.2144906.1977358.4169057.4081509.628.6098868.2468679.2362264.4840755.4835472.7361509.714717.6185661-.282868 1.1733585-.7005283 1.6305661-1.2031698.1969811-.2132076.3654339-.4498114.5297358-.6882265zm-11.2228679-6.6832452c.28060378.3533585.54867925.717132.824 1.0749434.8733585 1.1437735 1.7461132 2.2876981 2.6186415 3.4317735.0570566.0753208.118566.1473963.1676981.2284529-.4406037.4599245-.8926792.9090566-1.3314717 1.370717.1058868.2499622.2491321.482566.398717.7086792.2270943.3339623.4926038.64.7912453.9118491.2149434.2009056.4550189.3716981.6964528.5392452-.2104151.1766793-.4322264.3390189-.6491321.5073208-.386415.2957736-.7760754.5873962-1.1688301.8747924-.1858868.1316227-.3640755.2742642-.5556982.397434-1.23622637-1.0333585-2.14626411-2.450566-2.56890562-4.0050566-.17177358-.6159245-.25539622-1.2533585-.28324528-1.8916226v-.3980378c.00920755-.1380377.01781132-.2760754.0274717-.4140377.06067924-.790566.23984905-1.5673208.53139622-2.3043774.14332076-.354566.30309434-.7046792.50166038-1.0320754zm12.009434-2.1483774c1.0501132.873434 1.8649056 2.0256604 2.3462641 3.3030189.6098113 1.6037736.6717736 3.4070188.1813585 5.0504905-.1715472.5790189-.4093585 1.1364529-.7086792 1.6609057-.046717-.0396981-.0796982-.0923774-.1160755-.1403774-.964-1.2735094-1.9279245-2.5469434-2.8917736-3.8203018-.1871698-.2501887-.3799245-.4960755-.5641509-.7484529.4219622-.453283.8621132-.890717 1.2855849-1.3430943-.2950944-.637283-.7176604-1.2073208-1.2417359-1.6749434-.2058868-.1874717-.4328302-.3489811-.6620377-.5057359.2795472-.2315471.5721509-.4470943.859849-.6686792.4995472-.3767547.9999246-.7527547 1.5113963-1.1128302zm-4.902868-1.8645283c.2993963.01969811.5991699.03743396.8966038.07962264 1.0176604.14332076 2.0101887.48166038 2.8951698 1.00528302-.2036981.16188679-.4220377.30422642-.6308679.45909434-1.4117736 1.0104906-2.82 2.0262642-4.2335849 3.0343396-.114566-.0949434-.2138113-.2063396-.3223396-.3074717-.322717-.3089811-.6362264-.6270188-.9615849-.9323019-.1185661.0427925-.226868.1086038-.3375849.1680755-.7385661.4120755-1.3669434 1.0126038-1.8245283 1.7224906-.5957736-.7518491-1.166717-1.5232453-1.73033966-2.2990189-.01766038-.0258113-.03350944-.0527547-.04950944-.0796226.2127547-.2543397.4418113-.4947925.6855094-.7197736 1.2200755-1.13547172 2.8045283-1.87660379 4.4620378-2.07086794.2237736-.03033963.4496603-.036.6739622-.05984906z" />
</svg>
