<svg viewBox="0 0 32 32" xmlns="http://www.w3.org/2000/svg">
  <path fill="url(#gradient-purple-green)" fill-rule="evenodd"
    d="m20.3416064 18.7468436c.178654.2196778.3490426.4464076.5222368.6705593.4290425.5640189.8537628 1.131071 1.2644545 1.7081326-.1171564.163564-.2621421.3052133-.399924.451564-1.1493455 1.1832418-2.671999 2-4.2970978 2.2925498-.3839998.0736304-.7748244.1047962-1.1648906.1303507h-.5795637c-.1718293-.0217631-.3450994-.025327-.5170045-.0451943-1.1177247-.1175356-2.2133072-.4700664-3.1810414-1.0428057.3313743-.2526635.66745-.4989573 1.0003408-.7496493 1.2709-.9480189 2.541345-1.8967204 3.811335-2.8460284.215507.1986729.4188814.4100852.630976.6127772.2480378.237346.4863695.4858389.7396395.7181043.6214975-.2842086 1.178919-.7038483 1.6382933-1.208872.1979145-.2142181.3671656-.4519432.5322461-.6914882zm-11.27605232-6.7149194c.28193354.3550332.5512794.7205307.82790488 1.0800379.87749734 1.1491943 1.75438794 2.2985403 2.63105104 3.4480379.057327.0756777.1191279.1480948.1684929.2295356-.4426917.4621042-.8969096.9133649-1.3377815 1.3772133.1063886.2511468.2503127.484853.4006065.7120378.2281705.3355451.4949382.6430332.7949949.9161707.215962.2018578.4571753.3734597.6997533.5418009-.2114123.1775166-.4342747.3406256-.6522083.5097251-.3882462.2971754-.7797532.5901801-1.1743691.8789384-.1867677.1322465-.3658008.275564-.5583316.3993175-1.2420848-1.0382559-2.15643516-2.46218-2.58107954-4.0240379-.1725876-.6188436-.25660653-1.2592986-.28458756-1.9005876v-.3999243c.00925118-.1386919.01789573-.2773838.02760189-.4159999.06096679-.7943128.24098568-1.5747489.53391447-2.3152986.14399995-.3562464.30453069-.7080189.50403772-1.0369668zm12.06634592-2.15855927c1.0550897.87757347 1.8737433 2.03526067 2.3573829 3.31867297.6127012 1.6113745.6749571 3.4231659.182218 5.0744265-.1723602.5817631-.4112984 1.141839-.7120376 1.6687773-.0469384-.0398862-.0800759-.0928152-.1166256-.1410427-.9685683-1.279545-1.9370608-2.5590142-2.9054775-3.8384075-.1880568-.2513744-.381725-.4984265-.5668244-.7520001.4239619-.4554312.8661987-.8949384 1.2916772-1.3494596-.2964928-.6403033-.7210613-1.2130427-1.2476204-1.6828815-.2068625-.1883602-.4348814-.3506351-.6651751-.5081328.280872-.2326445.5748623-.4492132.8639238-.6718483.5019145-.3785403 1.0046632-.7563223 1.5185587-1.11810427zm-4.9261024-1.87336493c.3008152.01979147.6020094.03761137.9008528.08 1.022483.144 2.0197149.48394313 2.9088898 1.01004739-.2046634.16265403-.4240377.30566825-.6338575.46127015-1.4184639 1.01527966-2.8333638 2.03586736-4.2536476 3.04872036-.1151089-.0953934-.2148245-.2073175-.3238672-.3089289-.3242463-.3104455-.6392414-.6299905-.9661417-.9367204-.119128.0429953-.2279432.1091185-.3391847.1688721-.7420662.4140284-1.3734213 1.0174028-1.8331747 1.730654-.5985969-.7554123-1.172246-1.5304645-1.7385396-2.3099147-.01774407-.0259336-.03366824-.0530047-.04974406-.08.21376296-.2555451.44390506-.4971375.68875796-.7231848 1.2258574-1.14085312 2.8178188-1.88549766 4.4831831-2.0806825.2248341-.03048341.4517913-.03617061.6771561-.0601327z" />
</svg>
